<svg width="38" height="38" viewBox="0 0 38 38" fill="none" xmlns="http://www.w3.org/2000/svg">
<path d="M16.2045 22.2437C16.3053 22.0862 16.3717 21.9255 16.4849 21.8115C19.5812 18.7071 22.684 15.6083 25.782 12.5055C26.151 12.1357 26.5568 11.8544 27.1021 11.8593C27.7606 11.8651 28.26 12.1627 28.565 12.7424C28.8717 13.3255 28.8192 13.9036 28.4404 14.4415C28.3313 14.5964 28.1952 14.7342 28.0599 14.8695C24.5356 18.3963 21.0104 21.9214 17.4845 25.4466C16.5603 26.3707 15.6756 26.3699 14.7514 25.4474C13.109 23.8058 11.4649 22.165 9.82576 20.5201C9.21323 19.9059 9.07547 19.1777 9.42479 18.5086C9.95778 17.4877 11.246 17.3221 12.1209 18.1839C13.3476 19.3909 14.5563 20.616 15.774 21.8329C15.8789 21.9378 15.988 22.037 16.2045 22.2437Z" fill="url(#paint0_linear_897_550)"/>
<path d="M19 38C13.9251 38 9.15355 36.0238 5.56528 32.4347C1.97618 28.8464 0 24.0749 0 19C0 13.9251 1.97618 9.15355 5.56528 5.56528C9.15355 1.97618 13.9251 0 19 0C24.0749 0 28.8464 1.97618 32.4347 5.56528C36.023 9.15355 38 13.9251 38 19C38 24.0749 36.0238 28.8464 32.4347 32.4347C28.8464 36.0238 24.0749 38 19 38ZM19 2.55181C9.93091 2.55181 2.55181 9.93009 2.55181 19C2.55181 28.0691 9.93009 35.4482 19 35.4482C28.0699 35.4482 35.4482 28.0691 35.4482 19C35.4482 9.93091 28.0691 2.55181 19 2.55181Z" fill="url(#paint1_linear_897_550)"/>
<defs>
<linearGradient id="paint0_linear_897_550" x1="9.68598" y1="19.0814" x2="21.9229" y2="19.0814" gradientUnits="userSpaceOnUse">
<stop stop-color="#623D90"/>
<stop offset="1" stop-color="#9F0B00"/>
</linearGradient>
<linearGradient id="paint1_linear_897_550" x1="0.875" y1="19.2184" x2="24.6875" y2="19.2184" gradientUnits="userSpaceOnUse">
<stop stop-color="#623D90"/>
<stop offset="1" stop-color="#9F0B00"/>
</linearGradient>
</defs>
</svg>
