<svg width="111" height="110" viewBox="0 0 111 110" fill="none" xmlns="http://www.w3.org/2000/svg">
<g clip-path="url(#clip0_467_141)">
<path d="M69.7477 31H59.0102C58.0102 31 57.0477 31.375 56.3102 32.05L44.0227 43.3C44.0102 43.3125 43.9977 43.3375 43.9852 43.35C41.9102 45.3 41.9477 48.4125 43.7227 50.35C45.3102 52.0875 48.6477 52.55 50.7352 50.6875C50.7477 50.675 50.7727 50.675 50.7852 50.6625L60.7727 41.5125C61.5852 40.775 62.8602 40.825 63.5977 41.6375C64.3477 42.45 64.2852 43.7125 63.4727 44.4625L60.2102 47.45L78.4102 62.225C78.7727 62.525 79.0977 62.85 79.3977 63.1875V39L72.5727 32.175C71.8352 31.425 70.8102 31 69.7477 31ZM83.4102 39.025V67.0125C83.4102 69.225 85.1977 71.0125 87.4102 71.0125H95.4102V39.025H83.4102ZM89.4102 67.0125C88.3102 67.0125 87.4102 66.1125 87.4102 65.0125C87.4102 63.9125 88.3102 63.0125 89.4102 63.0125C90.5102 63.0125 91.4102 63.9125 91.4102 65.0125C91.4102 66.1125 90.5102 67.0125 89.4102 67.0125ZM15.4102 71H23.4102C25.6227 71 27.4102 69.2125 27.4102 67V39.025H15.4102V71ZM21.4102 63.0125C22.5102 63.0125 23.4102 63.9125 23.4102 65.0125C23.4102 66.1125 22.5102 67.0125 21.4102 67.0125C20.3102 67.0125 19.4102 66.1125 19.4102 65.0125C19.4102 63.9 20.3102 63.0125 21.4102 63.0125ZM75.8977 65.3375L57.2352 50.1875L53.4852 53.625C49.7727 57.0125 44.0852 56.6875 40.7727 53.075C37.4102 49.4 37.6727 43.7125 41.3227 40.3625L51.5477 31H41.0727C40.0102 31 38.9977 31.425 38.2477 32.175L31.4102 39V66.9875H33.6977L45.0102 77.225C48.4352 80.0125 53.4727 79.4875 56.2602 76.0625L56.2852 76.0375L58.5227 77.975C60.5102 79.6 63.4477 79.2875 65.0602 77.3L68.9852 72.475L69.6602 73.025C71.3727 74.4125 73.8977 74.1625 75.2852 72.4375L76.4727 70.975C77.8727 69.25 77.6102 66.7375 75.8977 65.3375Z" fill="url(#paint0_linear_467_141)"/>
</g>
<circle cx="55.4102" cy="55" r="53" stroke="url(#paint1_linear_467_141)" stroke-width="4"/>
<defs>
<linearGradient id="paint0_linear_467_141" x1="17.2523" y1="55.2847" x2="95.4102" y2="55" gradientUnits="userSpaceOnUse">
<stop stop-color="#623D90"/>
<stop offset="1" stop-color="#9F0B00"/>
</linearGradient>
<linearGradient id="paint1_linear_467_141" x1="2.94305" y1="55.6321" x2="109.41" y2="56.9999" gradientUnits="userSpaceOnUse">
<stop stop-color="#623D90"/>
<stop offset="1" stop-color="#9F0B00"/>
</linearGradient>
<clipPath id="clip0_467_141">
<rect width="80" height="64" fill="white" transform="translate(15.4102 23)"/>
</clipPath>
</defs>
</svg>
