<svg width="49" height="41" viewBox="0 0 49 41" fill="none" xmlns="http://www.w3.org/2000/svg">
<path d="M47.3205 10.2629L42.2627 2.16913C41.8107 1.44257 41.008 0.997253 40.1508 0.997253H8.6665C7.80925 0.997253 7.00656 1.44257 6.55455 2.16913L1.49681 10.2629C-1.11389 14.4426 1.20067 20.2551 6.07917 20.9191C6.42986 20.966 6.78835 20.9894 7.14683 20.9894C9.4536 20.9894 11.4954 19.9738 12.8982 18.4035C14.3009 19.9738 16.3505 20.9894 18.6495 20.9894C20.9563 20.9894 22.9981 19.9738 24.4008 18.4035C25.8036 19.9738 27.8532 20.9894 30.1522 20.9894C32.4589 20.9894 34.5007 19.9738 35.9035 18.4035C37.3141 19.9738 39.3559 20.9894 41.6548 20.9894C42.0211 20.9894 42.3718 20.966 42.7225 20.9191C47.6166 20.2629 49.939 14.4504 47.3205 10.2629ZM41.6704 23.4973C40.8911 23.4973 40.1196 23.3801 39.3715 23.2004V30.9973H9.44581V23.2004C8.69767 23.3723 7.92615 23.4973 7.14683 23.4973C6.67924 23.4973 6.20386 23.466 5.74407 23.4035C5.30765 23.341 4.87903 23.2394 4.46599 23.1223V38.4973C4.46599 39.8801 5.58041 40.9973 6.9598 40.9973H41.8731C43.2524 40.9973 44.3669 39.8801 44.3669 38.4973V23.1223C43.946 23.2473 43.5252 23.3488 43.0888 23.4035C42.6134 23.466 42.1458 23.4973 41.6704 23.4973Z" fill="url(#paint0_linear_459_13)"/>
<defs>
<linearGradient id="paint0_linear_459_13" x1="48.4102" y1="0.997253" x2="0.410156" y2="0.997089" gradientUnits="userSpaceOnUse">
<stop stop-color="#9F0A00"/>
<stop offset="1" stop-color="#623D90"/>
</linearGradient>
</defs>
</svg>
