<svg width="43" height="40" viewBox="0 0 43 40" fill="none" xmlns="http://www.w3.org/2000/svg">
<mask id="path-1-outside-1_897_737" maskUnits="userSpaceOnUse" x="0" y="0" width="43" height="40" fill="black">
<rect fill="white" width="43" height="40"/>
<path d="M1 26.3294C1 25.959 1 25.5876 1 25.2172C1.02995 25.1334 1.06632 25.0517 1.08772 24.9657C1.32305 23.9948 1.8333 23.2074 2.71366 22.7065C3.13619 22.4667 3.60899 22.317 4.10212 22.108C4.10212 21.9881 4.10212 21.8172 4.10212 21.6464C4.10212 15.2389 4.10212 8.83153 4.10319 2.42411C4.10212 1.44464 4.55461 1 5.54729 1C16.1566 1 26.7648 1 37.374 1C38.3592 1 38.8096 1.44888 38.8106 2.43366C38.8117 5.53125 38.8106 8.62884 38.8106 11.7264C38.8106 14.5991 38.8106 17.4717 38.8096 20.3443C38.8096 20.5459 38.785 20.7125 39.0823 20.7677C40.6045 21.0532 41.7234 22.1409 41.9138 23.6605C42.0379 24.6527 41.9908 25.6672 41.993 26.6721C42.0015 29.4386 41.9962 32.2062 41.9951 34.9727C41.9951 37.0165 40.3735 38.6805 38.3539 38.5765C37.7944 38.5478 37.2328 38.569 36.6723 38.5722C35.7417 38.5775 34.9265 38.2592 34.3168 37.5768C33.9863 37.2075 33.6814 37.1269 33.2567 37.3009C33.2075 37.3211 33.1551 37.3338 33.1027 37.3444C31.0703 37.7753 29.056 38.3366 27.0022 38.6072C23.0636 39.1251 19.0961 39.0965 15.1414 38.7219C12.0297 38.4279 9.41959 37.112 7.39573 34.7286C5.73662 32.775 4.1171 30.7885 2.46656 28.8284C1.83223 28.075 1.2011 27.329 1 26.3294ZM33.3691 23.1639C34.1895 21.5222 34.4527 21.3057 36.3771 20.6807C36.3771 17.4091 36.3771 14.1343 36.3771 10.8541C33.0428 10.8541 29.7321 10.8541 26.4299 10.8541C26.4128 10.9114 26.3989 10.9369 26.3989 10.9613C26.3957 12.3377 26.3978 13.714 26.3914 15.0904C26.3882 15.9096 25.8994 16.3956 25.0704 16.3967C22.6154 16.4009 20.1615 16.4009 17.7065 16.3967C16.8636 16.3956 16.378 15.899 16.3769 15.0522C16.3737 13.7947 16.3758 12.5382 16.3758 11.2807C16.3758 11.1396 16.3758 10.9974 16.3758 10.8467C13.0694 10.8467 9.81003 10.8467 6.51429 10.8467C6.51429 11.0282 6.51429 11.1842 6.51429 11.3402C6.51429 14.9004 6.52178 18.4596 6.50467 22.0199C6.50253 22.4624 6.56992 22.7935 6.98389 23.0397C7.21602 23.1777 7.38931 23.4196 7.57864 23.6234C8.71038 24.8384 9.83892 26.0556 10.9674 27.2738C11.0616 27.3757 11.1472 27.485 11.237 27.5911C11.3247 27.3545 11.3247 27.173 11.3247 26.9915C11.3279 24.8575 12.7239 23.4674 14.8772 23.4578C16.0111 23.4525 17.1492 23.3963 18.2778 23.4716C19.9786 23.5851 21.5136 23.2063 23.0358 22.4338C26.0694 20.894 29.1406 20.981 32.1614 22.5611C32.5614 22.768 32.9669 22.9622 33.3691 23.1639ZM13.7412 28.5886C13.9647 28.5886 14.138 28.5886 14.3103 28.5886C17.6327 28.5886 20.9542 28.5844 24.2766 28.596C24.574 28.5971 24.8981 28.6427 25.1623 28.768C25.6458 28.9961 25.8609 29.5702 25.7314 30.0881C25.5924 30.6463 25.0939 30.988 24.3868 30.989C20.8247 30.9922 17.2626 30.9933 13.6995 30.989C11.9644 30.9869 10.516 30.3512 9.34793 29.064C8.13382 27.7269 6.90046 26.4058 5.65319 25.0984C5.43711 24.8713 5.12797 24.675 4.82738 24.5965C4.31713 24.4638 3.80689 24.7514 3.55016 25.2056C3.29236 25.6619 3.34799 26.1171 3.74592 26.5978C5.51734 28.734 7.28769 30.8702 9.06873 32.9978C10.8156 35.0852 13.0159 36.3342 15.7886 36.4244C17.8937 36.4934 20.0021 36.5305 22.1084 36.5135C23.5204 36.5029 24.9495 36.4912 26.3369 36.2684C28.5426 35.9129 30.7184 35.377 32.9091 34.9302C33.1615 34.8793 33.2279 34.7711 33.2279 34.5323C33.2215 31.7127 33.2279 28.8942 33.2129 26.0747C33.2118 25.9314 33.0856 25.7256 32.9583 25.6576C32.1368 25.2215 31.3099 24.7896 30.4627 24.4044C28.5426 23.5321 26.5947 23.5077 24.6467 24.3205C23.9354 24.6177 23.2444 24.9647 22.5394 25.2777C21.6666 25.6661 20.7648 25.8794 19.7903 25.8571C18.1237 25.8179 16.455 25.8444 14.7873 25.8476C14.1958 25.8486 13.7797 26.1564 13.7487 26.6742C13.7134 27.2919 13.7412 27.9126 13.7412 28.5886ZM26.415 8.39326C29.7481 8.39326 33.0599 8.39326 36.3696 8.39326C36.3696 6.71765 36.3696 5.07176 36.3696 3.41631C33.0385 3.41631 29.7385 3.41631 26.415 3.41631C26.415 5.07494 26.415 6.71022 26.415 8.39326ZM35.6432 29.6307C35.6432 31.1662 35.6422 32.7018 35.6443 34.2373C35.6443 34.5419 35.6358 34.8475 35.6625 35.1499C35.7181 35.7962 36.1449 36.1793 36.7964 36.1846C37.3569 36.1888 37.9174 36.1899 38.4779 36.1835C38.9796 36.1782 39.3551 35.9193 39.4974 35.4481C39.5648 35.2242 39.5851 34.9801 39.5862 34.7445C39.5915 31.3424 39.5904 27.9402 39.5894 24.5381C39.5894 24.3927 39.5926 24.2452 39.569 24.103C39.4631 23.4514 39.0556 23.1066 38.3902 23.1012C37.8565 23.097 37.3227 23.0949 36.7889 23.1023C36.1588 23.1108 35.7342 23.4949 35.6646 24.1126C35.6454 24.2834 35.6454 24.4564 35.6454 24.6283C35.6422 26.2943 35.6432 27.9625 35.6432 29.6307ZM16.3534 8.39856C16.3534 6.72826 16.3534 5.08237 16.3534 3.41737C13.0726 3.41737 9.81431 3.41737 6.53676 3.41737C6.53676 5.08768 6.53676 6.73357 6.53676 8.39856C9.81859 8.39856 13.079 8.39856 16.3534 8.39856ZM23.9579 8.39644C23.9579 6.72402 23.9579 5.07706 23.9579 3.42799C22.2228 3.42799 20.5134 3.42799 18.8019 3.42799C18.8019 5.09935 18.8019 6.73463 18.8019 8.39644C20.5316 8.39644 22.2442 8.39644 23.9579 8.39644ZM23.9589 13.9868C23.9589 12.9288 23.9589 11.892 23.9589 10.8414C22.2324 10.8414 20.5316 10.8414 18.8105 10.8414C18.8105 11.8994 18.8105 12.9351 18.8105 13.9868C20.538 13.9868 22.2389 13.9868 23.9589 13.9868Z"/>
</mask>
<path d="M1 26.3294C1 25.959 1 25.5876 1 25.2172C1.02995 25.1334 1.06632 25.0517 1.08772 24.9657C1.32305 23.9948 1.8333 23.2074 2.71366 22.7065C3.13619 22.4667 3.60899 22.317 4.10212 22.108C4.10212 21.9881 4.10212 21.8172 4.10212 21.6464C4.10212 15.2389 4.10212 8.83153 4.10319 2.42411C4.10212 1.44464 4.55461 1 5.54729 1C16.1566 1 26.7648 1 37.374 1C38.3592 1 38.8096 1.44888 38.8106 2.43366C38.8117 5.53125 38.8106 8.62884 38.8106 11.7264C38.8106 14.5991 38.8106 17.4717 38.8096 20.3443C38.8096 20.5459 38.785 20.7125 39.0823 20.7677C40.6045 21.0532 41.7234 22.1409 41.9138 23.6605C42.0379 24.6527 41.9908 25.6672 41.993 26.6721C42.0015 29.4386 41.9962 32.2062 41.9951 34.9727C41.9951 37.0165 40.3735 38.6805 38.3539 38.5765C37.7944 38.5478 37.2328 38.569 36.6723 38.5722C35.7417 38.5775 34.9265 38.2592 34.3168 37.5768C33.9863 37.2075 33.6814 37.1269 33.2567 37.3009C33.2075 37.3211 33.1551 37.3338 33.1027 37.3444C31.0703 37.7753 29.056 38.3366 27.0022 38.6072C23.0636 39.1251 19.0961 39.0965 15.1414 38.7219C12.0297 38.4279 9.41959 37.112 7.39573 34.7286C5.73662 32.775 4.1171 30.7885 2.46656 28.8284C1.83223 28.075 1.2011 27.329 1 26.3294ZM33.3691 23.1639C34.1895 21.5222 34.4527 21.3057 36.3771 20.6807C36.3771 17.4091 36.3771 14.1343 36.3771 10.8541C33.0428 10.8541 29.7321 10.8541 26.4299 10.8541C26.4128 10.9114 26.3989 10.9369 26.3989 10.9613C26.3957 12.3377 26.3978 13.714 26.3914 15.0904C26.3882 15.9096 25.8994 16.3956 25.0704 16.3967C22.6154 16.4009 20.1615 16.4009 17.7065 16.3967C16.8636 16.3956 16.378 15.899 16.3769 15.0522C16.3737 13.7947 16.3758 12.5382 16.3758 11.2807C16.3758 11.1396 16.3758 10.9974 16.3758 10.8467C13.0694 10.8467 9.81003 10.8467 6.51429 10.8467C6.51429 11.0282 6.51429 11.1842 6.51429 11.3402C6.51429 14.9004 6.52178 18.4596 6.50467 22.0199C6.50253 22.4624 6.56992 22.7935 6.98389 23.0397C7.21602 23.1777 7.38931 23.4196 7.57864 23.6234C8.71038 24.8384 9.83892 26.0556 10.9674 27.2738C11.0616 27.3757 11.1472 27.485 11.237 27.5911C11.3247 27.3545 11.3247 27.173 11.3247 26.9915C11.3279 24.8575 12.7239 23.4674 14.8772 23.4578C16.0111 23.4525 17.1492 23.3963 18.2778 23.4716C19.9786 23.5851 21.5136 23.2063 23.0358 22.4338C26.0694 20.894 29.1406 20.981 32.1614 22.5611C32.5614 22.768 32.9669 22.9622 33.3691 23.1639ZM13.7412 28.5886C13.9647 28.5886 14.138 28.5886 14.3103 28.5886C17.6327 28.5886 20.9542 28.5844 24.2766 28.596C24.574 28.5971 24.8981 28.6427 25.1623 28.768C25.6458 28.9961 25.8609 29.5702 25.7314 30.0881C25.5924 30.6463 25.0939 30.988 24.3868 30.989C20.8247 30.9922 17.2626 30.9933 13.6995 30.989C11.9644 30.9869 10.516 30.3512 9.34793 29.064C8.13382 27.7269 6.90046 26.4058 5.65319 25.0984C5.43711 24.8713 5.12797 24.675 4.82738 24.5965C4.31713 24.4638 3.80689 24.7514 3.55016 25.2056C3.29236 25.6619 3.34799 26.1171 3.74592 26.5978C5.51734 28.734 7.28769 30.8702 9.06873 32.9978C10.8156 35.0852 13.0159 36.3342 15.7886 36.4244C17.8937 36.4934 20.0021 36.5305 22.1084 36.5135C23.5204 36.5029 24.9495 36.4912 26.3369 36.2684C28.5426 35.9129 30.7184 35.377 32.9091 34.9302C33.1615 34.8793 33.2279 34.7711 33.2279 34.5323C33.2215 31.7127 33.2279 28.8942 33.2129 26.0747C33.2118 25.9314 33.0856 25.7256 32.9583 25.6576C32.1368 25.2215 31.3099 24.7896 30.4627 24.4044C28.5426 23.5321 26.5947 23.5077 24.6467 24.3205C23.9354 24.6177 23.2444 24.9647 22.5394 25.2777C21.6666 25.6661 20.7648 25.8794 19.7903 25.8571C18.1237 25.8179 16.455 25.8444 14.7873 25.8476C14.1958 25.8486 13.7797 26.1564 13.7487 26.6742C13.7134 27.2919 13.7412 27.9126 13.7412 28.5886ZM26.415 8.39326C29.7481 8.39326 33.0599 8.39326 36.3696 8.39326C36.3696 6.71765 36.3696 5.07176 36.3696 3.41631C33.0385 3.41631 29.7385 3.41631 26.415 3.41631C26.415 5.07494 26.415 6.71022 26.415 8.39326ZM35.6432 29.6307C35.6432 31.1662 35.6422 32.7018 35.6443 34.2373C35.6443 34.5419 35.6358 34.8475 35.6625 35.1499C35.7181 35.7962 36.1449 36.1793 36.7964 36.1846C37.3569 36.1888 37.9174 36.1899 38.4779 36.1835C38.9796 36.1782 39.3551 35.9193 39.4974 35.4481C39.5648 35.2242 39.5851 34.9801 39.5862 34.7445C39.5915 31.3424 39.5904 27.9402 39.5894 24.5381C39.5894 24.3927 39.5926 24.2452 39.569 24.103C39.4631 23.4514 39.0556 23.1066 38.3902 23.1012C37.8565 23.097 37.3227 23.0949 36.7889 23.1023C36.1588 23.1108 35.7342 23.4949 35.6646 24.1126C35.6454 24.2834 35.6454 24.4564 35.6454 24.6283C35.6422 26.2943 35.6432 27.9625 35.6432 29.6307ZM16.3534 8.39856C16.3534 6.72826 16.3534 5.08237 16.3534 3.41737C13.0726 3.41737 9.81431 3.41737 6.53676 3.41737C6.53676 5.08768 6.53676 6.73357 6.53676 8.39856C9.81859 8.39856 13.079 8.39856 16.3534 8.39856ZM23.9579 8.39644C23.9579 6.72402 23.9579 5.07706 23.9579 3.42799C22.2228 3.42799 20.5134 3.42799 18.8019 3.42799C18.8019 5.09935 18.8019 6.73463 18.8019 8.39644C20.5316 8.39644 22.2442 8.39644 23.9579 8.39644ZM23.9589 13.9868C23.9589 12.9288 23.9589 11.892 23.9589 10.8414C22.2324 10.8414 20.5316 10.8414 18.8105 10.8414C18.8105 11.8994 18.8105 12.9351 18.8105 13.9868C20.538 13.9868 22.2389 13.9868 23.9589 13.9868Z" fill="url(#paint0_linear_897_737)"/>
<path d="M1 26.3294C1 25.959 1 25.5876 1 25.2172C1.02995 25.1334 1.06632 25.0517 1.08772 24.9657C1.32305 23.9948 1.8333 23.2074 2.71366 22.7065C3.13619 22.4667 3.60899 22.317 4.10212 22.108C4.10212 21.9881 4.10212 21.8172 4.10212 21.6464C4.10212 15.2389 4.10212 8.83153 4.10319 2.42411C4.10212 1.44464 4.55461 1 5.54729 1C16.1566 1 26.7648 1 37.374 1C38.3592 1 38.8096 1.44888 38.8106 2.43366C38.8117 5.53125 38.8106 8.62884 38.8106 11.7264C38.8106 14.5991 38.8106 17.4717 38.8096 20.3443C38.8096 20.5459 38.785 20.7125 39.0823 20.7677C40.6045 21.0532 41.7234 22.1409 41.9138 23.6605C42.0379 24.6527 41.9908 25.6672 41.993 26.6721C42.0015 29.4386 41.9962 32.2062 41.9951 34.9727C41.9951 37.0165 40.3735 38.6805 38.3539 38.5765C37.7944 38.5478 37.2328 38.569 36.6723 38.5722C35.7417 38.5775 34.9265 38.2592 34.3168 37.5768C33.9863 37.2075 33.6814 37.1269 33.2567 37.3009C33.2075 37.3211 33.1551 37.3338 33.1027 37.3444C31.0703 37.7753 29.056 38.3366 27.0022 38.6072C23.0636 39.1251 19.0961 39.0965 15.1414 38.7219C12.0297 38.4279 9.41959 37.112 7.39573 34.7286C5.73662 32.775 4.1171 30.7885 2.46656 28.8284C1.83223 28.075 1.2011 27.329 1 26.3294ZM33.3691 23.1639C34.1895 21.5222 34.4527 21.3057 36.3771 20.6807C36.3771 17.4091 36.3771 14.1343 36.3771 10.8541C33.0428 10.8541 29.7321 10.8541 26.4299 10.8541C26.4128 10.9114 26.3989 10.9369 26.3989 10.9613C26.3957 12.3377 26.3978 13.714 26.3914 15.0904C26.3882 15.9096 25.8994 16.3956 25.0704 16.3967C22.6154 16.4009 20.1615 16.4009 17.7065 16.3967C16.8636 16.3956 16.378 15.899 16.3769 15.0522C16.3737 13.7947 16.3758 12.5382 16.3758 11.2807C16.3758 11.1396 16.3758 10.9974 16.3758 10.8467C13.0694 10.8467 9.81003 10.8467 6.51429 10.8467C6.51429 11.0282 6.51429 11.1842 6.51429 11.3402C6.51429 14.9004 6.52178 18.4596 6.50467 22.0199C6.50253 22.4624 6.56992 22.7935 6.98389 23.0397C7.21602 23.1777 7.38931 23.4196 7.57864 23.6234C8.71038 24.8384 9.83892 26.0556 10.9674 27.2738C11.0616 27.3757 11.1472 27.485 11.237 27.5911C11.3247 27.3545 11.3247 27.173 11.3247 26.9915C11.3279 24.8575 12.7239 23.4674 14.8772 23.4578C16.0111 23.4525 17.1492 23.3963 18.2778 23.4716C19.9786 23.5851 21.5136 23.2063 23.0358 22.4338C26.0694 20.894 29.1406 20.981 32.1614 22.5611C32.5614 22.768 32.9669 22.9622 33.3691 23.1639ZM13.7412 28.5886C13.9647 28.5886 14.138 28.5886 14.3103 28.5886C17.6327 28.5886 20.9542 28.5844 24.2766 28.596C24.574 28.5971 24.8981 28.6427 25.1623 28.768C25.6458 28.9961 25.8609 29.5702 25.7314 30.0881C25.5924 30.6463 25.0939 30.988 24.3868 30.989C20.8247 30.9922 17.2626 30.9933 13.6995 30.989C11.9644 30.9869 10.516 30.3512 9.34793 29.064C8.13382 27.7269 6.90046 26.4058 5.65319 25.0984C5.43711 24.8713 5.12797 24.675 4.82738 24.5965C4.31713 24.4638 3.80689 24.7514 3.55016 25.2056C3.29236 25.6619 3.34799 26.1171 3.74592 26.5978C5.51734 28.734 7.28769 30.8702 9.06873 32.9978C10.8156 35.0852 13.0159 36.3342 15.7886 36.4244C17.8937 36.4934 20.0021 36.5305 22.1084 36.5135C23.5204 36.5029 24.9495 36.4912 26.3369 36.2684C28.5426 35.9129 30.7184 35.377 32.9091 34.9302C33.1615 34.8793 33.2279 34.7711 33.2279 34.5323C33.2215 31.7127 33.2279 28.8942 33.2129 26.0747C33.2118 25.9314 33.0856 25.7256 32.9583 25.6576C32.1368 25.2215 31.3099 24.7896 30.4627 24.4044C28.5426 23.5321 26.5947 23.5077 24.6467 24.3205C23.9354 24.6177 23.2444 24.9647 22.5394 25.2777C21.6666 25.6661 20.7648 25.8794 19.7903 25.8571C18.1237 25.8179 16.455 25.8444 14.7873 25.8476C14.1958 25.8486 13.7797 26.1564 13.7487 26.6742C13.7134 27.2919 13.7412 27.9126 13.7412 28.5886ZM26.415 8.39326C29.7481 8.39326 33.0599 8.39326 36.3696 8.39326C36.3696 6.71765 36.3696 5.07176 36.3696 3.41631C33.0385 3.41631 29.7385 3.41631 26.415 3.41631C26.415 5.07494 26.415 6.71022 26.415 8.39326ZM35.6432 29.6307C35.6432 31.1662 35.6422 32.7018 35.6443 34.2373C35.6443 34.5419 35.6358 34.8475 35.6625 35.1499C35.7181 35.7962 36.1449 36.1793 36.7964 36.1846C37.3569 36.1888 37.9174 36.1899 38.4779 36.1835C38.9796 36.1782 39.3551 35.9193 39.4974 35.4481C39.5648 35.2242 39.5851 34.9801 39.5862 34.7445C39.5915 31.3424 39.5904 27.9402 39.5894 24.5381C39.5894 24.3927 39.5926 24.2452 39.569 24.103C39.4631 23.4514 39.0556 23.1066 38.3902 23.1012C37.8565 23.097 37.3227 23.0949 36.7889 23.1023C36.1588 23.1108 35.7342 23.4949 35.6646 24.1126C35.6454 24.2834 35.6454 24.4564 35.6454 24.6283C35.6422 26.2943 35.6432 27.9625 35.6432 29.6307ZM16.3534 8.39856C16.3534 6.72826 16.3534 5.08237 16.3534 3.41737C13.0726 3.41737 9.81431 3.41737 6.53676 3.41737C6.53676 5.08768 6.53676 6.73357 6.53676 8.39856C9.81859 8.39856 13.079 8.39856 16.3534 8.39856ZM23.9579 8.39644C23.9579 6.72402 23.9579 5.07706 23.9579 3.42799C22.2228 3.42799 20.5134 3.42799 18.8019 3.42799C18.8019 5.09935 18.8019 6.73463 18.8019 8.39644C20.5316 8.39644 22.2442 8.39644 23.9579 8.39644ZM23.9589 13.9868C23.9589 12.9288 23.9589 11.892 23.9589 10.8414C22.2324 10.8414 20.5316 10.8414 18.8105 10.8414C18.8105 11.8994 18.8105 12.9351 18.8105 13.9868C20.538 13.9868 22.2389 13.9868 23.9589 13.9868Z" stroke="url(#paint1_linear_897_737)" stroke-width="0.4" mask="url(#path-1-outside-1_897_737)"/>
<path d="M1 26.3294C1 25.959 1 25.5876 1 25.2172C1.02995 25.1334 1.06632 25.0517 1.08772 24.9657C1.32305 23.9948 1.8333 23.2074 2.71366 22.7065C3.13619 22.4667 3.60899 22.317 4.10212 22.108C4.10212 21.9881 4.10212 21.8172 4.10212 21.6464C4.10212 15.2389 4.10212 8.83153 4.10319 2.42411C4.10212 1.44464 4.55461 1 5.54729 1C16.1566 1 26.7648 1 37.374 1C38.3592 1 38.8096 1.44888 38.8106 2.43366C38.8117 5.53125 38.8106 8.62884 38.8106 11.7264C38.8106 14.5991 38.8106 17.4717 38.8096 20.3443C38.8096 20.5459 38.785 20.7125 39.0823 20.7677C40.6045 21.0532 41.7234 22.1409 41.9138 23.6605C42.0379 24.6527 41.9908 25.6672 41.993 26.6721C42.0015 29.4386 41.9962 32.2062 41.9951 34.9727C41.9951 37.0165 40.3735 38.6805 38.3539 38.5765C37.7944 38.5478 37.2328 38.569 36.6723 38.5722C35.7417 38.5775 34.9265 38.2592 34.3168 37.5768C33.9863 37.2075 33.6814 37.1269 33.2567 37.3009C33.2075 37.3211 33.1551 37.3338 33.1027 37.3444C31.0703 37.7753 29.056 38.3366 27.0022 38.6072C23.0636 39.1251 19.0961 39.0965 15.1414 38.7219C12.0297 38.4279 9.41959 37.112 7.39573 34.7286C5.73662 32.775 4.1171 30.7885 2.46656 28.8284C1.83223 28.075 1.2011 27.329 1 26.3294ZM33.3691 23.1639C34.1895 21.5222 34.4527 21.3057 36.3771 20.6807C36.3771 17.4091 36.3771 14.1343 36.3771 10.8541C33.0428 10.8541 29.7321 10.8541 26.4299 10.8541C26.4128 10.9114 26.3989 10.9369 26.3989 10.9613C26.3957 12.3377 26.3978 13.714 26.3914 15.0904C26.3882 15.9096 25.8994 16.3956 25.0704 16.3967C22.6154 16.4009 20.1615 16.4009 17.7065 16.3967C16.8636 16.3956 16.378 15.899 16.3769 15.0522C16.3737 13.7947 16.3758 12.5382 16.3758 11.2807C16.3758 11.1396 16.3758 10.9974 16.3758 10.8467C13.0694 10.8467 9.81003 10.8467 6.51429 10.8467C6.51429 11.0282 6.51429 11.1842 6.51429 11.3402C6.51429 14.9004 6.52178 18.4596 6.50467 22.0199C6.50253 22.4624 6.56992 22.7935 6.98389 23.0397C7.21602 23.1777 7.38931 23.4196 7.57864 23.6234C8.71038 24.8384 9.83892 26.0556 10.9674 27.2738C11.0616 27.3757 11.1472 27.485 11.237 27.5911C11.3247 27.3545 11.3247 27.173 11.3247 26.9915C11.3279 24.8575 12.7239 23.4674 14.8772 23.4578C16.0111 23.4525 17.1492 23.3963 18.2778 23.4716C19.9786 23.5851 21.5136 23.2063 23.0358 22.4338C26.0694 20.894 29.1406 20.981 32.1614 22.5611C32.5614 22.768 32.9669 22.9622 33.3691 23.1639ZM13.7412 28.5886C13.9647 28.5886 14.138 28.5886 14.3103 28.5886C17.6327 28.5886 20.9542 28.5844 24.2766 28.596C24.574 28.5971 24.8981 28.6427 25.1623 28.768C25.6458 28.9961 25.8609 29.5702 25.7314 30.0881C25.5924 30.6463 25.0939 30.988 24.3868 30.989C20.8247 30.9922 17.2626 30.9933 13.6995 30.989C11.9644 30.9869 10.516 30.3512 9.34793 29.064C8.13382 27.7269 6.90046 26.4058 5.65319 25.0984C5.43711 24.8713 5.12797 24.675 4.82738 24.5965C4.31713 24.4638 3.80689 24.7514 3.55016 25.2056C3.29236 25.6619 3.34799 26.1171 3.74592 26.5978C5.51734 28.734 7.28769 30.8702 9.06873 32.9978C10.8156 35.0852 13.0159 36.3342 15.7886 36.4244C17.8937 36.4934 20.0021 36.5305 22.1084 36.5135C23.5204 36.5029 24.9495 36.4912 26.3369 36.2684C28.5426 35.9129 30.7184 35.377 32.9091 34.9302C33.1615 34.8793 33.2279 34.7711 33.2279 34.5323C33.2215 31.7127 33.2279 28.8942 33.2129 26.0747C33.2118 25.9314 33.0856 25.7256 32.9583 25.6576C32.1368 25.2215 31.3099 24.7896 30.4627 24.4044C28.5426 23.5321 26.5947 23.5077 24.6467 24.3205C23.9354 24.6177 23.2444 24.9647 22.5394 25.2777C21.6666 25.6661 20.7648 25.8794 19.7903 25.8571C18.1237 25.8179 16.455 25.8444 14.7873 25.8476C14.1958 25.8486 13.7797 26.1564 13.7487 26.6742C13.7134 27.2919 13.7412 27.9126 13.7412 28.5886ZM26.415 8.39326C29.7481 8.39326 33.0599 8.39326 36.3696 8.39326C36.3696 6.71765 36.3696 5.07176 36.3696 3.41631C33.0385 3.41631 29.7385 3.41631 26.415 3.41631C26.415 5.07494 26.415 6.71022 26.415 8.39326ZM35.6432 29.6307C35.6432 31.1662 35.6422 32.7018 35.6443 34.2373C35.6443 34.5419 35.6358 34.8475 35.6625 35.1499C35.7181 35.7962 36.1449 36.1793 36.7964 36.1846C37.3569 36.1888 37.9174 36.1899 38.4779 36.1835C38.9796 36.1782 39.3551 35.9193 39.4974 35.4481C39.5648 35.2242 39.5851 34.9801 39.5862 34.7445C39.5915 31.3424 39.5904 27.9402 39.5894 24.5381C39.5894 24.3927 39.5926 24.2452 39.569 24.103C39.4631 23.4514 39.0556 23.1066 38.3902 23.1012C37.8565 23.097 37.3227 23.0949 36.7889 23.1023C36.1588 23.1108 35.7342 23.4949 35.6646 24.1126C35.6454 24.2834 35.6454 24.4564 35.6454 24.6283C35.6422 26.2943 35.6432 27.9625 35.6432 29.6307ZM16.3534 8.39856C16.3534 6.72826 16.3534 5.08237 16.3534 3.41737C13.0726 3.41737 9.81431 3.41737 6.53676 3.41737C6.53676 5.08768 6.53676 6.73357 6.53676 8.39856C9.81859 8.39856 13.079 8.39856 16.3534 8.39856ZM23.9579 8.39644C23.9579 6.72402 23.9579 5.07706 23.9579 3.42799C22.2228 3.42799 20.5134 3.42799 18.8019 3.42799C18.8019 5.09935 18.8019 6.73463 18.8019 8.39644C20.5316 8.39644 22.2442 8.39644 23.9579 8.39644ZM23.9589 13.9868C23.9589 12.9288 23.9589 11.892 23.9589 10.8414C22.2324 10.8414 20.5316 10.8414 18.8105 10.8414C18.8105 11.8994 18.8105 12.9351 18.8105 13.9868C20.538 13.9868 22.2389 13.9868 23.9589 13.9868Z" stroke="url(#paint2_linear_897_737)" stroke-width="0.4" mask="url(#path-1-outside-1_897_737)"/>
<defs>
<linearGradient id="paint0_linear_897_737" x1="1.94408" y1="20.2184" x2="27.6365" y2="20.2184" gradientUnits="userSpaceOnUse">
<stop stop-color="#623D90"/>
<stop offset="1" stop-color="#9F0B00"/>
</linearGradient>
<linearGradient id="paint1_linear_897_737" x1="21.5" y1="1" x2="21.5" y2="39" gradientUnits="userSpaceOnUse">
<stop stop-color="#5A9FFF"/>
<stop offset="1" stop-color="#5A9FFF"/>
</linearGradient>
<linearGradient id="paint2_linear_897_737" x1="1.94408" y1="20.2184" x2="27.6365" y2="20.2184" gradientUnits="userSpaceOnUse">
<stop stop-color="#623D90"/>
<stop offset="1" stop-color="#9F0B00"/>
</linearGradient>
</defs>
</svg>
