<svg width="111" height="110" viewBox="0 0 111 110" fill="none" xmlns="http://www.w3.org/2000/svg">
<g clip-path="url(#clip0_467_146)">
<path d="M68.5234 63.6438C67.982 64.2648 67.3773 64.8273 66.6602 65.2434V67.9316C74.4555 69.0262 79.7852 71.2188 79.7852 73.75C79.7852 77.3746 68.8727 80.3125 55.4102 80.3125C41.9477 80.3125 31.0352 77.3746 31.0352 73.75C31.0352 71.2188 36.3648 69.0273 44.1602 67.9316V65.2434C43.443 64.8273 42.8383 64.2648 42.2969 63.6438C32.309 65.4695 25.4102 69.3027 25.4102 73.75C25.4102 79.9633 38.8422 85 55.4102 85C71.9781 85 85.4102 79.9633 85.4102 73.75C85.4102 69.3027 78.5113 65.4695 68.5234 63.6438ZM55.4102 40C59.5527 40 62.9102 36.6426 62.9102 32.5C62.9102 28.3574 59.5527 25 55.4102 25C51.2676 25 47.9102 28.3574 47.9102 32.5C47.9102 36.6426 51.2676 40 55.4102 40ZM47.9102 62.5V73.75C47.9102 75.8207 49.5895 77.5 51.6602 77.5H59.1602C61.2309 77.5 62.9102 75.8207 62.9102 73.75V62.5C64.9809 62.5 66.6602 60.8207 66.6602 58.75V47.5C66.6602 44.3934 64.1418 41.875 61.0352 41.875H59.6523C58.3551 42.4645 56.9266 42.8125 55.4102 42.8125C53.8937 42.8125 52.4652 42.4645 51.168 41.875H49.7852C46.6785 41.875 44.1602 44.3934 44.1602 47.5V58.75C44.1602 60.8207 45.8395 62.5 47.9102 62.5Z" fill="url(#paint0_linear_467_146)"/>
</g>
<circle cx="55.4102" cy="55" r="53" stroke="url(#paint1_linear_467_146)" stroke-width="4"/>
<defs>
<linearGradient id="paint0_linear_467_146" x1="26.7917" y1="55.3448" x2="85.4107" y2="55.2167" gradientUnits="userSpaceOnUse">
<stop stop-color="#623D90"/>
<stop offset="1" stop-color="#9F0B00"/>
</linearGradient>
<linearGradient id="paint1_linear_467_146" x1="2.94305" y1="55.6321" x2="109.41" y2="56.9999" gradientUnits="userSpaceOnUse">
<stop stop-color="#623D90"/>
<stop offset="1" stop-color="#9F0B00"/>
</linearGradient>
<clipPath id="clip0_467_146">
<rect width="60" height="60" fill="white" transform="translate(25.4102 25)"/>
</clipPath>
</defs>
</svg>
