<svg width="43" height="42" viewBox="0 0 43 42" fill="none" xmlns="http://www.w3.org/2000/svg">
<path d="M21.4102 0C9.81203 0 0.410156 9.40188 0.410156 21C0.410156 32.5981 9.81203 42 21.4102 42C33.0083 42 42.4102 32.5981 42.4102 21C42.4102 9.40188 33.0083 0 21.4102 0ZM16.2695 29.7041H12.017V16.0191H16.2695V29.7041ZM14.117 14.3391C12.7739 14.3391 11.9055 13.3875 11.9055 12.2106C11.9055 11.0097 12.8002 10.0866 14.1717 10.0866C15.5433 10.0866 16.3833 11.0097 16.4095 12.2106C16.4095 13.3875 15.5433 14.3391 14.117 14.3391ZM31.8008 29.7041H27.5483V22.12C27.5483 20.3547 26.9314 19.1559 25.3936 19.1559C24.2189 19.1559 23.5211 19.9675 23.2127 20.7484C23.0989 21.0263 23.0705 21.42 23.0705 21.8116V29.7019H18.8158V20.3831C18.8158 18.6747 18.7611 17.2463 18.7042 16.0169H22.3989L22.5936 17.9178H22.6789C23.2389 17.0253 24.6105 15.7084 26.9052 15.7084C29.703 15.7084 31.8008 17.5831 31.8008 21.6125V29.7041Z" fill="url(#paint0_linear_716_574)"/>
<defs>
<linearGradient id="paint0_linear_716_574" x1="0.410156" y1="0" x2="47.0564" y2="6.02438" gradientUnits="userSpaceOnUse">
<stop stop-color="#623D90"/>
<stop offset="1" stop-color="#9F0B00"/>
</linearGradient>
</defs>
</svg>
