<svg width="45" height="44" viewBox="0 0 45 44" fill="none" xmlns="http://www.w3.org/2000/svg">
<path d="M13.0431 0C13.8939 0.181392 14.7664 0.292752 15.5907 0.556804C20.6237 2.16637 23.9622 6.98703 23.6775 12.283C23.495 15.6801 21.9899 18.4365 19.3563 20.6706C18.8006 19.2734 17.9866 18.107 16.8294 17.1978C15.6664 16.2839 14.3439 15.7593 12.8618 15.5503C14.3554 15.2312 15.5666 14.4999 16.3977 13.2232C17.2289 11.9466 17.4597 10.5575 17.0762 9.07533C16.4597 6.69427 14.1579 5.06175 11.6862 5.25347C9.219 5.4452 7.20647 7.42788 6.95964 9.92374C6.75528 11.9856 7.91137 14.8006 11.336 15.5561C9.88257 15.7627 8.55657 16.2701 7.3959 17.1771C6.22833 18.0898 5.39829 19.2505 4.84952 20.658C3.61537 19.6661 2.6292 18.51 1.87148 17.161C-2.09388 10.1109 2.45355 1.48558 10.1845 0.165319C10.5071 0.110213 10.8297 0.0551063 11.1523 0C11.7826 0 12.4129 0 13.0431 0Z" fill="url(#paint0_linear_460_3)"/>
<path d="M44.4101 33.2567C44.2035 34.1579 44.0668 35.0821 43.7764 35.9557C43.0623 38.1129 41.7696 39.8878 39.9775 41.3745C39.4241 39.9796 38.609 38.8132 37.4495 37.904C36.2865 36.9924 34.964 36.4689 33.4853 36.26C34.9525 35.9511 36.1488 35.237 36.9811 33.9994C37.8111 32.7653 38.0913 31.4037 37.7365 29.9468C37.112 27.3787 34.8342 25.6772 32.3177 25.8793C29.8379 26.0779 27.7714 28.1811 27.5774 30.7C27.3995 33.0064 28.8276 35.6148 31.9641 36.2542C28.8518 36.733 26.6957 38.4263 25.4478 41.3975C24.9794 40.9383 24.5006 40.5353 24.0988 40.0669C21.161 36.6446 20.3057 32.7481 21.8245 28.5014C23.3365 24.2766 26.4053 21.6614 30.8448 20.8933C37.3404 19.7682 43.5755 24.5361 44.3332 31.0846C44.3447 31.181 44.3826 31.274 44.409 31.3693C44.4101 31.9973 44.4101 32.6264 44.4101 33.2567Z" fill="url(#paint1_linear_460_3)"/>
<path d="M4.06526 30.7253C3.41891 30.0789 2.8334 29.4945 2.20312 28.8643C3.81269 27.3442 5.4521 25.7978 7.00082 24.3352C8.47377 25.7324 10.1006 27.2765 11.6883 28.7828C11.0351 29.4394 10.445 30.033 9.83535 30.646C9.37384 30.1765 8.85607 29.6507 8.26253 29.0457C8.16953 30.2752 8.29237 31.3555 8.61153 32.4117C9.75154 36.1957 13.2221 38.8029 17.1725 38.8408C18.4721 38.8535 19.7729 38.8431 21.0966 38.8431C21.0966 39.7042 21.0966 40.5285 21.0966 41.3619C21.0851 41.3723 21.0633 41.4079 21.0426 41.4067C19.014 41.3746 16.9716 41.6053 14.9602 41.1828C9.47142 40.0314 5.67482 35.3622 5.65301 29.7609C5.65186 29.5669 5.65301 29.3729 5.65301 29.0434C5.05832 29.6725 4.55203 30.2086 4.06526 30.7253Z" fill="url(#paint2_linear_460_3)"/>
<path d="M24.9961 5.24201C24.9961 4.35687 24.9961 3.5429 24.9961 2.73582C25.0271 2.71057 25.0489 2.67727 25.0707 2.67842C27.2118 2.71401 29.369 2.46488 31.4872 2.96888C36.7521 4.22255 40.4098 8.82622 40.4546 14.2347C40.4569 14.4586 40.4546 14.6824 40.4546 15.0383C41.0378 14.4069 41.5372 13.8673 42.0205 13.3461C42.6864 14.0177 43.2753 14.6135 43.8379 15.1818C42.2937 16.7259 40.7186 18.3022 39.1722 19.8498C37.6258 18.3034 36.0518 16.7282 34.5054 15.1818C35.0633 14.625 35.6569 14.0338 36.2975 13.3943C36.7705 13.8811 37.2837 14.4092 37.8565 14.9993C37.9633 13.1257 37.6361 11.4334 36.7349 9.89276C34.9853 6.90094 32.3562 5.34189 28.8845 5.24775C27.7399 5.21676 26.5942 5.24316 25.4484 5.24316C25.3084 5.24201 25.1683 5.24201 24.9961 5.24201Z" fill="url(#paint3_linear_460_3)"/>
<path d="M17.0848 22.116C13.7589 23.6762 10.4548 23.6716 7.14844 22.1344C7.24143 20.2791 9.46405 18.3343 11.6786 18.146C14.1745 17.9337 16.5154 19.6293 17.0848 22.116Z" fill="url(#paint4_linear_460_3)"/>
<path d="M37.709 42.8268C34.3831 44.3859 31.079 44.3836 27.7715 42.8429C27.8737 40.9808 30.0894 39.0429 32.304 38.8557C34.8021 38.6456 37.1464 40.3447 37.709 42.8268Z" fill="url(#paint5_linear_460_3)"/>
<path d="M14.6739 10.4036C14.6716 11.8318 13.5006 12.9868 12.0702 12.9753C10.6615 12.9626 9.51805 11.8043 9.52149 10.3922C9.52379 8.96399 10.6936 7.8102 12.1253 7.82168C13.5339 7.83316 14.6762 8.99039 14.6739 10.4036Z" fill="url(#paint6_linear_460_3)"/>
<path d="M32.7388 33.686C31.3083 33.6929 30.1442 32.5323 30.1465 31.1029C30.1488 29.692 31.2968 28.5393 32.7078 28.5324C34.1394 28.5256 35.3024 29.6839 35.3001 31.1144C35.2967 32.5254 34.1486 33.6792 32.7388 33.686Z" fill="url(#paint7_linear_460_3)"/>
<defs>
<linearGradient id="paint0_linear_460_3" x1="23.6944" y1="0" x2="0.410156" y2="-7.49425e-05" gradientUnits="userSpaceOnUse">
<stop stop-color="#9F0A00"/>
<stop offset="1" stop-color="#623D90"/>
</linearGradient>
<linearGradient id="paint1_linear_460_3" x1="44.4101" y1="20.7285" x2="21.0859" y2="20.7284" gradientUnits="userSpaceOnUse">
<stop stop-color="#9F0A00"/>
<stop offset="1" stop-color="#623D90"/>
</linearGradient>
<linearGradient id="paint2_linear_460_3" x1="21.0966" y1="24.3352" x2="2.20313" y2="24.3351" gradientUnits="userSpaceOnUse">
<stop stop-color="#9F0A00"/>
<stop offset="1" stop-color="#623D90"/>
</linearGradient>
<linearGradient id="paint3_linear_460_3" x1="43.8379" y1="2.64764" x2="24.9961" y2="2.64759" gradientUnits="userSpaceOnUse">
<stop stop-color="#9F0A00"/>
<stop offset="1" stop-color="#623D90"/>
</linearGradient>
<linearGradient id="paint4_linear_460_3" x1="17.0848" y1="18.1281" x2="7.14844" y2="18.1281" gradientUnits="userSpaceOnUse">
<stop stop-color="#9F0A00"/>
<stop offset="1" stop-color="#623D90"/>
</linearGradient>
<linearGradient id="paint5_linear_460_3" x1="37.709" y1="38.8382" x2="27.7715" y2="38.8381" gradientUnits="userSpaceOnUse">
<stop stop-color="#9F0A00"/>
<stop offset="1" stop-color="#623D90"/>
</linearGradient>
<linearGradient id="paint6_linear_460_3" x1="14.6739" y1="7.82159" x2="9.52148" y2="7.82158" gradientUnits="userSpaceOnUse">
<stop stop-color="#9F0A00"/>
<stop offset="1" stop-color="#623D90"/>
</linearGradient>
<linearGradient id="paint7_linear_460_3" x1="35.3001" y1="28.5324" x2="30.1465" y2="28.5324" gradientUnits="userSpaceOnUse">
<stop stop-color="#9F0A00"/>
<stop offset="1" stop-color="#623D90"/>
</linearGradient>
</defs>
</svg>
