<svg width="111" height="110" viewBox="0 0 111 110" fill="none" xmlns="http://www.w3.org/2000/svg">
<path d="M76.4102 58V67L67.4102 58H49.4102C47.8189 58 46.2927 57.3679 45.1675 56.2426C44.0423 55.1174 43.4102 53.5913 43.4102 52V31C43.4102 27.7 46.1102 25 49.4102 25H79.4102C81.0015 25 82.5276 25.6321 83.6528 26.7574C84.778 27.8826 85.4102 29.4087 85.4102 31V52C85.4102 53.5913 84.778 55.1174 83.6528 56.2426C82.5276 57.3679 81.0015 58 79.4102 58H76.4102ZM67.4102 64V70C67.4102 71.5913 66.778 73.1174 65.6528 74.2426C64.5276 75.3679 63.0015 76 61.4102 76H43.4102L34.4102 85V76H31.4102C29.8189 76 28.2927 75.3679 27.1675 74.2426C26.0423 73.1174 25.4102 71.5913 25.4102 70V49C25.4102 45.7 28.1102 43 31.4102 43H37.4102V52C37.4102 55.1826 38.6744 58.2348 40.9249 60.4853C43.1753 62.7357 46.2276 64 49.4102 64H67.4102Z" fill="url(#paint0_linear_467_145)"/>
<circle cx="55.4102" cy="55" r="53" stroke="url(#paint1_linear_467_145)" stroke-width="4"/>
<defs>
<linearGradient id="paint0_linear_467_145" x1="26.7917" y1="55.3448" x2="85.4107" y2="55.2167" gradientUnits="userSpaceOnUse">
<stop stop-color="#623D90"/>
<stop offset="1" stop-color="#9F0B00"/>
</linearGradient>
<linearGradient id="paint1_linear_467_145" x1="2.94305" y1="55.6321" x2="109.41" y2="56.9999" gradientUnits="userSpaceOnUse">
<stop stop-color="#623D90"/>
<stop offset="1" stop-color="#9F0B00"/>
</linearGradient>
</defs>
</svg>
