<svg width="48" height="48" viewBox="0 0 48 48" fill="none" xmlns="http://www.w3.org/2000/svg">
<path d="M24.0001 45.7065C24.84 45.6872 25.646 45.3714 26.2756 44.8151C26.9051 44.2587 27.3176 43.4977 27.4401 42.6665H20.4268C20.5527 43.5203 20.9845 44.2992 21.6418 44.8584C22.2991 45.4176 23.1372 45.719 24.0001 45.7065Z" fill="black"/>
<path d="M43.7997 37.5072L43.3464 37.1072C42.0603 35.9613 40.9346 34.6473 39.9997 33.2005C38.9787 31.2039 38.3667 29.0235 38.1997 26.7872V20.2005C38.1943 19.4005 38.123 18.6022 37.9864 17.8139C35.7279 17.3496 33.6992 16.1192 32.2437 14.3309C30.7883 12.5426 29.9956 10.3062 29.9997 8.00052C29.9997 7.72052 29.9997 7.44052 29.9997 7.16052C28.6076 6.47544 27.112 6.02493 25.5731 5.82719V4.14719C25.5731 3.6751 25.3855 3.22235 25.0517 2.88854C24.7179 2.55472 24.2652 2.36719 23.7931 2.36719C23.321 2.36719 22.8682 2.55472 22.5344 2.88854C22.2006 3.22235 22.0131 3.6751 22.0131 4.14719V5.89385C18.5674 6.37993 15.4138 8.09618 13.1347 10.7258C10.8556 13.3554 9.60471 16.7207 9.61307 20.2005V26.7872C9.44608 29.0235 8.83411 31.2039 7.81307 33.2005C6.89425 34.6437 5.78667 35.9575 4.51974 37.1072L4.06641 37.5072V41.2672H43.7997V37.5072Z" fill="url(#paint0_linear_897_1468)"/>
<path d="M39.9997 14.6663C43.6816 14.6663 46.6663 11.6816 46.6663 7.99967C46.6663 4.31778 43.6816 1.33301 39.9997 1.33301C36.3178 1.33301 33.333 4.31778 33.333 7.99967C33.333 11.6816 36.3178 14.6663 39.9997 14.6663Z" fill="url(#paint1_linear_897_1468)"/>
<defs>
<linearGradient id="paint0_linear_897_1468" x1="4.34916" y1="29.8246" x2="43.4938" y2="31.0673" gradientUnits="userSpaceOnUse">
<stop stop-color="#623D90"/>
<stop offset="1" stop-color="#9F0B00"/>
</linearGradient>
<linearGradient id="paint1_linear_897_1468" x1="33.64" y1="8.0763" x2="46.6004" y2="8.07738" gradientUnits="userSpaceOnUse">
<stop stop-color="#623D90"/>
<stop offset="1" stop-color="#9F0B00"/>
</linearGradient>
</defs>
</svg>
