<svg width="81" height="92" viewBox="0 0 81 92" fill="none" xmlns="http://www.w3.org/2000/svg">
<path d="M44.2054 90.0444V1.99605C44.2136 1.63247 44.0826 1.27935 43.8388 1.00825C43.5951 0.737141 43.2568 0.568308 42.8926 0.535954C42.7041 0.525808 42.5155 0.553995 42.3384 0.618798C42.1612 0.683601 41.9993 0.783655 41.8623 0.912841C41.7254 1.04203 41.6164 1.19763 41.542 1.37014C41.4676 1.54264 41.4294 1.72842 41.4297 1.91612V90.0444C41.4297 90.4104 41.5759 90.7615 41.8362 91.0203C42.0965 91.2792 42.4495 91.4246 42.8175 91.4246C43.1856 91.4246 43.5386 91.2792 43.7989 91.0203C44.0592 90.7615 44.2054 90.4104 44.2054 90.0444Z" fill="#093F68"/>
<path d="M42.8182 91.9574C42.308 91.9574 41.8187 91.7558 41.458 91.397C41.0972 91.0383 40.8945 90.5517 40.8945 90.0443V1.91603C40.8934 1.65583 40.9458 1.39815 41.0485 1.15884C41.1512 0.919521 41.3021 0.703628 41.4918 0.52444C41.6815 0.345252 41.9061 0.206557 42.1517 0.11688C42.3973 0.0272025 42.6588 -0.0115584 42.92 0.00298047C43.4227 0.0397352 43.8919 0.266998 44.231 0.637861C44.57 1.00872 44.7529 1.49488 44.7419 1.99596V90.0443C44.7419 90.5517 44.5392 91.0383 44.1785 91.397C43.8177 91.7558 43.3284 91.9574 42.8182 91.9574ZM42.8182 1.06875C42.706 1.06732 42.5945 1.08825 42.4905 1.13032C42.3865 1.1724 42.292 1.23475 42.2126 1.31372C42.1332 1.39268 42.0705 1.48666 42.0282 1.59011C41.9859 1.69355 41.9648 1.80437 41.9662 1.91603V90.0443C41.9662 90.269 42.056 90.4845 42.2158 90.6434C42.3756 90.8023 42.5923 90.8916 42.8182 90.8916C43.0442 90.8916 43.2609 90.8023 43.4207 90.6434C43.5805 90.4845 43.6702 90.269 43.6702 90.0443V1.99596C43.6784 1.76912 43.6002 1.54758 43.4511 1.37565C43.3021 1.20373 43.0933 1.09412 42.8665 1.06875H42.8182Z" fill="#093F68"/>
<path d="M17.1175 90.46C21.9401 75.3634 26.2804 62.2172 30.5886 49.5346C30.7112 49.2035 30.7063 48.839 30.5747 48.5113C30.4431 48.1837 30.1942 47.9161 29.876 47.7601C29.6992 47.6798 29.5074 47.6374 29.3131 47.6356C29.1187 47.6337 28.9262 47.6725 28.7478 47.7493C28.5695 47.8262 28.4094 47.9394 28.2779 48.0817C28.1464 48.224 28.0464 48.3922 27.9844 48.5754C23.6602 61.29 19.3198 74.4842 14.4704 89.6074C14.4037 89.8145 14.3872 90.0344 14.4221 90.249C14.4571 90.4637 14.5426 90.6671 14.6716 90.8427C14.8006 91.0183 14.9695 91.1611 15.1646 91.2594C15.3596 91.3577 15.5753 91.4089 15.794 91.4086C16.087 91.4097 16.3729 91.3185 16.6107 91.1481C16.8484 90.9777 17.0259 90.7369 17.1175 90.46Z" fill="#093F68"/>
<path d="M15.7943 91.9574C15.491 91.9576 15.192 91.8865 14.9216 91.7499C14.6513 91.6134 14.4172 91.4151 14.2385 91.1715C14.0598 90.9278 13.9416 90.6456 13.8935 90.3478C13.8454 90.0501 13.8688 89.7452 13.9617 89.4581C18.8271 74.2496 23.1246 61.2153 27.4757 48.4261C27.563 48.1728 27.7025 47.9403 27.8854 47.7437C28.0682 47.5471 28.2903 47.3906 28.5375 47.2843C28.7846 47.1779 29.0514 47.1241 29.3207 47.1262C29.59 47.1282 29.8558 47.1862 30.1013 47.2964C30.5375 47.5101 30.8799 47.8754 31.0635 48.3232C31.2472 48.771 31.2594 49.2702 31.098 49.7263C26.7576 62.5156 22.4762 75.4966 17.6268 90.6411C17.5023 91.0261 17.2574 91.3615 16.9277 91.5983C16.598 91.8351 16.2009 91.9609 15.7943 91.9574ZM29.2975 48.1703C29.1198 48.1702 28.9465 48.2257 28.8022 48.329C28.6579 48.4323 28.55 48.5781 28.4938 48.7458C24.1427 61.535 19.8506 74.58 14.9798 89.7779C14.9389 89.9059 14.9293 90.0418 14.9516 90.1743C14.974 90.3068 15.0277 90.4321 15.1084 90.5399C15.1861 90.6483 15.2891 90.7365 15.4086 90.7968C15.528 90.8571 15.6603 90.8878 15.7943 90.8863C15.9751 90.8843 16.1507 90.8263 16.2967 90.7202C16.4428 90.6142 16.5518 90.4654 16.6087 90.2948C21.4313 75.1396 25.7181 62.1319 30.0852 49.3587C30.1437 49.2289 30.1684 49.0865 30.157 48.9447C30.1456 48.8029 30.0985 48.6663 30.02 48.5474C29.9415 48.4284 29.8342 48.3311 29.708 48.2643C29.5817 48.1974 29.4406 48.1633 29.2975 48.165V48.1703Z" fill="#093F68"/>
<path d="M69.8402 91.4245C70.0585 91.4237 70.2735 91.3718 70.468 91.2732C70.6624 91.1745 70.8308 91.0318 70.9596 90.8565C71.0884 90.6813 71.174 90.4784 71.2094 90.2642C71.2449 90.05 71.2293 89.8305 71.1638 89.6234C66.3412 74.5002 61.9848 61.322 57.6658 48.6233C57.5662 48.3121 57.3612 48.0448 57.0857 47.867C56.8102 47.6892 56.4812 47.6118 56.1548 47.6482C55.9511 47.6744 55.7558 47.7453 55.583 47.8557C55.4102 47.9661 55.2642 48.1133 55.1555 48.2866C55.0468 48.46 54.9782 48.6551 54.9545 48.858C54.9309 49.0609 54.9528 49.2665 55.0188 49.46C59.3323 62.1586 63.6727 75.3368 68.5113 90.46C68.6019 90.7398 68.7793 90.9839 69.0181 91.1572C69.2568 91.3304 69.5447 91.4241 69.8402 91.4245Z" fill="#093F68"/>
<path d="M69.8397 91.9574C69.4299 91.959 69.0303 91.83 68.6996 91.5893C68.3688 91.3486 68.1243 91.0089 68.0018 90.6199C63.1417 75.4381 58.8549 62.4144 54.5092 49.6305C54.42 49.3668 54.3905 49.0867 54.4229 48.8103C54.4554 48.5339 54.5489 48.2681 54.6968 48.0319C54.8469 47.7901 55.0494 47.5847 55.2895 47.4308C55.5296 47.2768 55.8012 47.1781 56.0846 47.1419C56.5343 47.0881 56.9888 47.1917 57.3701 47.4348C57.7514 47.6779 58.0358 48.0453 58.1744 48.4741C62.5147 61.2633 66.8068 74.287 71.6723 89.5062C71.7642 89.7929 71.7868 90.0972 71.7382 90.3942C71.6896 90.6913 71.5712 90.9728 71.3926 91.2157C71.214 91.4587 70.9804 91.6564 70.7105 91.7927C70.4407 91.929 70.1424 92 69.8397 92.0001V91.9574ZM56.3311 48.1704H56.2293C56.1036 48.1861 55.983 48.2292 55.8761 48.2968C55.7692 48.3643 55.6787 48.4546 55.6111 48.5611C55.5434 48.6676 55.5004 48.7877 55.485 48.9127C55.4696 49.0377 55.4822 49.1645 55.522 49.2841C59.873 62.0733 64.1598 75.1023 69.0252 90.3162C69.0814 90.4873 69.1903 90.6364 69.3365 90.7426C69.4827 90.8488 69.6587 90.9065 69.8397 90.9077C69.974 90.9074 70.1063 90.8757 70.2259 90.8149C70.3455 90.7542 70.4489 90.6662 70.5278 90.5581C70.6067 90.4501 70.6588 90.325 70.6798 90.1931C70.7008 90.0613 70.6902 89.9263 70.6488 89.7993C65.7887 74.6121 61.502 61.5831 57.1563 48.8099C57.1029 48.6311 56.9946 48.4733 56.8467 48.3587C56.6987 48.244 56.5185 48.1782 56.3311 48.1704Z" fill="#093F68"/>
<path d="M42.8149 79.861C63.282 79.861 79.8739 63.3608 79.8739 43.0068C79.8739 22.6528 63.282 6.15259 42.8149 6.15259C22.3477 6.15259 5.75586 22.6528 5.75586 43.0068C5.75586 63.3608 22.3477 79.861 42.8149 79.861Z" fill="#68E1FD"/>
<path d="M42.8149 79.861C63.282 79.861 79.8739 63.3608 79.8739 43.0068C79.8739 22.6528 63.282 6.15259 42.8149 6.15259C22.3477 6.15259 5.75586 22.6528 5.75586 43.0068C5.75586 63.3608 22.3477 79.861 42.8149 79.861Z" fill="url(#paint0_linear_371_1418)"/>
<path d="M42.8165 80.3991C35.3797 80.4002 28.1095 78.2081 21.9255 74.1C15.7415 69.9919 10.9213 64.1524 8.07464 57.3199C5.22795 50.4874 4.48257 42.9689 5.93278 35.7151C7.38298 28.4613 10.9636 21.7981 16.2219 16.5682C21.4802 11.3382 28.1799 7.77638 35.4738 6.33315C42.7676 4.88992 50.328 5.63011 57.1989 8.46009C64.0697 11.2901 69.9424 16.0828 74.0742 22.232C78.206 28.3813 80.4114 35.611 80.4114 43.0067C80.4 52.9194 76.4357 62.423 69.3879 69.4328C62.3401 76.4427 52.7843 80.3865 42.8165 80.3991ZM42.8165 6.68537C35.5914 6.68432 28.5282 8.81408 22.5203 12.8053C16.5124 16.7965 11.8297 22.4699 9.06424 29.108C6.29882 35.746 5.57498 43.0505 6.98427 50.0977C8.39356 57.1449 11.8727 63.6182 16.9816 68.6989C22.0905 73.7796 28.5998 77.2395 35.6861 78.641C42.7725 80.0425 50.1176 79.3226 56.7925 76.5725C63.4674 73.8223 69.1723 69.1654 73.1857 63.1907C77.1991 57.216 79.3407 50.1919 79.3397 43.0067C79.3283 33.3772 75.4767 24.1452 68.6298 17.3361C61.7828 10.527 52.4996 6.69665 42.8165 6.68537Z" fill="#093F68"/>
<path d="M42.8147 73.5463C59.775 73.5463 73.524 59.8732 73.524 43.0067C73.524 26.1402 59.775 12.4672 42.8147 12.4672C25.8545 12.4672 12.1055 26.1402 12.1055 43.0067C12.1055 59.8732 25.8545 73.5463 42.8147 73.5463Z" fill="white"/>
<path d="M42.8154 74.0792C36.6357 74.0792 30.5948 72.2569 25.4566 68.8426C20.3183 65.4283 16.3136 60.5754 13.9487 54.8977C11.5839 49.2199 10.9651 42.9723 12.1707 36.9448C13.3763 30.9174 16.3521 25.3808 20.7218 21.0352C25.0915 16.6897 30.6588 13.7303 36.7198 12.5314C42.7808 11.3325 49.0631 11.9478 54.7724 14.2996C60.4817 16.6514 65.3615 20.634 68.7948 25.7439C72.228 30.8537 74.0605 36.8612 74.0605 43.0068C74.052 51.2451 70.7574 59.1436 64.8996 64.969C59.0419 70.7943 51.0995 74.0708 42.8154 74.0792ZM42.8154 13.0054C36.8475 13.0054 31.0135 14.7654 26.0514 18.0628C21.0893 21.3603 17.2219 26.047 14.9383 31.5303C12.6547 37.0136 12.0575 43.0472 13.2222 48.8681C14.3869 54.689 17.2611 60.0356 21.4815 64.2319C25.7019 68.4282 31.0787 71.2856 36.9322 72.4429C42.7856 73.6001 48.8526 73.0051 54.366 70.7331C59.8794 68.4612 64.5914 64.6143 67.9063 59.679C71.2211 54.7438 72.9899 48.9418 72.9888 43.0068C72.9789 35.052 69.7966 27.426 64.1399 21.8016C58.4833 16.1773 50.8144 13.0139 42.8154 13.0054Z" fill="#093F68"/>
<path d="M42.8158 65.6809C55.408 65.6809 65.616 55.5293 65.616 43.0067C65.616 30.4841 55.408 20.3325 42.8158 20.3325C30.2236 20.3325 20.0156 30.4841 20.0156 43.0067C20.0156 55.5293 30.2236 65.6809 42.8158 65.6809Z" fill="#68E1FD"/>
<path d="M42.8158 65.6809C55.408 65.6809 65.616 55.5293 65.616 43.0067C65.616 30.4841 55.408 20.3325 42.8158 20.3325C30.2236 20.3325 20.0156 30.4841 20.0156 43.0067C20.0156 55.5293 30.2236 65.6809 42.8158 65.6809Z" fill="url(#paint1_linear_371_1418)"/>
<path d="M42.8155 66.2299C38.1983 66.2351 33.6833 64.8785 29.8415 62.3316C25.9997 59.7846 23.0038 56.1618 21.2328 51.9214C19.4617 47.681 18.995 43.0134 19.8917 38.5092C20.7885 34.005 23.0083 29.8664 26.2706 26.617C29.5328 23.3676 33.6907 21.1534 38.2185 20.2543C42.7464 19.3553 47.4406 19.8119 51.7074 21.5664C55.9742 23.3209 59.622 26.2944 62.1892 30.1108C64.7565 33.9273 66.1279 38.4151 66.13 43.0068C66.1258 49.1582 63.6693 55.057 59.2989 59.4101C54.9286 63.7633 49.001 66.2158 42.8155 66.2299ZM42.8155 20.8761C38.4091 20.8709 34.1002 22.1657 30.4341 24.5967C26.768 27.0277 23.9095 30.4856 22.2203 34.5328C20.5311 38.5801 20.0872 43.0347 20.9448 47.3329C21.8023 51.6311 23.9228 55.5797 27.0378 58.679C30.1528 61.7783 34.1224 63.889 38.4441 64.7439C42.7657 65.5988 47.2453 65.1595 51.3158 63.4816C55.3864 61.8037 58.8649 58.9626 61.3112 55.3179C63.7575 51.6733 65.0615 47.3888 65.0583 43.0068C65.0513 37.1404 62.7062 31.516 58.537 27.3658C54.3678 23.2157 48.7144 20.8782 42.8155 20.8655V20.8761Z" fill="#093F68"/>
<path d="M42.8157 58.5136C51.4275 58.5136 58.4088 51.5709 58.4088 43.0067C58.4088 34.4424 51.4275 27.4998 42.8157 27.4998C34.2039 27.4998 27.2227 34.4424 27.2227 43.0067C27.2227 51.5709 34.2039 58.5136 42.8157 58.5136Z" fill="white"/>
<path d="M42.814 59.0465C39.6237 59.0476 36.5049 58.1077 33.8518 56.3459C31.1987 54.5841 29.1306 52.0794 27.909 49.1486C26.6874 46.2178 26.3672 42.9925 26.989 39.8808C27.6107 36.769 29.1464 33.9105 31.4019 31.6668C33.6573 29.423 36.5312 27.8948 39.66 27.2755C42.7889 26.6562 46.0322 26.9735 48.9796 28.1874C51.9271 29.4012 54.4464 31.4571 56.219 34.0949C57.9915 36.7328 58.9375 39.8341 58.9375 43.0067C58.9333 47.2585 57.2334 51.335 54.2107 54.342C51.188 57.349 47.0894 59.0409 42.814 59.0465ZM42.814 28.038C39.8355 28.037 36.9236 28.9144 34.4466 30.5594C31.9696 32.2043 30.0389 34.5429 28.8986 37.2793C27.7583 40.0156 27.4596 43.0269 28.0404 45.932C28.6213 48.8372 30.0554 51.5058 32.1615 53.6003C34.2677 55.6948 36.9511 57.121 39.8724 57.6986C42.7937 58.2762 45.8217 57.9792 48.5732 56.8452C51.3248 55.7112 53.6764 53.7911 55.3305 51.3279C56.9846 48.8646 57.8669 45.9688 57.8658 43.0067C57.8602 39.0385 56.2725 35.2344 53.451 32.4285C50.6294 29.6225 46.8042 28.0437 42.814 28.038Z" fill="#093F68"/>
<path d="M42.8156 51.5968C47.5861 51.5968 51.4534 47.7509 51.4534 43.0067C51.4534 38.2625 47.5861 34.4166 42.8156 34.4166C38.045 34.4166 34.1777 38.2625 34.1777 43.0067C34.1777 47.7509 38.045 51.5968 42.8156 51.5968Z" fill="#68E1FD"/>
<path d="M42.8156 51.5968C47.5861 51.5968 51.4534 47.7509 51.4534 43.0067C51.4534 38.2625 47.5861 34.4166 42.8156 34.4166C38.045 34.4166 34.1777 38.2625 34.1777 43.0067C34.1777 47.7509 38.045 51.5968 42.8156 51.5968Z" fill="url(#paint2_linear_371_1418)"/>
<path d="M42.8143 52.1297C40.9999 52.1297 39.2263 51.5947 37.7177 50.5922C36.2091 49.5898 35.0333 48.165 34.3389 46.498C33.6446 44.831 33.4629 42.9966 33.8169 41.227C34.1709 39.4573 35.0446 37.8317 36.3275 36.5558C37.6105 35.28 39.2451 34.4111 41.0246 34.0591C42.8041 33.7071 44.6486 33.8877 46.3249 34.5782C48.0012 35.2687 49.4339 36.438 50.4419 37.9383C51.4499 39.4386 51.9879 41.2024 51.9879 43.0068C51.9851 45.4255 51.0177 47.7443 49.2979 49.4546C47.5781 51.1648 45.2464 52.1269 42.8143 52.1297ZM42.8143 34.9496C41.2119 34.9496 39.6454 35.4221 38.3131 36.3074C36.9807 37.1928 35.9423 38.4511 35.329 39.9234C34.7158 41.3957 34.5554 43.0157 34.868 44.5786C35.1806 46.1416 35.9522 47.5772 37.0853 48.7041C38.2184 49.8309 39.662 50.5982 41.2337 50.9091C42.8053 51.22 44.4343 51.0605 45.9148 50.4506C47.3952 49.8408 48.6606 48.8081 49.5508 47.4831C50.4411 46.1581 50.9163 44.6003 50.9163 43.0068C50.9134 40.8707 50.0589 38.823 48.5401 37.3126C47.0213 35.8022 44.9622 34.9524 42.8143 34.9496Z" fill="#093F68"/>
<path d="M9.38487 16.7355L0.945312 20.5083L13.2108 29.9083L22.0415 26.4766L9.38487 16.7355Z" fill="#F56132"/>
<path d="M9.38487 16.7355L0.945312 20.5083L13.2108 29.9083L22.0415 26.4766L9.38487 16.7355Z" fill="url(#paint3_linear_371_1418)"/>
<path d="M13.2095 30.4413C13.0903 30.441 12.9742 30.4038 12.8773 30.3347L0.617172 20.9347C0.544338 20.8784 0.487352 20.8043 0.451728 20.7197C0.416104 20.6351 0.403049 20.5428 0.413827 20.4517C0.424605 20.3606 0.458852 20.2738 0.513251 20.1997C0.56765 20.1256 0.64036 20.0667 0.724343 20.0288L9.16389 16.256C9.25091 16.2185 9.34636 16.2047 9.4405 16.216C9.53464 16.2272 9.6241 16.2631 9.69974 16.3199L22.3564 26.061C22.4324 26.1186 22.4915 26.1953 22.5277 26.2832C22.5638 26.3712 22.5757 26.4671 22.562 26.5611C22.5484 26.6552 22.5097 26.7439 22.45 26.818C22.3903 26.8922 22.3117 26.9491 22.2224 26.9829L13.3917 30.4147C13.3327 30.4327 13.2713 30.4417 13.2095 30.4413ZM1.95679 20.6256L13.2738 29.3063L20.9418 26.3275L9.33 17.3537L1.95679 20.6256Z" fill="#093F68"/>
<path d="M9.20117 16.2079L12.1537 8.51843L23.0313 18.8564L22.04 26.4766L9.20117 16.2079Z" fill="#F56132"/>
<path d="M9.20117 16.2079L12.1537 8.51843L23.0313 18.8564L22.04 26.4766L9.20117 16.2079Z" fill="url(#paint4_linear_371_1418)"/>
<path d="M22.0402 27.0096C21.9175 27.0101 21.7983 26.9687 21.7026 26.8923L8.84231 16.6237C8.75333 16.5531 8.68927 16.4561 8.6594 16.3469C8.62954 16.2377 8.63542 16.1218 8.6762 16.0162L11.6287 8.33198C11.6604 8.24942 11.7123 8.17599 11.7796 8.11831C11.847 8.06064 11.9277 8.02053 12.0145 8.0016C12.1077 7.97568 12.2063 7.97538 12.2997 8.00071C12.3931 8.02604 12.4779 8.07607 12.545 8.14548L23.428 18.4834C23.4886 18.5411 23.5347 18.6122 23.5626 18.6909C23.5905 18.7695 23.5995 18.8536 23.5887 18.9364L22.5921 26.5566C22.5798 26.6506 22.5426 26.7397 22.4842 26.8146C22.4258 26.8896 22.3484 26.9477 22.2599 26.9829C22.1893 27.0069 22.1145 27.016 22.0402 27.0096ZM9.86577 16.0322L21.6543 25.4695L22.4903 19.0749L12.3842 9.48302L9.86577 16.0322Z" fill="#093F68"/>
<path d="M42.9541 44.3815C42.6735 44.3798 42.4017 44.284 42.1825 44.1098L4.02504 13.9539C3.88745 13.8558 3.77134 13.7309 3.68379 13.5868C3.59625 13.4427 3.53909 13.2824 3.51579 13.1156C3.49249 12.9489 3.50354 12.7791 3.54826 12.6168C3.59298 12.4544 3.67043 12.3027 3.77593 12.1711C3.88142 12.0394 4.01274 11.9304 4.16191 11.8508C4.31107 11.7712 4.47495 11.7225 4.64361 11.7078C4.81226 11.6932 4.98215 11.7128 5.14295 11.7654C5.30375 11.8181 5.4521 11.9027 5.57899 12.0142L43.7311 42.1807C43.9331 42.3413 44.0799 42.5602 44.1514 42.8073C44.2229 43.0543 44.2155 43.3174 44.1302 43.5601C44.0449 43.8028 43.886 44.0132 43.6753 44.1623C43.4647 44.3113 43.2127 44.3917 42.9541 44.3922V44.3815Z" fill="#093F68"/>
<path d="M42.955 44.9144C42.5533 44.9132 42.164 44.776 41.8511 44.5254L3.69366 14.3695C3.32742 14.0725 3.09465 13.643 3.04643 13.1755C2.99821 12.7079 3.13848 12.2405 3.43645 11.8756C3.73124 11.5094 4.15951 11.2737 4.62812 11.2198C5.09674 11.1659 5.56779 11.2982 5.93885 11.5879L44.0963 41.7597C44.385 41.9895 44.5948 42.3027 44.6967 42.6561C44.7986 43.0095 44.7876 43.3856 44.6652 43.7326C44.5429 44.0795 44.3152 44.3801 44.0136 44.5927C43.712 44.8054 43.3515 44.9197 42.9818 44.9197L42.955 44.9144ZM4.80286 12.2646C4.65549 12.2656 4.51205 12.312 4.3923 12.3975C4.27255 12.4829 4.18237 12.6031 4.13418 12.7416C4.08599 12.8801 4.08216 13.0301 4.12323 13.1708C4.16429 13.3116 4.24822 13.4362 4.36346 13.5276L42.5156 43.6941C42.6645 43.8059 42.8509 43.8566 43.0364 43.8358C43.2218 43.815 43.3921 43.7242 43.5123 43.5822C43.5707 43.5094 43.6142 43.4259 43.6401 43.3365C43.6661 43.247 43.6741 43.1533 43.6637 43.0608C43.6532 42.9682 43.6245 42.8786 43.5792 42.7971C43.5339 42.7156 43.473 42.6438 43.3997 42.5857L5.24761 12.4085C5.11777 12.3174 4.9617 12.2707 4.80286 12.2753V12.2646Z" fill="#093F68"/>
<defs>
<linearGradient id="paint0_linear_371_1418" x1="79.8739" y1="6.14852" x2="5.75586" y2="6.14852" gradientUnits="userSpaceOnUse">
<stop stop-color="#9F0A00"/>
<stop offset="1" stop-color="#623D90"/>
</linearGradient>
<linearGradient id="paint1_linear_371_1418" x1="65.616" y1="20.33" x2="20.0156" y2="20.33" gradientUnits="userSpaceOnUse">
<stop stop-color="#9F0A00"/>
<stop offset="1" stop-color="#623D90"/>
</linearGradient>
<linearGradient id="paint2_linear_371_1418" x1="51.4534" y1="34.4157" x2="34.1777" y2="34.4157" gradientUnits="userSpaceOnUse">
<stop stop-color="#9F0A00"/>
<stop offset="1" stop-color="#623D90"/>
</linearGradient>
<linearGradient id="paint3_linear_371_1418" x1="22.0415" y1="16.7347" x2="0.945312" y2="16.7347" gradientUnits="userSpaceOnUse">
<stop stop-color="#9F0A00"/>
<stop offset="1" stop-color="#623D90"/>
</linearGradient>
<linearGradient id="paint4_linear_371_1418" x1="23.0313" y1="8.51744" x2="9.20117" y2="8.51744" gradientUnits="userSpaceOnUse">
<stop stop-color="#9F0A00"/>
<stop offset="1" stop-color="#623D90"/>
</linearGradient>
</defs>
</svg>
