<svg width="101" height="60" viewBox="0 0 101 60" fill="none" xmlns="http://www.w3.org/2000/svg">
<path d="M81.5352 9.98438L74.0977 2.54688C72.4516 0.915347 70.2278 -1.81031e-05 67.9102 2.68521e-10H32.4727C30.1602 2.68521e-10 27.9258 0.921876 26.2852 2.54688L18.8477 9.98438H0.410156V49.9375H10.4102C13.1602 49.9375 15.3789 47.7188 15.3945 44.9844H16.8164L30.0352 56.9219C34.8633 60.8438 41.5664 60.9375 46.5352 57.5156C48.4883 59.2031 50.5977 60 52.957 60C55.8008 60 58.4727 58.8438 60.582 56.25C64.0352 57.6094 68.1133 56.6562 70.582 53.625L74.6758 48.5781C75.5508 47.5 76.0977 46.2656 76.3789 44.9844H85.4258C85.4414 47.7188 87.6758 49.9375 90.4102 49.9375H100.41V9.98438H81.5352ZM7.91016 44.9375C6.53516 44.9375 5.41016 43.8125 5.41016 42.4375C5.41016 41.0625 6.53516 39.9375 7.91016 39.9375C9.28516 39.9375 10.4102 41.0625 10.4102 42.4375C10.4102 43.8281 9.28516 44.9375 7.91016 44.9375ZM68.8477 43.8594L64.7695 48.8906C64.332 49.4219 63.5508 49.5156 63.0039 49.0781L59.2695 46.0469L54.582 51.75C53.6445 52.8906 52.2383 52.5 51.7695 52.125L46.0195 47.2031L43.582 50.2031C41.4102 52.875 37.457 53.2812 34.9414 51.2344L19.7383 37.4844H15.4102V17.4688H21.957L31.5977 7.84375C31.9102 7.71875 32.1758 7.60938 32.4883 7.48438H41.3477L35.3008 13.0312C30.707 17.2344 30.4414 24.3281 34.6133 28.8594C36.9258 31.3906 44.1758 35.2969 50.4727 29.5469L51.7539 28.375L68.6602 42.0938C69.1914 42.5312 69.2695 43.3281 68.8477 43.8594ZM85.4102 37.4844H74.5977C74.2383 37.0469 73.832 36.6406 73.3945 36.2812L57.3477 23.25L59.3008 21.4688C60.3164 20.5312 60.3945 18.9531 59.457 17.9375L57.7539 16.1094C56.8164 15.0938 55.2383 15.0313 54.2227 15.9531L45.5977 23.8594C44.1133 25.2188 41.582 25.3281 40.1914 23.8594C38.7383 22.3125 38.8633 19.9375 40.3789 18.5625L50.6289 9.17188C51.7852 8.10937 53.2852 7.53125 54.8477 7.53125L67.9258 7.5C68.2539 7.5 68.5664 7.625 68.7852 7.85938L78.4258 17.4844H85.4102V37.4844ZM92.9102 44.9375C91.5352 44.9375 90.4102 43.8125 90.4102 42.4375C90.4102 41.0625 91.5352 39.9375 92.9102 39.9375C94.2852 39.9375 95.4102 41.0625 95.4102 42.4375C95.4102 43.8281 94.2852 44.9375 92.9102 44.9375Z" fill="url(#paint0_linear_371_1449)"/>
<defs>
<linearGradient id="paint0_linear_371_1449" x1="100.41" y1="-0.00331507" x2="0.410156" y2="-0.00331505" gradientUnits="userSpaceOnUse">
<stop stop-color="#9F0A00"/>
<stop offset="1" stop-color="#623D90"/>
</linearGradient>
</defs>
</svg>
