<svg width="39" height="29" viewBox="0 0 39 29" fill="none" xmlns="http://www.w3.org/2000/svg">
<path d="M2 14.2093C2 14.2093 8.32252 2 19.3869 2C30.4513 2 36.7739 14.2093 36.7739 14.2093" stroke="black" stroke-width="3" stroke-linecap="round" stroke-linejoin="round"/>
<path d="M2 14.2093C2 14.2093 8.32252 2 19.3869 2C30.4513 2 36.7739 14.2093 36.7739 14.2093" stroke="url(#paint0_linear_1277_7)" stroke-width="3" stroke-linecap="round" stroke-linejoin="round"/>
<path d="M2.22607 14.7907C2.22607 14.7907 8.54859 27 19.613 27C30.6774 27 36.9999 14.7907 36.9999 14.7907" stroke="black" stroke-width="3" stroke-linecap="round" stroke-linejoin="round"/>
<path d="M2.22607 14.7907C2.22607 14.7907 8.54859 27 19.613 27C30.6774 27 36.9999 14.7907 36.9999 14.7907" stroke="url(#paint1_linear_1277_7)" stroke-width="3" stroke-linecap="round" stroke-linejoin="round"/>
<path d="M19.3869 18.7879C22.0058 18.7879 24.1288 16.738 24.1288 14.2094C24.1288 11.6807 22.0058 9.63089 19.3869 9.63089C16.768 9.63089 14.645 11.6807 14.645 14.2094C14.645 16.738 16.768 18.7879 19.3869 18.7879Z" stroke="black" stroke-width="3" stroke-linecap="round" stroke-linejoin="round"/>
<path d="M19.3869 18.7879C22.0058 18.7879 24.1288 16.738 24.1288 14.2094C24.1288 11.6807 22.0058 9.63089 19.3869 9.63089C16.768 9.63089 14.645 11.6807 14.645 14.2094C14.645 16.738 16.768 18.7879 19.3869 18.7879Z" stroke="url(#paint2_linear_1277_7)" stroke-width="3" stroke-linecap="round" stroke-linejoin="round"/>
<defs>
<linearGradient id="paint0_linear_1277_7" x1="2" y1="2" x2="37.1799" y2="3.31073" gradientUnits="userSpaceOnUse">
<stop stop-color="#623D90"/>
<stop offset="1" stop-color="#9F0B00"/>
</linearGradient>
<linearGradient id="paint1_linear_1277_7" x1="2.22607" y1="14.7907" x2="37.406" y2="16.1014" gradientUnits="userSpaceOnUse">
<stop stop-color="#623D90"/>
<stop offset="1" stop-color="#9F0B00"/>
</linearGradient>
<linearGradient id="paint2_linear_1277_7" x1="14.645" y1="9.63089" x2="24.2511" y2="9.76104" gradientUnits="userSpaceOnUse">
<stop stop-color="#623D90"/>
<stop offset="1" stop-color="#9F0B00"/>
</linearGradient>
</defs>
</svg>
