<svg width="30" height="30" viewBox="0 0 30 30" fill="none" xmlns="http://www.w3.org/2000/svg">
<path d="M13.7 5.97571C14.123 5.92619 14.5564 5.90002 15 5.90002C23.2727 5.90002 28 15 28 15C28 15 27.1007 16.7312 25.4 18.6836M8.1266 8.1394C4.16423 10.8339 2 15 2 15C2 15 6.72727 24.1 15 24.1C17.6654 24.1 19.9626 23.1554 21.8524 21.8749L8.1266 8.1394Z" stroke="black" stroke-width="3" stroke-linecap="round" stroke-linejoin="round"/>
<path d="M13.7 5.97571C14.123 5.92619 14.5564 5.90002 15 5.90002C23.2727 5.90002 28 15 28 15C28 15 27.1007 16.7312 25.4 18.6836M8.1266 8.1394C4.16423 10.8339 2 15 2 15C2 15 6.72727 24.1 15 24.1C17.6654 24.1 19.9626 23.1554 21.8524 21.8749L8.1266 8.1394Z" stroke="url(#paint0_linear_901_3400)" stroke-width="3" stroke-linecap="round" stroke-linejoin="round"/>
<path d="M17.6 17.9071C16.9099 18.5246 15.9989 18.9001 15 18.9001C12.846 18.9001 11.1 17.1541 11.1 15.0001C11.1 13.9293 11.5315 12.9594 12.2301 12.2546" stroke="black" stroke-width="3" stroke-linecap="round" stroke-linejoin="round"/>
<path d="M17.6 17.9071C16.9099 18.5246 15.9989 18.9001 15 18.9001C12.846 18.9001 11.1 17.1541 11.1 15.0001C11.1 13.9293 11.5315 12.9594 12.2301 12.2546" stroke="url(#paint1_linear_901_3400)" stroke-width="3" stroke-linecap="round" stroke-linejoin="round"/>
<path d="M2 2L28 28" stroke="black" stroke-width="3" stroke-linecap="round" stroke-linejoin="round"/>
<path d="M2 2L28 28" stroke="url(#paint2_linear_901_3400)" stroke-width="3" stroke-linecap="round" stroke-linejoin="round"/>
<defs>
<linearGradient id="paint0_linear_901_3400" x1="2" y1="5.90002" x2="28.3309" y2="6.39209" gradientUnits="userSpaceOnUse">
<stop stop-color="#623D90"/>
<stop offset="1" stop-color="#9F0B00"/>
</linearGradient>
<linearGradient id="paint1_linear_901_3400" x1="11.1" y1="12.2546" x2="17.6839" y2="12.3389" gradientUnits="userSpaceOnUse">
<stop stop-color="#623D90"/>
<stop offset="1" stop-color="#9F0B00"/>
</linearGradient>
<linearGradient id="paint2_linear_901_3400" x1="2" y1="2" x2="28.3356" y2="2.34451" gradientUnits="userSpaceOnUse">
<stop stop-color="#623D90"/>
<stop offset="1" stop-color="#9F0B00"/>
</linearGradient>
</defs>
</svg>
