<svg width="35" height="32" viewBox="0 0 35 32" fill="none" xmlns="http://www.w3.org/2000/svg">
<g clip-path="url(#clip0_240_1924)">
<path d="M25.9553 31.9999C25.1151 31.8322 24.264 31.7019 23.438 31.4873C21.7341 31.0457 20.1487 30.3365 18.6221 29.5181C14.2942 27.1962 10.5949 24.1737 7.31307 20.6964C5.18403 18.44 3.32384 16.0097 1.88879 13.3141C1.00575 11.6546 0.310069 9.93347 0.0722946 8.08283C-0.0772596 6.92111 -0.0360902 5.76641 0.57809 4.70378C0.771335 4.36907 1.02255 4.04919 1.30738 3.7769C2.30721 2.81959 3.34232 1.89505 4.34635 0.941642C5.73855 -0.38158 7.90037 -0.245045 9.21443 0.943983C10.7814 2.36161 12.3223 3.80342 13.8573 5.2507C15.2092 6.52633 15.2201 8.43705 13.8775 9.60033C13.591 9.84921 13.223 10.0458 12.8567 10.18C11.9182 10.5233 11.178 11.046 10.7705 11.9238C10.4982 12.5081 10.4613 13.105 10.6394 13.7221C11.1393 15.4596 12.2022 16.889 13.4792 18.1966C14.8084 19.5573 16.3132 20.7174 18.1037 21.5257C18.8926 21.8823 19.7042 22.1982 20.6142 22.0882C21.8484 21.9384 22.7877 21.3861 23.2759 20.293C23.5784 19.6166 23.9338 18.9979 24.6286 18.5937C25.9284 17.8385 27.5306 17.9758 28.6775 19.0135C30.2932 20.474 31.8912 21.9517 33.4607 23.4544C34.747 24.6855 34.6991 26.6493 33.3943 27.8812C32.3643 28.8542 31.3165 29.8115 30.2789 30.7781C29.5437 31.4632 28.6397 31.8103 27.6222 31.9383C27.5365 31.9492 27.4533 31.9773 27.3693 31.9976C26.898 31.9999 26.4266 31.9999 25.9553 31.9999Z" fill="url(#paint0_linear_240_1924)"/>
</g>
<defs>
<linearGradient id="paint0_linear_240_1924" x1="1.31969e-07" y1="-1.5" x2="34" y2="35" gradientUnits="userSpaceOnUse">
<stop stop-color="#9F0B00"/>
<stop offset="1" stop-color="#623D90"/>
</linearGradient>
<clipPath id="clip0_240_1924">
<rect width="34.4" height="32" fill="white"/>
</clipPath>
</defs>
</svg>
