<svg width="39" height="38" viewBox="0 0 39 38" fill="none" xmlns="http://www.w3.org/2000/svg">
<path d="M37.9786 31.2322V31.224C37.9786 31.224 30.7788 24.0456 30.7743 24.0421C30.2035 23.472 29.2906 23.4844 28.729 24.0459L25.415 27.3675C24.1266 28.6538 22.4653 27.5124 19.2764 24.9169C17.1666 23.1996 14.7391 20.8904 12.6344 18.287C11.1573 16.4604 9.85117 14.5421 11.2005 13.1955C11.204 13.192 14.5282 9.88247 14.5276 9.87898L14.5301 9.87201C15.1267 9.27655 15.0689 8.36435 14.5241 7.81994V7.8117C14.5241 7.8117 7.11622 0.426558 7.11209 0.422119C6.54128 -0.147652 5.62868 -0.134969 5.06676 0.425924L1.72827 3.75831C0.352858 5.4765 -2.70387 13.6654 10.4007 27.0736C24.2057 41.1993 33.1138 38.1776 34.6474 36.5837C34.6474 36.5837 37.9824 33.2941 37.9824 33.291L37.9853 33.2843C38.5818 32.6885 38.523 31.777 37.9786 31.2322Z" fill="url(#paint0_linear_536_26)"/>
<defs>
<linearGradient id="paint0_linear_536_26" x1="1.28516" y1="19.2184" x2="38.5279" y2="19.0234" gradientUnits="userSpaceOnUse">
<stop stop-color="#623D90"/>
<stop offset="1" stop-color="#9F0B00"/>
</linearGradient>
</defs>
</svg>
