<svg width="40" height="40" viewBox="0 0 40 40" fill="none" xmlns="http://www.w3.org/2000/svg">
<mask id="path-1-outside-1_897_721" maskUnits="userSpaceOnUse" x="14.5098" y="15" width="25" height="25" fill="black">
<rect fill="white" x="14.5098" y="15" width="25" height="25"/>
<path d="M29.3951 38.3514C29.9498 37.9396 30.1062 37.3121 30.2022 36.6681C30.2314 36.4718 30.2588 36.1982 30.3916 36.1097C30.6741 35.92 31.0226 35.8204 31.3522 35.7053C31.4069 35.6859 31.5048 35.7725 31.5773 35.8186C31.8486 35.9946 32.1086 36.1881 32.3883 36.3493C33.203 36.8183 34.1995 36.7501 34.9096 36.1429C35.3523 35.7652 35.7705 35.3542 36.1566 34.9212C36.7896 34.2118 36.8536 33.2351 36.3638 32.4225C36.3064 32.3276 36.2452 32.2355 36.1811 32.1452C35.6565 31.409 35.6509 31.4072 36.0624 30.5982C36.1124 30.4996 36.2433 30.4075 36.3554 30.378C36.6812 30.2933 37.0203 30.2592 37.3462 30.1744C38.305 29.9247 38.9473 29.1425 38.986 28.1705C39.0057 27.6812 39.0048 27.1892 38.9878 26.7C38.952 25.7003 38.2843 24.9015 37.2963 24.6537C37.1512 24.6177 37.0024 24.5735 36.8545 24.5707C36.3346 24.5588 36.0295 24.3459 35.8581 23.8318C35.7441 23.4882 35.746 23.2578 35.9749 22.9787C36.3864 22.4756 36.7114 21.9302 36.6784 21.2428C36.6549 20.7462 36.5061 20.2975 36.167 19.9317C35.7968 19.5328 35.4116 19.144 35.0057 18.781C34.2343 18.0909 33.2322 18.0052 32.3346 18.5258C32.2056 18.6004 32.0662 18.6695 31.9616 18.7708C31.5849 19.1348 31.2185 19.1486 30.725 18.9293C30.3285 18.7533 30.2361 18.5092 30.1938 18.1563C30.1043 17.4137 29.8698 16.7254 29.1709 16.3256C28.8479 16.1404 28.4617 16.0068 28.0906 15.9663C27.5462 15.9064 26.9896 15.9303 26.4386 15.9534C25.4807 15.9939 24.6999 16.6186 24.4419 17.5196C24.4051 17.6496 24.3477 17.7832 24.3524 17.9131C24.3788 18.5709 24.0228 18.8971 23.4077 19.062C23.1902 19.12 23.0451 19.1191 22.8605 18.991C22.3839 18.6594 21.9252 18.2899 21.3064 18.2199C20.6613 18.1462 20.0764 18.2779 19.5942 18.7017C19.1571 19.0859 18.7333 19.4904 18.3462 19.9225C17.7199 20.6209 17.6492 21.5754 18.1202 22.3871C18.188 22.5042 18.2454 22.6387 18.3453 22.7244C18.9273 23.2247 18.738 23.7581 18.4187 24.2879C18.3613 24.3828 18.2153 24.4528 18.0976 24.4823C17.7585 24.5661 17.4053 24.6002 17.0709 24.6951C16.1818 24.9485 15.5696 25.7105 15.5282 26.6143C15.5056 27.1155 15.5046 27.6195 15.5207 28.1216C15.5555 29.1996 16.2478 29.9975 17.3224 30.2242C17.4693 30.2555 17.6172 30.2951 17.766 30.2988C18.2021 30.3098 18.4084 30.5236 18.6071 30.9124C18.868 31.4228 18.6297 31.7232 18.366 32.0871C17.539 33.2278 17.6351 34.2588 18.6448 35.2474C18.9462 35.5422 19.24 35.8453 19.5603 36.119C20.2855 36.739 21.2801 36.822 22.1127 36.3493C22.2313 36.282 22.3707 36.2258 22.4565 36.1282C22.9651 35.5505 23.5085 35.7578 24.0482 36.0563C24.1395 36.107 24.213 36.2332 24.2413 36.3373C24.3062 36.5852 24.3336 36.8431 24.3854 37.0947C24.5709 37.9958 25.4431 38.6499 26.0148 38.8388C26.8248 39.106 28.3826 39.1023 29.3951 38.3514ZM31.4813 21.2815C31.6847 21.1931 31.9023 21.1277 32.0869 21.0125C32.4665 20.7757 32.8338 20.5177 33.1964 20.2561C33.4262 20.0902 33.6174 20.0838 33.819 20.2994C34.0384 20.5343 34.2701 20.76 34.5103 20.9747C34.7344 21.1756 34.7646 21.3654 34.5734 21.6114C34.3078 21.9523 34.0714 22.3144 33.8152 22.6617C33.5402 23.0349 33.5138 23.4126 33.7125 23.8346C33.9678 24.3782 34.2004 24.9328 34.4142 25.493C34.5856 25.9445 34.9002 26.184 35.3768 26.2559C35.8091 26.3213 36.2386 26.4088 36.6718 26.4724C36.9271 26.5102 37.0457 26.6346 37.0401 26.8889C37.0326 27.2316 37.026 27.5753 37.042 27.918C37.0561 28.2138 36.9082 28.3382 36.6313 28.3815C36.199 28.4487 35.7695 28.5372 35.3363 28.5998C34.8663 28.668 34.579 28.9204 34.4133 29.3535C34.2023 29.9017 33.98 30.448 33.7248 30.9778C33.5091 31.4265 33.5402 31.8218 33.8378 32.2161C34.0912 32.5506 34.32 32.9025 34.5753 33.2361C34.7467 33.4609 34.7533 33.6461 34.5329 33.8451C34.2842 34.069 34.0441 34.3039 33.8152 34.5471C33.6127 34.7618 33.4234 34.7581 33.1936 34.5895C32.8423 34.3334 32.4749 34.0984 32.1199 33.8478C31.7384 33.5797 31.3541 33.5493 30.9209 33.7446C30.3539 33.9989 29.7737 34.2265 29.1907 34.4458C28.7772 34.6015 28.5333 34.8724 28.4608 35.298C28.3864 35.7329 28.3016 36.166 28.2319 36.6008C28.1886 36.8726 28.0605 37.0154 27.7591 37.0025C27.4087 36.9869 27.0574 36.9933 26.707 37.0007C26.4452 37.0062 26.3209 36.8864 26.2813 36.6386C26.2144 36.2157 26.124 35.7956 26.06 35.3717C25.9884 34.9019 25.735 34.6015 25.2764 34.4329C24.7037 34.2228 24.1358 33.998 23.581 33.7465C23.1468 33.5493 22.7635 33.5816 22.383 33.8506C22.0279 34.1012 21.6606 34.3361 21.3102 34.5941C21.0785 34.7646 20.8883 34.7627 20.6877 34.5508C20.4569 34.3085 20.2186 34.0736 19.97 33.8488C19.7515 33.6516 19.7552 33.4636 19.9248 33.2379C20.1922 32.8832 20.4447 32.5174 20.7018 32.1553C20.9504 31.8052 20.9909 31.4486 20.8035 31.0478C20.5388 30.4812 20.2968 29.9044 20.0689 29.3231C19.9097 28.9168 19.6328 28.6809 19.1986 28.609C18.754 28.5353 18.3123 28.4515 17.8668 28.3842C17.5843 28.3418 17.4496 28.211 17.4637 27.918C17.4797 27.5753 17.4731 27.2316 17.4646 26.8889C17.458 26.6337 17.5767 26.5111 17.8329 26.4733C18.2662 26.4098 18.6947 26.3204 19.1279 26.255C19.6055 26.1831 19.9163 25.9408 20.0886 25.4903C20.3024 24.9301 20.537 24.3763 20.7922 23.8327C20.9919 23.408 20.9551 23.0312 20.6811 22.6589C20.4249 22.3107 20.1838 21.9532 19.9229 21.6086C19.7524 21.3838 19.7505 21.1968 19.969 20.9996C20.2177 20.7757 20.4569 20.5408 20.6867 20.2975C20.8902 20.0819 21.0813 20.0921 21.3102 20.257C21.6625 20.5122 22.0279 20.7499 22.3839 20.9996C22.7644 21.2659 23.1506 21.2981 23.5838 21.1009C24.1264 20.854 24.682 20.6301 25.2434 20.4274C25.7162 20.257 25.9837 19.9557 26.0581 19.4711C26.1231 19.0472 26.2154 18.628 26.2804 18.2042C26.3199 17.9518 26.4518 17.844 26.7099 17.8495C27.0602 17.8578 27.4125 17.8633 27.7619 17.8477C28.0642 17.8338 28.1895 17.9757 28.2328 18.2484C28.2978 18.6594 28.3939 19.0666 28.4495 19.4784C28.5163 19.9723 28.7951 20.2607 29.2632 20.4311C29.8123 20.6311 30.3473 20.8688 30.8917 21.0844C31.0753 21.1581 31.2675 21.2115 31.4813 21.2815Z"/>
</mask>
<path d="M29.3951 38.3514C29.9498 37.9396 30.1062 37.3121 30.2022 36.6681C30.2314 36.4718 30.2588 36.1982 30.3916 36.1097C30.6741 35.92 31.0226 35.8204 31.3522 35.7053C31.4069 35.6859 31.5048 35.7725 31.5773 35.8186C31.8486 35.9946 32.1086 36.1881 32.3883 36.3493C33.203 36.8183 34.1995 36.7501 34.9096 36.1429C35.3523 35.7652 35.7705 35.3542 36.1566 34.9212C36.7896 34.2118 36.8536 33.2351 36.3638 32.4225C36.3064 32.3276 36.2452 32.2355 36.1811 32.1452C35.6565 31.409 35.6509 31.4072 36.0624 30.5982C36.1124 30.4996 36.2433 30.4075 36.3554 30.378C36.6812 30.2933 37.0203 30.2592 37.3462 30.1744C38.305 29.9247 38.9473 29.1425 38.986 28.1705C39.0057 27.6812 39.0048 27.1892 38.9878 26.7C38.952 25.7003 38.2843 24.9015 37.2963 24.6537C37.1512 24.6177 37.0024 24.5735 36.8545 24.5707C36.3346 24.5588 36.0295 24.3459 35.8581 23.8318C35.7441 23.4882 35.746 23.2578 35.9749 22.9787C36.3864 22.4756 36.7114 21.9302 36.6784 21.2428C36.6549 20.7462 36.5061 20.2975 36.167 19.9317C35.7968 19.5328 35.4116 19.144 35.0057 18.781C34.2343 18.0909 33.2322 18.0052 32.3346 18.5258C32.2056 18.6004 32.0662 18.6695 31.9616 18.7708C31.5849 19.1348 31.2185 19.1486 30.725 18.9293C30.3285 18.7533 30.2361 18.5092 30.1938 18.1563C30.1043 17.4137 29.8698 16.7254 29.1709 16.3256C28.8479 16.1404 28.4617 16.0068 28.0906 15.9663C27.5462 15.9064 26.9896 15.9303 26.4386 15.9534C25.4807 15.9939 24.6999 16.6186 24.4419 17.5196C24.4051 17.6496 24.3477 17.7832 24.3524 17.9131C24.3788 18.5709 24.0228 18.8971 23.4077 19.062C23.1902 19.12 23.0451 19.1191 22.8605 18.991C22.3839 18.6594 21.9252 18.2899 21.3064 18.2199C20.6613 18.1462 20.0764 18.2779 19.5942 18.7017C19.1571 19.0859 18.7333 19.4904 18.3462 19.9225C17.7199 20.6209 17.6492 21.5754 18.1202 22.3871C18.188 22.5042 18.2454 22.6387 18.3453 22.7244C18.9273 23.2247 18.738 23.7581 18.4187 24.2879C18.3613 24.3828 18.2153 24.4528 18.0976 24.4823C17.7585 24.5661 17.4053 24.6002 17.0709 24.6951C16.1818 24.9485 15.5696 25.7105 15.5282 26.6143C15.5056 27.1155 15.5046 27.6195 15.5207 28.1216C15.5555 29.1996 16.2478 29.9975 17.3224 30.2242C17.4693 30.2555 17.6172 30.2951 17.766 30.2988C18.2021 30.3098 18.4084 30.5236 18.6071 30.9124C18.868 31.4228 18.6297 31.7232 18.366 32.0871C17.539 33.2278 17.6351 34.2588 18.6448 35.2474C18.9462 35.5422 19.24 35.8453 19.5603 36.119C20.2855 36.739 21.2801 36.822 22.1127 36.3493C22.2313 36.282 22.3707 36.2258 22.4565 36.1282C22.9651 35.5505 23.5085 35.7578 24.0482 36.0563C24.1395 36.107 24.213 36.2332 24.2413 36.3373C24.3062 36.5852 24.3336 36.8431 24.3854 37.0947C24.5709 37.9958 25.4431 38.6499 26.0148 38.8388C26.8248 39.106 28.3826 39.1023 29.3951 38.3514ZM31.4813 21.2815C31.6847 21.1931 31.9023 21.1277 32.0869 21.0125C32.4665 20.7757 32.8338 20.5177 33.1964 20.2561C33.4262 20.0902 33.6174 20.0838 33.819 20.2994C34.0384 20.5343 34.2701 20.76 34.5103 20.9747C34.7344 21.1756 34.7646 21.3654 34.5734 21.6114C34.3078 21.9523 34.0714 22.3144 33.8152 22.6617C33.5402 23.0349 33.5138 23.4126 33.7125 23.8346C33.9678 24.3782 34.2004 24.9328 34.4142 25.493C34.5856 25.9445 34.9002 26.184 35.3768 26.2559C35.8091 26.3213 36.2386 26.4088 36.6718 26.4724C36.9271 26.5102 37.0457 26.6346 37.0401 26.8889C37.0326 27.2316 37.026 27.5753 37.042 27.918C37.0561 28.2138 36.9082 28.3382 36.6313 28.3815C36.199 28.4487 35.7695 28.5372 35.3363 28.5998C34.8663 28.668 34.579 28.9204 34.4133 29.3535C34.2023 29.9017 33.98 30.448 33.7248 30.9778C33.5091 31.4265 33.5402 31.8218 33.8378 32.2161C34.0912 32.5506 34.32 32.9025 34.5753 33.2361C34.7467 33.4609 34.7533 33.6461 34.5329 33.8451C34.2842 34.069 34.0441 34.3039 33.8152 34.5471C33.6127 34.7618 33.4234 34.7581 33.1936 34.5895C32.8423 34.3334 32.4749 34.0984 32.1199 33.8478C31.7384 33.5797 31.3541 33.5493 30.9209 33.7446C30.3539 33.9989 29.7737 34.2265 29.1907 34.4458C28.7772 34.6015 28.5333 34.8724 28.4608 35.298C28.3864 35.7329 28.3016 36.166 28.2319 36.6008C28.1886 36.8726 28.0605 37.0154 27.7591 37.0025C27.4087 36.9869 27.0574 36.9933 26.707 37.0007C26.4452 37.0062 26.3209 36.8864 26.2813 36.6386C26.2144 36.2157 26.124 35.7956 26.06 35.3717C25.9884 34.9019 25.735 34.6015 25.2764 34.4329C24.7037 34.2228 24.1358 33.998 23.581 33.7465C23.1468 33.5493 22.7635 33.5816 22.383 33.8506C22.0279 34.1012 21.6606 34.3361 21.3102 34.5941C21.0785 34.7646 20.8883 34.7627 20.6877 34.5508C20.4569 34.3085 20.2186 34.0736 19.97 33.8488C19.7515 33.6516 19.7552 33.4636 19.9248 33.2379C20.1922 32.8832 20.4447 32.5174 20.7018 32.1553C20.9504 31.8052 20.9909 31.4486 20.8035 31.0478C20.5388 30.4812 20.2968 29.9044 20.0689 29.3231C19.9097 28.9168 19.6328 28.6809 19.1986 28.609C18.754 28.5353 18.3123 28.4515 17.8668 28.3842C17.5843 28.3418 17.4496 28.211 17.4637 27.918C17.4797 27.5753 17.4731 27.2316 17.4646 26.8889C17.458 26.6337 17.5767 26.5111 17.8329 26.4733C18.2662 26.4098 18.6947 26.3204 19.1279 26.255C19.6055 26.1831 19.9163 25.9408 20.0886 25.4903C20.3024 24.9301 20.537 24.3763 20.7922 23.8327C20.9919 23.408 20.9551 23.0312 20.6811 22.6589C20.4249 22.3107 20.1838 21.9532 19.9229 21.6086C19.7524 21.3838 19.7505 21.1968 19.969 20.9996C20.2177 20.7757 20.4569 20.5408 20.6867 20.2975C20.8902 20.0819 21.0813 20.0921 21.3102 20.257C21.6625 20.5122 22.0279 20.7499 22.3839 20.9996C22.7644 21.2659 23.1506 21.2981 23.5838 21.1009C24.1264 20.854 24.682 20.6301 25.2434 20.4274C25.7162 20.257 25.9837 19.9557 26.0581 19.4711C26.1231 19.0472 26.2154 18.628 26.2804 18.2042C26.3199 17.9518 26.4518 17.844 26.7099 17.8495C27.0602 17.8578 27.4125 17.8633 27.7619 17.8477C28.0642 17.8338 28.1895 17.9757 28.2328 18.2484C28.2978 18.6594 28.3939 19.0666 28.4495 19.4784C28.5163 19.9723 28.7951 20.2607 29.2632 20.4311C29.8123 20.6311 30.3473 20.8688 30.8917 21.0844C31.0753 21.1581 31.2675 21.2115 31.4813 21.2815Z" fill="url(#paint0_linear_897_721)"/>
<path d="M29.3951 38.3514C29.9498 37.9396 30.1062 37.3121 30.2022 36.6681C30.2314 36.4718 30.2588 36.1982 30.3916 36.1097C30.6741 35.92 31.0226 35.8204 31.3522 35.7053C31.4069 35.6859 31.5048 35.7725 31.5773 35.8186C31.8486 35.9946 32.1086 36.1881 32.3883 36.3493C33.203 36.8183 34.1995 36.7501 34.9096 36.1429C35.3523 35.7652 35.7705 35.3542 36.1566 34.9212C36.7896 34.2118 36.8536 33.2351 36.3638 32.4225C36.3064 32.3276 36.2452 32.2355 36.1811 32.1452C35.6565 31.409 35.6509 31.4072 36.0624 30.5982C36.1124 30.4996 36.2433 30.4075 36.3554 30.378C36.6812 30.2933 37.0203 30.2592 37.3462 30.1744C38.305 29.9247 38.9473 29.1425 38.986 28.1705C39.0057 27.6812 39.0048 27.1892 38.9878 26.7C38.952 25.7003 38.2843 24.9015 37.2963 24.6537C37.1512 24.6177 37.0024 24.5735 36.8545 24.5707C36.3346 24.5588 36.0295 24.3459 35.8581 23.8318C35.7441 23.4882 35.746 23.2578 35.9749 22.9787C36.3864 22.4756 36.7114 21.9302 36.6784 21.2428C36.6549 20.7462 36.5061 20.2975 36.167 19.9317C35.7968 19.5328 35.4116 19.144 35.0057 18.781C34.2343 18.0909 33.2322 18.0052 32.3346 18.5258C32.2056 18.6004 32.0662 18.6695 31.9616 18.7708C31.5849 19.1348 31.2185 19.1486 30.725 18.9293C30.3285 18.7533 30.2361 18.5092 30.1938 18.1563C30.1043 17.4137 29.8698 16.7254 29.1709 16.3256C28.8479 16.1404 28.4617 16.0068 28.0906 15.9663C27.5462 15.9064 26.9896 15.9303 26.4386 15.9534C25.4807 15.9939 24.6999 16.6186 24.4419 17.5196C24.4051 17.6496 24.3477 17.7832 24.3524 17.9131C24.3788 18.5709 24.0228 18.8971 23.4077 19.062C23.1902 19.12 23.0451 19.1191 22.8605 18.991C22.3839 18.6594 21.9252 18.2899 21.3064 18.2199C20.6613 18.1462 20.0764 18.2779 19.5942 18.7017C19.1571 19.0859 18.7333 19.4904 18.3462 19.9225C17.7199 20.6209 17.6492 21.5754 18.1202 22.3871C18.188 22.5042 18.2454 22.6387 18.3453 22.7244C18.9273 23.2247 18.738 23.7581 18.4187 24.2879C18.3613 24.3828 18.2153 24.4528 18.0976 24.4823C17.7585 24.5661 17.4053 24.6002 17.0709 24.6951C16.1818 24.9485 15.5696 25.7105 15.5282 26.6143C15.5056 27.1155 15.5046 27.6195 15.5207 28.1216C15.5555 29.1996 16.2478 29.9975 17.3224 30.2242C17.4693 30.2555 17.6172 30.2951 17.766 30.2988C18.2021 30.3098 18.4084 30.5236 18.6071 30.9124C18.868 31.4228 18.6297 31.7232 18.366 32.0871C17.539 33.2278 17.6351 34.2588 18.6448 35.2474C18.9462 35.5422 19.24 35.8453 19.5603 36.119C20.2855 36.739 21.2801 36.822 22.1127 36.3493C22.2313 36.282 22.3707 36.2258 22.4565 36.1282C22.9651 35.5505 23.5085 35.7578 24.0482 36.0563C24.1395 36.107 24.213 36.2332 24.2413 36.3373C24.3062 36.5852 24.3336 36.8431 24.3854 37.0947C24.5709 37.9958 25.4431 38.6499 26.0148 38.8388C26.8248 39.106 28.3826 39.1023 29.3951 38.3514ZM31.4813 21.2815C31.6847 21.1931 31.9023 21.1277 32.0869 21.0125C32.4665 20.7757 32.8338 20.5177 33.1964 20.2561C33.4262 20.0902 33.6174 20.0838 33.819 20.2994C34.0384 20.5343 34.2701 20.76 34.5103 20.9747C34.7344 21.1756 34.7646 21.3654 34.5734 21.6114C34.3078 21.9523 34.0714 22.3144 33.8152 22.6617C33.5402 23.0349 33.5138 23.4126 33.7125 23.8346C33.9678 24.3782 34.2004 24.9328 34.4142 25.493C34.5856 25.9445 34.9002 26.184 35.3768 26.2559C35.8091 26.3213 36.2386 26.4088 36.6718 26.4724C36.9271 26.5102 37.0457 26.6346 37.0401 26.8889C37.0326 27.2316 37.026 27.5753 37.042 27.918C37.0561 28.2138 36.9082 28.3382 36.6313 28.3815C36.199 28.4487 35.7695 28.5372 35.3363 28.5998C34.8663 28.668 34.579 28.9204 34.4133 29.3535C34.2023 29.9017 33.98 30.448 33.7248 30.9778C33.5091 31.4265 33.5402 31.8218 33.8378 32.2161C34.0912 32.5506 34.32 32.9025 34.5753 33.2361C34.7467 33.4609 34.7533 33.6461 34.5329 33.8451C34.2842 34.069 34.0441 34.3039 33.8152 34.5471C33.6127 34.7618 33.4234 34.7581 33.1936 34.5895C32.8423 34.3334 32.4749 34.0984 32.1199 33.8478C31.7384 33.5797 31.3541 33.5493 30.9209 33.7446C30.3539 33.9989 29.7737 34.2265 29.1907 34.4458C28.7772 34.6015 28.5333 34.8724 28.4608 35.298C28.3864 35.7329 28.3016 36.166 28.2319 36.6008C28.1886 36.8726 28.0605 37.0154 27.7591 37.0025C27.4087 36.9869 27.0574 36.9933 26.707 37.0007C26.4452 37.0062 26.3209 36.8864 26.2813 36.6386C26.2144 36.2157 26.124 35.7956 26.06 35.3717C25.9884 34.9019 25.735 34.6015 25.2764 34.4329C24.7037 34.2228 24.1358 33.998 23.581 33.7465C23.1468 33.5493 22.7635 33.5816 22.383 33.8506C22.0279 34.1012 21.6606 34.3361 21.3102 34.5941C21.0785 34.7646 20.8883 34.7627 20.6877 34.5508C20.4569 34.3085 20.2186 34.0736 19.97 33.8488C19.7515 33.6516 19.7552 33.4636 19.9248 33.2379C20.1922 32.8832 20.4447 32.5174 20.7018 32.1553C20.9504 31.8052 20.9909 31.4486 20.8035 31.0478C20.5388 30.4812 20.2968 29.9044 20.0689 29.3231C19.9097 28.9168 19.6328 28.6809 19.1986 28.609C18.754 28.5353 18.3123 28.4515 17.8668 28.3842C17.5843 28.3418 17.4496 28.211 17.4637 27.918C17.4797 27.5753 17.4731 27.2316 17.4646 26.8889C17.458 26.6337 17.5767 26.5111 17.8329 26.4733C18.2662 26.4098 18.6947 26.3204 19.1279 26.255C19.6055 26.1831 19.9163 25.9408 20.0886 25.4903C20.3024 24.9301 20.537 24.3763 20.7922 23.8327C20.9919 23.408 20.9551 23.0312 20.6811 22.6589C20.4249 22.3107 20.1838 21.9532 19.9229 21.6086C19.7524 21.3838 19.7505 21.1968 19.969 20.9996C20.2177 20.7757 20.4569 20.5408 20.6867 20.2975C20.8902 20.0819 21.0813 20.0921 21.3102 20.257C21.6625 20.5122 22.0279 20.7499 22.3839 20.9996C22.7644 21.2659 23.1506 21.2981 23.5838 21.1009C24.1264 20.854 24.682 20.6301 25.2434 20.4274C25.7162 20.257 25.9837 19.9557 26.0581 19.4711C26.1231 19.0472 26.2154 18.628 26.2804 18.2042C26.3199 17.9518 26.4518 17.844 26.7099 17.8495C27.0602 17.8578 27.4125 17.8633 27.7619 17.8477C28.0642 17.8338 28.1895 17.9757 28.2328 18.2484C28.2978 18.6594 28.3939 19.0666 28.4495 19.4784C28.5163 19.9723 28.7951 20.2607 29.2632 20.4311C29.8123 20.6311 30.3473 20.8688 30.8917 21.0844C31.0753 21.1581 31.2675 21.2115 31.4813 21.2815Z" stroke="url(#paint1_linear_897_721)" stroke-width="0.8" mask="url(#path-1-outside-1_897_721)"/>
<path d="M29.3951 38.3514C29.9498 37.9396 30.1062 37.3121 30.2022 36.6681C30.2314 36.4718 30.2588 36.1982 30.3916 36.1097C30.6741 35.92 31.0226 35.8204 31.3522 35.7053C31.4069 35.6859 31.5048 35.7725 31.5773 35.8186C31.8486 35.9946 32.1086 36.1881 32.3883 36.3493C33.203 36.8183 34.1995 36.7501 34.9096 36.1429C35.3523 35.7652 35.7705 35.3542 36.1566 34.9212C36.7896 34.2118 36.8536 33.2351 36.3638 32.4225C36.3064 32.3276 36.2452 32.2355 36.1811 32.1452C35.6565 31.409 35.6509 31.4072 36.0624 30.5982C36.1124 30.4996 36.2433 30.4075 36.3554 30.378C36.6812 30.2933 37.0203 30.2592 37.3462 30.1744C38.305 29.9247 38.9473 29.1425 38.986 28.1705C39.0057 27.6812 39.0048 27.1892 38.9878 26.7C38.952 25.7003 38.2843 24.9015 37.2963 24.6537C37.1512 24.6177 37.0024 24.5735 36.8545 24.5707C36.3346 24.5588 36.0295 24.3459 35.8581 23.8318C35.7441 23.4882 35.746 23.2578 35.9749 22.9787C36.3864 22.4756 36.7114 21.9302 36.6784 21.2428C36.6549 20.7462 36.5061 20.2975 36.167 19.9317C35.7968 19.5328 35.4116 19.144 35.0057 18.781C34.2343 18.0909 33.2322 18.0052 32.3346 18.5258C32.2056 18.6004 32.0662 18.6695 31.9616 18.7708C31.5849 19.1348 31.2185 19.1486 30.725 18.9293C30.3285 18.7533 30.2361 18.5092 30.1938 18.1563C30.1043 17.4137 29.8698 16.7254 29.1709 16.3256C28.8479 16.1404 28.4617 16.0068 28.0906 15.9663C27.5462 15.9064 26.9896 15.9303 26.4386 15.9534C25.4807 15.9939 24.6999 16.6186 24.4419 17.5196C24.4051 17.6496 24.3477 17.7832 24.3524 17.9131C24.3788 18.5709 24.0228 18.8971 23.4077 19.062C23.1902 19.12 23.0451 19.1191 22.8605 18.991C22.3839 18.6594 21.9252 18.2899 21.3064 18.2199C20.6613 18.1462 20.0764 18.2779 19.5942 18.7017C19.1571 19.0859 18.7333 19.4904 18.3462 19.9225C17.7199 20.6209 17.6492 21.5754 18.1202 22.3871C18.188 22.5042 18.2454 22.6387 18.3453 22.7244C18.9273 23.2247 18.738 23.7581 18.4187 24.2879C18.3613 24.3828 18.2153 24.4528 18.0976 24.4823C17.7585 24.5661 17.4053 24.6002 17.0709 24.6951C16.1818 24.9485 15.5696 25.7105 15.5282 26.6143C15.5056 27.1155 15.5046 27.6195 15.5207 28.1216C15.5555 29.1996 16.2478 29.9975 17.3224 30.2242C17.4693 30.2555 17.6172 30.2951 17.766 30.2988C18.2021 30.3098 18.4084 30.5236 18.6071 30.9124C18.868 31.4228 18.6297 31.7232 18.366 32.0871C17.539 33.2278 17.6351 34.2588 18.6448 35.2474C18.9462 35.5422 19.24 35.8453 19.5603 36.119C20.2855 36.739 21.2801 36.822 22.1127 36.3493C22.2313 36.282 22.3707 36.2258 22.4565 36.1282C22.9651 35.5505 23.5085 35.7578 24.0482 36.0563C24.1395 36.107 24.213 36.2332 24.2413 36.3373C24.3062 36.5852 24.3336 36.8431 24.3854 37.0947C24.5709 37.9958 25.4431 38.6499 26.0148 38.8388C26.8248 39.106 28.3826 39.1023 29.3951 38.3514ZM31.4813 21.2815C31.6847 21.1931 31.9023 21.1277 32.0869 21.0125C32.4665 20.7757 32.8338 20.5177 33.1964 20.2561C33.4262 20.0902 33.6174 20.0838 33.819 20.2994C34.0384 20.5343 34.2701 20.76 34.5103 20.9747C34.7344 21.1756 34.7646 21.3654 34.5734 21.6114C34.3078 21.9523 34.0714 22.3144 33.8152 22.6617C33.5402 23.0349 33.5138 23.4126 33.7125 23.8346C33.9678 24.3782 34.2004 24.9328 34.4142 25.493C34.5856 25.9445 34.9002 26.184 35.3768 26.2559C35.8091 26.3213 36.2386 26.4088 36.6718 26.4724C36.9271 26.5102 37.0457 26.6346 37.0401 26.8889C37.0326 27.2316 37.026 27.5753 37.042 27.918C37.0561 28.2138 36.9082 28.3382 36.6313 28.3815C36.199 28.4487 35.7695 28.5372 35.3363 28.5998C34.8663 28.668 34.579 28.9204 34.4133 29.3535C34.2023 29.9017 33.98 30.448 33.7248 30.9778C33.5091 31.4265 33.5402 31.8218 33.8378 32.2161C34.0912 32.5506 34.32 32.9025 34.5753 33.2361C34.7467 33.4609 34.7533 33.6461 34.5329 33.8451C34.2842 34.069 34.0441 34.3039 33.8152 34.5471C33.6127 34.7618 33.4234 34.7581 33.1936 34.5895C32.8423 34.3334 32.4749 34.0984 32.1199 33.8478C31.7384 33.5797 31.3541 33.5493 30.9209 33.7446C30.3539 33.9989 29.7737 34.2265 29.1907 34.4458C28.7772 34.6015 28.5333 34.8724 28.4608 35.298C28.3864 35.7329 28.3016 36.166 28.2319 36.6008C28.1886 36.8726 28.0605 37.0154 27.7591 37.0025C27.4087 36.9869 27.0574 36.9933 26.707 37.0007C26.4452 37.0062 26.3209 36.8864 26.2813 36.6386C26.2144 36.2157 26.124 35.7956 26.06 35.3717C25.9884 34.9019 25.735 34.6015 25.2764 34.4329C24.7037 34.2228 24.1358 33.998 23.581 33.7465C23.1468 33.5493 22.7635 33.5816 22.383 33.8506C22.0279 34.1012 21.6606 34.3361 21.3102 34.5941C21.0785 34.7646 20.8883 34.7627 20.6877 34.5508C20.4569 34.3085 20.2186 34.0736 19.97 33.8488C19.7515 33.6516 19.7552 33.4636 19.9248 33.2379C20.1922 32.8832 20.4447 32.5174 20.7018 32.1553C20.9504 31.8052 20.9909 31.4486 20.8035 31.0478C20.5388 30.4812 20.2968 29.9044 20.0689 29.3231C19.9097 28.9168 19.6328 28.6809 19.1986 28.609C18.754 28.5353 18.3123 28.4515 17.8668 28.3842C17.5843 28.3418 17.4496 28.211 17.4637 27.918C17.4797 27.5753 17.4731 27.2316 17.4646 26.8889C17.458 26.6337 17.5767 26.5111 17.8329 26.4733C18.2662 26.4098 18.6947 26.3204 19.1279 26.255C19.6055 26.1831 19.9163 25.9408 20.0886 25.4903C20.3024 24.9301 20.537 24.3763 20.7922 23.8327C20.9919 23.408 20.9551 23.0312 20.6811 22.6589C20.4249 22.3107 20.1838 21.9532 19.9229 21.6086C19.7524 21.3838 19.7505 21.1968 19.969 20.9996C20.2177 20.7757 20.4569 20.5408 20.6867 20.2975C20.8902 20.0819 21.0813 20.0921 21.3102 20.257C21.6625 20.5122 22.0279 20.7499 22.3839 20.9996C22.7644 21.2659 23.1506 21.2981 23.5838 21.1009C24.1264 20.854 24.682 20.6301 25.2434 20.4274C25.7162 20.257 25.9837 19.9557 26.0581 19.4711C26.1231 19.0472 26.2154 18.628 26.2804 18.2042C26.3199 17.9518 26.4518 17.844 26.7099 17.8495C27.0602 17.8578 27.4125 17.8633 27.7619 17.8477C28.0642 17.8338 28.1895 17.9757 28.2328 18.2484C28.2978 18.6594 28.3939 19.0666 28.4495 19.4784C28.5163 19.9723 28.7951 20.2607 29.2632 20.4311C29.8123 20.6311 30.3473 20.8688 30.8917 21.0844C31.0753 21.1581 31.2675 21.2115 31.4813 21.2815Z" stroke="url(#paint2_linear_897_721)" stroke-width="0.8" mask="url(#path-1-outside-1_897_721)"/>
<path d="M0.803722 16.5125L0.819774 16.5501C0.851639 16.6247 0.883388 16.7065 0.916484 16.7918C0.994023 16.9916 1.07895 17.2104 1.19006 17.401L1.19017 17.4012C1.62842 18.1512 2.32566 18.6304 3.20022 18.6922C3.64419 18.7236 3.98234 18.8101 4.23536 18.9823C4.48224 19.1503 4.6708 19.4157 4.78478 19.8542L4.78481 19.8543C4.83722 20.0555 4.86867 20.1885 4.86365 20.3075C4.85926 20.4116 4.82569 20.5147 4.7132 20.6437L4.71309 20.6438C4.45337 20.942 4.23849 21.2781 4.0464 21.6073C3.49661 22.5481 3.57693 23.7424 4.31081 24.5658M0.803722 16.5125L13.6672 25.0495C13.6732 25.0807 13.6791 25.112 13.685 25.1432C13.8057 25.78 13.9266 26.4178 14.0171 27.0597L14.2151 27.0317C14.2151 27.0317 14.2151 27.0317 14.2151 27.0318C14.3044 27.6645 13.8661 28.2212 13.2655 28.3266L13.2654 28.3266C12.6692 28.4311 12.0801 28.0228 11.9408 27.4091L11.9407 27.4089C11.9023 27.2387 11.873 27.0664 11.8447 26.9002C11.8404 26.875 11.8361 26.8499 11.8318 26.825C11.799 26.6335 11.7656 26.4501 11.7183 26.2722L11.7181 26.2715C11.7097 26.2391 11.6861 26.1927 11.6472 26.1455C11.6085 26.0986 11.5659 26.0646 11.5326 26.0479L11.6223 25.8691M0.803722 16.5125V16.4716M0.803722 16.5125V16.4716M4.31081 24.5658L4.46012 24.4327M4.31081 24.5658L4.46012 24.4327M4.31081 24.5658C4.81322 25.1296 5.36015 25.6592 5.93162 26.1521C6.77138 26.8773 8.01597 26.9577 8.9721 26.3981C9.38401 26.157 9.77403 25.8816 10.1525 25.607L10.1528 25.6068C10.2191 25.5585 10.2614 25.5462 10.2925 25.5442C10.3255 25.542 10.372 25.5496 10.4499 25.5866L10.4506 25.5869C10.6193 25.6661 10.7927 25.735 10.9594 25.8013C10.9753 25.8076 10.9912 25.8139 11.007 25.8202C11.1905 25.8933 11.3659 25.9645 11.5328 26.048L11.6223 25.8691M4.46012 24.4327C3.78745 23.678 3.71022 22.5788 4.21915 21.708L12.1358 27.3648C12.0987 27.2003 12.0703 27.0337 12.0419 26.8672C12.0049 26.65 11.968 26.4329 11.9116 26.2209C11.8763 26.0856 11.7497 25.9331 11.6223 25.8691M4.46012 24.4327C4.95602 24.9892 5.49657 25.5127 6.06225 26.0007C6.83354 26.6668 7.98443 26.7444 8.87109 26.2254C9.27395 25.9897 9.65727 25.7192 10.035 25.4451C10.2081 25.319 10.3467 25.3163 10.5356 25.4058C10.6985 25.4823 10.8663 25.549 11.034 25.6157C11.233 25.6948 11.4319 25.7739 11.6223 25.8691M5.03231 9.90013C5.10023 10.0098 5.11697 10.1943 5.07417 10.3168M5.03231 9.90013L4.8623 10.0055C4.87574 10.0272 4.89042 10.0689 4.8957 10.1231C4.90095 10.1769 4.89497 10.2233 4.88538 10.2508L4.88536 10.2508C4.75576 10.6219 4.60475 10.9853 4.42712 11.3333L4.42703 11.3335C4.41053 11.3659 4.37608 11.4086 4.32788 11.4479C4.27954 11.4873 4.23166 11.5115 4.19788 11.5202C4.01606 11.5668 3.82882 11.6006 3.63475 11.633C3.59514 11.6396 3.55511 11.6461 3.51479 11.6528C3.35988 11.6782 3.20056 11.7043 3.04344 11.7362C3.04341 11.7362 3.04338 11.7362 3.04335 11.7362L5.07417 10.3168M5.03231 9.90013C4.91669 9.71357 4.78783 9.5346 4.65894 9.35561C4.52335 9.1673 4.38773 8.97897 4.26753 8.78175M5.03231 9.90013L4.86228 10.0054M5.07417 10.3168C4.94206 10.6951 4.78761 11.0669 4.60526 11.4242L5.07417 10.3168ZM1.07908 13.7615C1.0675 13.7994 1.04703 13.8342 1.02658 13.869C1.01745 13.8846 1.00833 13.9001 1 13.9159C1.00372 14.7693 1.00372 15.62 1.00372 16.4716L1.07908 13.7615ZM1.07908 13.7615L0.887808 13.7031M1.07908 13.7615L0.887808 13.7031M4.26753 8.78175L4.86228 10.0054M4.26753 8.78175L4.09675 8.88584M4.26753 8.78175C3.68045 7.82052 3.77442 6.71218 4.53548 5.87888C4.99788 5.3736 5.49192 4.89207 6.00922 4.4407M4.26753 8.78175L4.09684 8.88599C4.09681 8.88594 4.09678 8.88589 4.09675 8.88584M4.26753 8.78175L4.86228 10.0054M4.86228 10.0054C4.75039 9.82488 4.62508 9.65085 4.49494 9.47012L4.48656 9.45849C4.35488 9.27559 4.21857 9.08571 4.09675 8.88584M12.0856 3.2017C12.0714 3.27717 12.0559 3.35257 12.0404 3.42797C11.9971 3.63925 11.9537 3.85055 11.9386 4.06333C11.9181 4.3612 11.7916 4.51105 11.4985 4.59877C11.3218 4.65187 11.1522 4.7271 10.9824 4.80239C10.8249 4.87221 10.6673 4.94209 10.5039 4.99441C10.3681 5.03826 10.1681 5.02456 10.0471 4.95329M12.0856 3.2017L11.889 3.16489M12.0856 3.2017L11.889 3.16473C11.889 3.16479 11.889 3.16484 11.889 3.16489M12.0856 3.2017C12.3452 1.8156 13.3184 1.01245 14.7521 1.00513C14.8616 1.00457 14.9712 1.00373 15.0808 1.0029C15.5034 0.999678 15.926 0.996456 16.3486 1.00879C17.5423 1.04351 18.4699 1.77448 18.7583 2.91571M11.889 3.16489C11.8762 3.23315 11.8616 3.30398 11.8467 3.37662C11.8026 3.5914 11.7552 3.82203 11.7391 4.04919L11.7391 4.04962C11.7306 4.17337 11.7019 4.23977 11.6666 4.28242C11.6304 4.32619 11.567 4.3695 11.4412 4.40717L11.441 4.40723C11.2569 4.46253 11.0823 4.53935 10.9198 4.61135L10.9051 4.61786C10.7446 4.68901 10.5959 4.75497 10.4429 4.80393L10.4425 4.80408C10.4046 4.81629 10.348 4.82284 10.2866 4.81771C10.2245 4.81253 10.176 4.797 10.1489 4.78112M11.889 3.16489L19.1785 4.06682M10.1489 4.78112L10.0471 4.95329M10.1489 4.78112C10.1488 4.78107 10.1487 4.78103 10.1486 4.78098L10.0471 4.95329M10.1489 4.78112C9.95782 4.6682 9.77415 4.54124 9.58348 4.40947L9.57537 4.40386C9.38384 4.27149 9.18516 4.13445 8.97565 4.01214L8.97556 4.01208C7.98072 3.43199 6.74531 3.53197 5.87762 4.29008M10.0471 4.95329C9.84988 4.83672 9.66118 4.70629 9.47241 4.57582C9.27647 4.44039 9.08047 4.30492 8.87481 4.18486C7.95187 3.64668 6.81028 3.74079 6.00922 4.4407M5.87762 4.29008C5.87766 4.29006 5.87769 4.29003 5.87772 4.29L6.00922 4.4407M5.87762 4.29008L6.00922 4.4407M5.87762 4.29008C5.35483 4.74626 4.85546 5.23298 4.38794 5.74386L4.3878 5.74401C3.56544 6.64443 3.46443 7.85039 4.09675 8.88584M18.7583 2.91571L18.9522 2.86637C18.9522 2.86648 18.9522 2.86659 18.9522 2.8667L18.7583 2.91571ZM18.7583 2.91571C18.857 3.30312 18.9221 3.70059 18.9807 4.09623M18.9807 4.09623L19.1785 4.06682M18.9807 4.09623L19.1785 4.06692C19.1785 4.06688 19.1785 4.06685 19.1785 4.06682M18.9807 4.09623C19.0179 4.34659 19.1072 4.5074 19.378 4.58781M19.1785 4.06682L21.9412 4.24699L21.8375 4.076C21.8375 4.07597 21.8376 4.07594 21.8376 4.07591M19.378 4.58781L19.4349 4.39608M19.378 4.58781L19.4349 4.39608C19.4349 4.39608 19.4349 4.39608 19.4349 4.39608M19.378 4.58781L19.4349 4.39608M19.4349 4.39608C19.7785 4.49807 20.1107 4.63927 20.4252 4.79746L20.4253 4.79748C20.5235 4.8469 20.5859 4.86066 20.6332 4.85847C20.6767 4.85645 20.732 4.8398 20.8134 4.77636L20.8137 4.77613C21.1407 4.52225 21.4849 4.28951 21.8376 4.07591M21.8376 4.07591C22.917 3.42118 24.136 3.50352 25.0923 4.33252L25.0924 4.33265C25.5996 4.77328 26.0695 5.25524 26.5265 5.73337L26.5267 5.73351C27.0406 6.27217 27.24 6.93035 27.2182 7.65023L27.2182 7.65042C27.1948 8.40045 26.8374 9.00255 26.393 9.51094L26.3929 9.51104C26.1937 9.73865 26.0799 9.93392 26.0494 10.118C26.0207 10.2914 26.0611 10.4859 26.2417 10.728M21.8376 4.07591L26.2417 10.728M26.2417 10.728C26.2417 10.728 26.2417 10.7281 26.2417 10.7281L26.0814 10.8477M26.2417 10.728C26.3781 10.9108 26.4412 11.1457 26.4895 11.3256C26.4936 11.3407 26.4975 11.3554 26.5014 11.3697M26.0814 10.8477C26.1937 10.9981 26.2474 11.1966 26.298 11.3839C26.3015 11.3968 26.305 11.4096 26.3085 11.4224M26.0814 10.8477C25.6711 10.2976 25.8265 9.85445 26.2424 9.37932M26.0814 10.8477L26.2424 9.37932M26.3085 11.4224L26.5014 11.3697M26.3085 11.4224L26.5014 11.3699C26.5014 11.3698 26.5014 11.3697 26.5014 11.3697M26.3085 11.4224C26.3661 11.6334 26.4945 11.7047 26.7039 11.733C27.1077 11.7879 27.5114 11.8573 27.9078 11.9487M26.5014 11.3697L28.8363 12.8496V12.8497C28.8431 13.3582 28.4893 13.8361 27.9603 13.9531L27.9601 13.9531C27.7248 14.005 27.4751 13.985 27.2637 13.9539L27.2632 13.9538C26.9036 13.9 26.542 13.836 26.1836 13.7726C25.9805 13.7366 25.7785 13.7009 25.5784 13.6672L25.5784 13.6672C25.3119 13.6223 25.0877 13.5232 24.9052 13.3636C24.7238 13.205 24.595 12.9967 24.5024 12.7511L24.5023 12.7509C24.2399 12.0521 23.9499 11.3619 23.6305 10.6865L23.6304 10.6862C23.516 10.4435 23.4538 10.2015 23.4681 9.95661C23.4826 9.70979 23.5739 9.47723 23.7386 9.25345L23.7386 9.25341C24.0704 8.80286 24.395 8.34475 24.7199 7.88588L24.72 7.88569C24.8735 7.66934 24.9067 7.55721 24.8987 7.47659C24.8906 7.39401 24.8339 7.28588 24.64 7.09367M27.9078 11.9487L27.9527 11.7538C27.9527 11.7538 27.9527 11.7538 27.9527 11.7538L27.9078 11.9487ZM27.9078 11.9487C28.3283 12.0455 28.6307 12.4412 28.6363 12.8523C28.6419 13.269 28.3507 13.6619 27.9171 13.7578C27.718 13.8017 27.4975 13.7862 27.2928 13.756C26.9353 13.7025 26.579 13.6394 26.2228 13.5764C26.0191 13.5403 25.8154 13.5043 25.6116 13.47C25.1399 13.3905 24.858 13.1274 24.6896 12.6806C24.4253 11.977 24.1332 11.2817 23.8113 10.601C23.6019 10.1569 23.6085 9.76764 23.8997 9.37201C24.2327 8.91972 24.5584 8.46012 24.8831 8.00144C25.1976 7.55828 25.1752 7.34265 24.7808 6.95158M24.7808 6.95158L24.64 7.09367M24.7808 6.95158L24.6399 7.09361C24.64 7.09363 24.64 7.09365 24.64 7.09367M24.7808 6.95158C24.738 6.90923 24.6952 6.86684 24.6525 6.82444C24.3732 6.54761 24.0934 6.27023 23.8094 5.99766M24.64 7.09367L23.3362 5.9392C23.2575 5.9327 23.1505 5.96199 22.9666 6.08589L22.9665 6.08593C22.9236 6.11479 22.8808 6.14359 22.838 6.17235C22.4104 6.45976 21.9877 6.74392 21.5781 7.04663L21.5781 7.04667C21.3265 7.2325 21.0683 7.33183 20.7955 7.34406C20.5253 7.35617 20.2588 7.282 19.9903 7.1516L19.9902 7.15158C19.3856 6.85785 18.7736 6.58471 18.1433 6.39474M23.8094 5.99766L23.6713 6.14231C23.6713 6.14228 23.6712 6.14225 23.6712 6.14223C23.6711 6.14214 23.671 6.14205 23.6709 6.14196L23.8094 5.99766ZM23.8094 5.99766C23.4736 5.67695 23.2456 5.65685 22.8548 5.92C22.8119 5.94889 22.769 5.97775 22.726 6.00661C22.2991 6.29361 21.8726 6.58027 21.4593 6.88579C21.009 7.21838 20.5763 7.21382 20.0776 6.97168C19.4701 6.67655 18.8467 6.39787 18.201 6.20325M18.201 6.20325L18.1433 6.39475C18.1433 6.39475 18.1433 6.39474 18.1433 6.39474M18.201 6.20325L18.1433 6.39474M18.201 6.20325L18.1433 6.39474M13.902 5.22386L13.7045 5.19268L13.902 5.22386ZM13.902 5.22386C13.8581 5.5019 13.7577 5.73645 13.5899 5.92681C13.4232 6.116 13.2015 6.24859 12.9357 6.34244C12.2345 6.59071 11.5433 6.87256 10.8686 7.18348L10.8684 7.18356C10.6154 7.29986 10.3649 7.36227 10.1123 7.34722C9.85782 7.33205 9.61771 7.23925 9.38509 7.0719L9.38478 7.07167C8.91973 6.73572 8.44309 6.41303 7.96371 6.08942C7.78104 5.96626 7.67268 5.93589 7.59243 5.94194C7.51331 5.94791 7.41414 5.99294 7.25893 6.1407C6.9143 6.46914 6.57424 6.80311 6.23874 7.14169L6.23854 7.1419C6.07726 7.30419 6.03156 7.40189 6.02581 7.47684C6.01997 7.55302 6.05109 7.65994 6.18587 7.85172L6.18609 7.85203C6.5153 8.32238 6.8453 8.79028 7.18515 9.25045L7.18516 9.25046M13.902 5.22386L7.18516 9.25046M26.2424 9.37932C26.6713 8.88865 26.9969 8.32946 27.0183 7.64417L26.2424 9.37932ZM0.803722 16.4716C0.803722 15.6199 0.803721 14.7697 0.800002 13.9168L0.799784 13.8668M0.803722 16.4716L0.799784 13.8668M7.97411 24.3144L7.97409 24.3144C7.78626 24.4409 7.67438 24.4716 7.59051 24.4642C7.50656 24.4568 7.40195 24.407 7.23934 24.2503L7.23933 24.2503C6.89551 23.9191 6.55364 23.586 6.21959 23.2471L6.21936 23.2468C6.07573 23.1016 6.03137 23.0061 6.02464 22.9323C6.01797 22.8592 6.04386 22.7591 6.15928 22.5937L6.1593 22.5936C6.49477 22.1127 6.83202 21.6359 7.18089 21.1679C7.1809 21.1679 7.1809 21.1679 7.1809 21.1679L7.02055 21.0483L7.97411 24.3144ZM7.97411 24.3144C8.47331 23.9781 8.96713 23.6354 9.46229 23.2917L7.97411 24.3144ZM5.24593 16.7224L5.2458 16.7223C4.68772 16.6398 4.13063 16.5398 3.57355 16.4341L3.57331 16.434C3.36576 16.3949 3.27142 16.341 3.22183 16.2837C3.1735 16.2278 3.13727 16.1333 3.13426 15.936C3.12777 15.4518 3.12777 14.9666 3.13426 14.4823L3.13426 14.4822C3.13678 14.2829 3.17637 14.1831 3.22995 14.1232C3.28548 14.061 3.38817 14.0054 3.59944 13.9686L3.59968 13.9685C3.6508 13.9595 3.70189 13.9506 3.75297 13.9416C4.2742 13.8499 4.79384 13.7586 5.31416 13.6748L5.24593 16.7224ZM5.24593 16.7224C5.54764 16.7672 5.80247 16.8695 6.00888 17.0448M5.24593 16.7224L6.00888 17.0448M7.18516 9.25046C7.35029 9.47408 7.44233 9.70671 7.45765 9.95353C7.47285 10.1985 7.41145 10.4407 7.29736 10.6833C6.97932 11.3607 6.68483 12.0498 6.42566 12.7482M7.18516 9.25046L6.42566 12.7482M0.799784 13.8668L0.823088 13.8226M0.799784 13.8668L0.823088 13.8226M0.823088 13.8226C0.833116 13.8036 0.848513 13.7773 0.859163 13.7591M0.823088 13.8226L0.859163 13.7591M6.00888 17.0448C6.21473 17.2196 6.35807 17.4548 6.45765 17.7416L6.00888 17.0448ZM6.42566 12.7482C6.33063 13.0049 6.19586 13.2172 6.00668 13.3763M6.42566 12.7482L6.00668 13.3763M6.00668 13.3763C5.81708 13.5359 5.58553 13.6314 5.31438 13.6748L6.00668 13.3763ZM0.859163 13.7591C0.863541 13.7516 0.867117 13.7455 0.869188 13.7418M0.859163 13.7591L0.869188 13.7418M0.869188 13.7418C0.881151 13.7206 0.88579 13.7097 0.887808 13.7031M0.869188 13.7418L0.887808 13.7031M16.224 2.90383L16.2211 3.10381C15.715 3.09653 15.2089 3.09653 14.7038 3.10381L14.7009 2.90383H16.224ZM14.0022 3.50597L14.1989 3.54218C14.1989 3.54223 14.1989 3.54228 14.1989 3.54234L14.0022 3.50597Z" fill="url(#paint3_linear_897_721)"/>
<path d="M0.803722 16.5125L0.819774 16.5501C0.851639 16.6247 0.883388 16.7065 0.916484 16.7918C0.994023 16.9916 1.07895 17.2104 1.19006 17.401L1.19017 17.4012C1.62842 18.1512 2.32566 18.6304 3.20022 18.6922C3.64419 18.7236 3.98234 18.8101 4.23536 18.9823C4.48224 19.1503 4.6708 19.4157 4.78478 19.8542L4.78481 19.8543C4.83722 20.0555 4.86867 20.1885 4.86365 20.3075C4.85926 20.4116 4.82569 20.5147 4.7132 20.6437L4.71309 20.6438C4.45337 20.942 4.23849 21.2781 4.0464 21.6073C3.49661 22.5481 3.57693 23.7424 4.31081 24.5658M0.803722 16.5125L13.6672 25.0495C13.6732 25.0807 13.6791 25.112 13.685 25.1432C13.8057 25.78 13.9266 26.4178 14.0171 27.0597L14.2151 27.0317C14.2151 27.0317 14.2151 27.0317 14.2151 27.0318C14.3044 27.6645 13.8661 28.2212 13.2655 28.3266L13.2654 28.3266C12.6692 28.4311 12.0801 28.0228 11.9408 27.4091L11.9407 27.4089C11.9023 27.2387 11.873 27.0664 11.8447 26.9002C11.8404 26.875 11.8361 26.8499 11.8318 26.825C11.799 26.6335 11.7656 26.4501 11.7183 26.2722L11.7181 26.2715C11.7097 26.2391 11.6861 26.1927 11.6472 26.1455C11.6085 26.0986 11.5659 26.0646 11.5326 26.0479L11.6223 25.8691M0.803722 16.5125V16.4716M0.803722 16.5125V16.4716M4.31081 24.5658L4.46012 24.4327M4.31081 24.5658L4.46012 24.4327M4.31081 24.5658C4.81322 25.1296 5.36015 25.6592 5.93162 26.1521C6.77138 26.8773 8.01597 26.9577 8.9721 26.3981C9.38401 26.157 9.77403 25.8816 10.1525 25.607L10.1528 25.6068C10.2191 25.5585 10.2614 25.5462 10.2925 25.5442C10.3255 25.542 10.372 25.5496 10.4499 25.5866L10.4506 25.5869C10.6193 25.6661 10.7927 25.735 10.9594 25.8013C10.9753 25.8076 10.9912 25.8139 11.007 25.8202C11.1905 25.8933 11.3659 25.9645 11.5328 26.048L11.6223 25.8691M4.46012 24.4327C3.78745 23.678 3.71022 22.5788 4.21915 21.708L12.1358 27.3648C12.0987 27.2003 12.0703 27.0337 12.0419 26.8672C12.0049 26.65 11.968 26.4329 11.9116 26.2209C11.8763 26.0856 11.7497 25.9331 11.6223 25.8691M4.46012 24.4327C4.95602 24.9892 5.49657 25.5127 6.06225 26.0007C6.83354 26.6668 7.98443 26.7444 8.87109 26.2254C9.27395 25.9897 9.65727 25.7192 10.035 25.4451C10.2081 25.319 10.3467 25.3163 10.5356 25.4058C10.6985 25.4823 10.8663 25.549 11.034 25.6157C11.233 25.6948 11.4319 25.7739 11.6223 25.8691M5.03231 9.90013C5.10023 10.0098 5.11697 10.1943 5.07417 10.3168M5.03231 9.90013L4.8623 10.0055C4.87574 10.0272 4.89042 10.0689 4.8957 10.1231C4.90095 10.1769 4.89497 10.2233 4.88538 10.2508L4.88536 10.2508C4.75576 10.6219 4.60475 10.9853 4.42712 11.3333L4.42703 11.3335C4.41053 11.3659 4.37608 11.4086 4.32788 11.4479C4.27954 11.4873 4.23166 11.5115 4.19788 11.5202C4.01606 11.5668 3.82882 11.6006 3.63475 11.633C3.59514 11.6396 3.55511 11.6461 3.51479 11.6528C3.35988 11.6782 3.20056 11.7043 3.04344 11.7362C3.04341 11.7362 3.04338 11.7362 3.04335 11.7362L5.07417 10.3168M5.03231 9.90013C4.91669 9.71357 4.78783 9.5346 4.65894 9.35561C4.52335 9.1673 4.38773 8.97897 4.26753 8.78175M5.03231 9.90013L4.86228 10.0054M5.07417 10.3168C4.94206 10.6951 4.78761 11.0669 4.60526 11.4242L5.07417 10.3168ZM1.07908 13.7615C1.0675 13.7994 1.04703 13.8342 1.02658 13.869C1.01745 13.8846 1.00833 13.9001 1 13.9159C1.00372 14.7693 1.00372 15.62 1.00372 16.4716L1.07908 13.7615ZM1.07908 13.7615L0.887808 13.7031M1.07908 13.7615L0.887808 13.7031M4.26753 8.78175L4.86228 10.0054M4.26753 8.78175L4.09675 8.88584M4.26753 8.78175C3.68045 7.82052 3.77442 6.71218 4.53548 5.87888C4.99788 5.3736 5.49192 4.89207 6.00922 4.4407M4.26753 8.78175L4.09684 8.88599C4.09681 8.88594 4.09678 8.88589 4.09675 8.88584M4.26753 8.78175L4.86228 10.0054M4.86228 10.0054C4.75039 9.82488 4.62508 9.65085 4.49494 9.47012L4.48656 9.45849C4.35488 9.27559 4.21857 9.08571 4.09675 8.88584M12.0856 3.2017C12.0714 3.27717 12.0559 3.35257 12.0404 3.42797C11.9971 3.63925 11.9537 3.85055 11.9386 4.06333C11.9181 4.3612 11.7916 4.51105 11.4985 4.59877C11.3218 4.65187 11.1522 4.7271 10.9824 4.80239C10.8249 4.87221 10.6673 4.94209 10.5039 4.99441C10.3681 5.03826 10.1681 5.02456 10.0471 4.95329M12.0856 3.2017L11.889 3.16489M12.0856 3.2017L11.889 3.16473C11.889 3.16479 11.889 3.16484 11.889 3.16489M12.0856 3.2017C12.3452 1.8156 13.3184 1.01245 14.7521 1.00513C14.8616 1.00457 14.9712 1.00373 15.0808 1.0029C15.5034 0.999678 15.926 0.996456 16.3486 1.00879C17.5423 1.04351 18.4699 1.77448 18.7583 2.91571M11.889 3.16489C11.8762 3.23315 11.8616 3.30398 11.8467 3.37662C11.8026 3.5914 11.7552 3.82203 11.7391 4.04919L11.7391 4.04962C11.7306 4.17337 11.7019 4.23977 11.6666 4.28242C11.6304 4.32619 11.567 4.3695 11.4412 4.40717L11.441 4.40723C11.2569 4.46253 11.0823 4.53935 10.9198 4.61135L10.9051 4.61786C10.7446 4.68901 10.5959 4.75497 10.4429 4.80393L10.4425 4.80408C10.4046 4.81629 10.348 4.82284 10.2866 4.81771C10.2245 4.81253 10.176 4.797 10.1489 4.78112M11.889 3.16489L19.1785 4.06682M10.1489 4.78112L10.0471 4.95329M10.1489 4.78112C10.1488 4.78107 10.1487 4.78103 10.1486 4.78098L10.0471 4.95329M10.1489 4.78112C9.95782 4.6682 9.77415 4.54124 9.58348 4.40947L9.57537 4.40386C9.38384 4.27149 9.18516 4.13445 8.97565 4.01214L8.97556 4.01208C7.98072 3.43199 6.74531 3.53197 5.87762 4.29008M10.0471 4.95329C9.84988 4.83672 9.66118 4.70629 9.47241 4.57582C9.27647 4.44039 9.08047 4.30492 8.87481 4.18486C7.95187 3.64668 6.81028 3.74079 6.00922 4.4407M5.87762 4.29008C5.87766 4.29006 5.87769 4.29003 5.87772 4.29L6.00922 4.4407M5.87762 4.29008L6.00922 4.4407M5.87762 4.29008C5.35483 4.74626 4.85546 5.23298 4.38794 5.74386L4.3878 5.74401C3.56544 6.64443 3.46443 7.85039 4.09675 8.88584M18.7583 2.91571L18.9522 2.86637C18.9522 2.86648 18.9522 2.86659 18.9522 2.8667L18.7583 2.91571ZM18.7583 2.91571C18.857 3.30312 18.9221 3.70059 18.9807 4.09623M18.9807 4.09623L19.1785 4.06682M18.9807 4.09623L19.1785 4.06692C19.1785 4.06688 19.1785 4.06685 19.1785 4.06682M18.9807 4.09623C19.0179 4.34659 19.1072 4.5074 19.378 4.58781M19.1785 4.06682L21.9412 4.24699L21.8375 4.076C21.8375 4.07597 21.8376 4.07594 21.8376 4.07591M19.378 4.58781L19.4349 4.39608M19.378 4.58781L19.4349 4.39608C19.4349 4.39608 19.4349 4.39608 19.4349 4.39608M19.378 4.58781L19.4349 4.39608M19.4349 4.39608C19.7785 4.49807 20.1107 4.63927 20.4252 4.79746L20.4253 4.79748C20.5235 4.8469 20.5859 4.86066 20.6332 4.85847C20.6767 4.85645 20.732 4.8398 20.8134 4.77636L20.8137 4.77613C21.1407 4.52225 21.4849 4.28951 21.8376 4.07591M21.8376 4.07591C22.917 3.42118 24.136 3.50352 25.0923 4.33252L25.0924 4.33265C25.5996 4.77328 26.0695 5.25524 26.5265 5.73337L26.5267 5.73351C27.0406 6.27217 27.24 6.93035 27.2182 7.65023L27.2182 7.65042C27.1948 8.40045 26.8374 9.00255 26.393 9.51094L26.3929 9.51104C26.1937 9.73865 26.0799 9.93392 26.0494 10.118C26.0207 10.2914 26.0611 10.4859 26.2417 10.728M21.8376 4.07591L26.2417 10.728M26.2417 10.728C26.2417 10.728 26.2417 10.7281 26.2417 10.7281L26.0814 10.8477M26.2417 10.728C26.3781 10.9108 26.4412 11.1457 26.4895 11.3256C26.4936 11.3407 26.4975 11.3554 26.5014 11.3697M26.0814 10.8477C26.1937 10.9981 26.2474 11.1966 26.298 11.3839C26.3015 11.3968 26.305 11.4096 26.3085 11.4224M26.0814 10.8477C25.6711 10.2976 25.8265 9.85445 26.2424 9.37932M26.0814 10.8477L26.2424 9.37932M26.3085 11.4224L26.5014 11.3697M26.3085 11.4224L26.5014 11.3699C26.5014 11.3698 26.5014 11.3697 26.5014 11.3697M26.3085 11.4224C26.3661 11.6334 26.4945 11.7047 26.7039 11.733C27.1077 11.7879 27.5114 11.8573 27.9078 11.9487M26.5014 11.3697L28.8363 12.8496V12.8497C28.8431 13.3582 28.4893 13.8361 27.9603 13.9531L27.9601 13.9531C27.7248 14.005 27.4751 13.985 27.2637 13.9539L27.2632 13.9538C26.9036 13.9 26.542 13.836 26.1836 13.7726C25.9805 13.7366 25.7785 13.7009 25.5784 13.6672L25.5784 13.6672C25.3119 13.6223 25.0877 13.5232 24.9052 13.3636C24.7238 13.205 24.595 12.9967 24.5024 12.7511L24.5023 12.7509C24.2399 12.0521 23.9499 11.3619 23.6305 10.6865L23.6304 10.6862C23.516 10.4435 23.4538 10.2015 23.4681 9.95661C23.4826 9.70979 23.5739 9.47723 23.7386 9.25345L23.7386 9.25341C24.0704 8.80286 24.395 8.34475 24.7199 7.88588L24.72 7.88569C24.8735 7.66934 24.9067 7.55721 24.8987 7.47659C24.8906 7.39401 24.8339 7.28588 24.64 7.09367M27.9078 11.9487L27.9527 11.7538C27.9527 11.7538 27.9527 11.7538 27.9527 11.7538L27.9078 11.9487ZM27.9078 11.9487C28.3283 12.0455 28.6307 12.4412 28.6363 12.8523C28.6419 13.269 28.3507 13.6619 27.9171 13.7578C27.718 13.8017 27.4975 13.7862 27.2928 13.756C26.9353 13.7025 26.579 13.6394 26.2228 13.5764C26.0191 13.5403 25.8154 13.5043 25.6116 13.47C25.1399 13.3905 24.858 13.1274 24.6896 12.6806C24.4253 11.977 24.1332 11.2817 23.8113 10.601C23.6019 10.1569 23.6085 9.76764 23.8997 9.37201C24.2327 8.91972 24.5584 8.46012 24.8831 8.00144C25.1976 7.55828 25.1752 7.34265 24.7808 6.95158M24.7808 6.95158L24.64 7.09367M24.7808 6.95158L24.6399 7.09361C24.64 7.09363 24.64 7.09365 24.64 7.09367M24.7808 6.95158C24.738 6.90923 24.6952 6.86684 24.6525 6.82444C24.3732 6.54761 24.0934 6.27023 23.8094 5.99766M24.64 7.09367L23.3362 5.9392C23.2575 5.9327 23.1505 5.96199 22.9666 6.08589L22.9665 6.08593C22.9236 6.11479 22.8808 6.14359 22.838 6.17235C22.4104 6.45976 21.9877 6.74392 21.5781 7.04663L21.5781 7.04667C21.3265 7.2325 21.0683 7.33183 20.7955 7.34406C20.5253 7.35617 20.2588 7.282 19.9903 7.1516L19.9902 7.15158C19.3856 6.85785 18.7736 6.58471 18.1433 6.39474M23.8094 5.99766L23.6713 6.14231C23.6713 6.14228 23.6712 6.14225 23.6712 6.14223C23.6711 6.14214 23.671 6.14205 23.6709 6.14196L23.8094 5.99766ZM23.8094 5.99766C23.4736 5.67695 23.2456 5.65685 22.8548 5.92C22.8119 5.94889 22.769 5.97775 22.726 6.00661C22.2991 6.29361 21.8726 6.58027 21.4593 6.88579C21.009 7.21838 20.5763 7.21382 20.0776 6.97168C19.4701 6.67655 18.8467 6.39787 18.201 6.20325M18.201 6.20325L18.1433 6.39475C18.1433 6.39475 18.1433 6.39474 18.1433 6.39474M18.201 6.20325L18.1433 6.39474M18.201 6.20325L18.1433 6.39474M13.902 5.22386L13.7045 5.19268L13.902 5.22386ZM13.902 5.22386C13.8581 5.5019 13.7577 5.73645 13.5899 5.92681C13.4232 6.116 13.2015 6.24859 12.9357 6.34244C12.2345 6.59071 11.5433 6.87256 10.8686 7.18348L10.8684 7.18356C10.6154 7.29986 10.3649 7.36227 10.1123 7.34722C9.85782 7.33205 9.61771 7.23925 9.38509 7.0719L9.38478 7.07167C8.91973 6.73572 8.44309 6.41303 7.96371 6.08942C7.78104 5.96626 7.67268 5.93589 7.59243 5.94194C7.51331 5.94791 7.41414 5.99294 7.25893 6.1407C6.9143 6.46914 6.57424 6.80311 6.23874 7.14169L6.23854 7.1419C6.07726 7.30419 6.03156 7.40189 6.02581 7.47684C6.01997 7.55302 6.05109 7.65994 6.18587 7.85172L6.18609 7.85203C6.5153 8.32238 6.8453 8.79028 7.18515 9.25045L7.18516 9.25046M13.902 5.22386L7.18516 9.25046M26.2424 9.37932C26.6713 8.88865 26.9969 8.32946 27.0183 7.64417L26.2424 9.37932ZM0.803722 16.4716C0.803722 15.6199 0.803721 14.7697 0.800002 13.9168L0.799784 13.8668M0.803722 16.4716L0.799784 13.8668M7.97411 24.3144L7.97409 24.3144C7.78626 24.4409 7.67438 24.4716 7.59051 24.4642C7.50656 24.4568 7.40195 24.407 7.23934 24.2503L7.23933 24.2503C6.89551 23.9191 6.55364 23.586 6.21959 23.2471L6.21936 23.2468C6.07573 23.1016 6.03137 23.0061 6.02464 22.9323C6.01797 22.8592 6.04386 22.7591 6.15928 22.5937L6.1593 22.5936C6.49477 22.1127 6.83202 21.6359 7.18089 21.1679C7.1809 21.1679 7.1809 21.1679 7.1809 21.1679L7.02055 21.0483L7.97411 24.3144ZM7.97411 24.3144C8.47331 23.9781 8.96713 23.6354 9.46229 23.2917L7.97411 24.3144ZM5.24593 16.7224L5.2458 16.7223C4.68772 16.6398 4.13063 16.5398 3.57355 16.4341L3.57331 16.434C3.36576 16.3949 3.27142 16.341 3.22183 16.2837C3.1735 16.2278 3.13727 16.1333 3.13426 15.936C3.12777 15.4518 3.12777 14.9666 3.13426 14.4823L3.13426 14.4822C3.13678 14.2829 3.17637 14.1831 3.22995 14.1232C3.28548 14.061 3.38817 14.0054 3.59944 13.9686L3.59968 13.9685C3.6508 13.9595 3.70189 13.9506 3.75297 13.9416C4.2742 13.8499 4.79384 13.7586 5.31416 13.6748L5.24593 16.7224ZM5.24593 16.7224C5.54764 16.7672 5.80247 16.8695 6.00888 17.0448M5.24593 16.7224L6.00888 17.0448M7.18516 9.25046C7.35029 9.47408 7.44233 9.70671 7.45765 9.95353C7.47285 10.1985 7.41145 10.4407 7.29736 10.6833C6.97932 11.3607 6.68483 12.0498 6.42566 12.7482M7.18516 9.25046L6.42566 12.7482M0.799784 13.8668L0.823088 13.8226M0.799784 13.8668L0.823088 13.8226M0.823088 13.8226C0.833116 13.8036 0.848513 13.7773 0.859163 13.7591M0.823088 13.8226L0.859163 13.7591M6.00888 17.0448C6.21473 17.2196 6.35807 17.4548 6.45765 17.7416L6.00888 17.0448ZM6.42566 12.7482C6.33063 13.0049 6.19586 13.2172 6.00668 13.3763M6.42566 12.7482L6.00668 13.3763M6.00668 13.3763C5.81708 13.5359 5.58553 13.6314 5.31438 13.6748L6.00668 13.3763ZM0.859163 13.7591C0.863541 13.7516 0.867117 13.7455 0.869188 13.7418M0.859163 13.7591L0.869188 13.7418M0.869188 13.7418C0.881151 13.7206 0.88579 13.7097 0.887808 13.7031M0.869188 13.7418L0.887808 13.7031M16.224 2.90383L16.2211 3.10381C15.715 3.09653 15.2089 3.09653 14.7038 3.10381L14.7009 2.90383H16.224ZM14.0022 3.50597L14.1989 3.54218C14.1989 3.54223 14.1989 3.54228 14.1989 3.54234L14.0022 3.50597Z" stroke="url(#paint4_linear_897_721)" stroke-width="0.4"/>
<path d="M0.803722 16.5125L0.819774 16.5501C0.851639 16.6247 0.883388 16.7065 0.916484 16.7918C0.994023 16.9916 1.07895 17.2104 1.19006 17.401L1.19017 17.4012C1.62842 18.1512 2.32566 18.6304 3.20022 18.6922C3.64419 18.7236 3.98234 18.8101 4.23536 18.9823C4.48224 19.1503 4.6708 19.4157 4.78478 19.8542L4.78481 19.8543C4.83722 20.0555 4.86867 20.1885 4.86365 20.3075C4.85926 20.4116 4.82569 20.5147 4.7132 20.6437L4.71309 20.6438C4.45337 20.942 4.23849 21.2781 4.0464 21.6073C3.49661 22.5481 3.57693 23.7424 4.31081 24.5658M0.803722 16.5125L13.6672 25.0495C13.6732 25.0807 13.6791 25.112 13.685 25.1432C13.8057 25.78 13.9266 26.4178 14.0171 27.0597L14.2151 27.0317C14.2151 27.0317 14.2151 27.0317 14.2151 27.0318C14.3044 27.6645 13.8661 28.2212 13.2655 28.3266L13.2654 28.3266C12.6692 28.4311 12.0801 28.0228 11.9408 27.4091L11.9407 27.4089C11.9023 27.2387 11.873 27.0664 11.8447 26.9002C11.8404 26.875 11.8361 26.8499 11.8318 26.825C11.799 26.6335 11.7656 26.4501 11.7183 26.2722L11.7181 26.2715C11.7097 26.2391 11.6861 26.1927 11.6472 26.1455C11.6085 26.0986 11.5659 26.0646 11.5326 26.0479L11.6223 25.8691M0.803722 16.5125V16.4716M0.803722 16.5125V16.4716M4.31081 24.5658L4.46012 24.4327M4.31081 24.5658L4.46012 24.4327M4.31081 24.5658C4.81322 25.1296 5.36015 25.6592 5.93162 26.1521C6.77138 26.8773 8.01597 26.9577 8.9721 26.3981C9.38401 26.157 9.77403 25.8816 10.1525 25.607L10.1528 25.6068C10.2191 25.5585 10.2614 25.5462 10.2925 25.5442C10.3255 25.542 10.372 25.5496 10.4499 25.5866L10.4506 25.5869C10.6193 25.6661 10.7927 25.735 10.9594 25.8013C10.9753 25.8076 10.9912 25.8139 11.007 25.8202C11.1905 25.8933 11.3659 25.9645 11.5328 26.048L11.6223 25.8691M4.46012 24.4327C3.78745 23.678 3.71022 22.5788 4.21915 21.708L12.1358 27.3648C12.0987 27.2003 12.0703 27.0337 12.0419 26.8672C12.0049 26.65 11.968 26.4329 11.9116 26.2209C11.8763 26.0856 11.7497 25.9331 11.6223 25.8691M4.46012 24.4327C4.95602 24.9892 5.49657 25.5127 6.06225 26.0007C6.83354 26.6668 7.98443 26.7444 8.87109 26.2254C9.27395 25.9897 9.65727 25.7192 10.035 25.4451C10.2081 25.319 10.3467 25.3163 10.5356 25.4058C10.6985 25.4823 10.8663 25.549 11.034 25.6157C11.233 25.6948 11.4319 25.7739 11.6223 25.8691M5.03231 9.90013C5.10023 10.0098 5.11697 10.1943 5.07417 10.3168M5.03231 9.90013L4.8623 10.0055C4.87574 10.0272 4.89042 10.0689 4.8957 10.1231C4.90095 10.1769 4.89497 10.2233 4.88538 10.2508L4.88536 10.2508C4.75576 10.6219 4.60475 10.9853 4.42712 11.3333L4.42703 11.3335C4.41053 11.3659 4.37608 11.4086 4.32788 11.4479C4.27954 11.4873 4.23166 11.5115 4.19788 11.5202C4.01606 11.5668 3.82882 11.6006 3.63475 11.633C3.59514 11.6396 3.55511 11.6461 3.51479 11.6528C3.35988 11.6782 3.20056 11.7043 3.04344 11.7362C3.04341 11.7362 3.04338 11.7362 3.04335 11.7362L5.07417 10.3168M5.03231 9.90013C4.91669 9.71357 4.78783 9.5346 4.65894 9.35561C4.52335 9.1673 4.38773 8.97897 4.26753 8.78175M5.03231 9.90013L4.86228 10.0054M5.07417 10.3168C4.94206 10.6951 4.78761 11.0669 4.60526 11.4242L5.07417 10.3168ZM1.07908 13.7615C1.0675 13.7994 1.04703 13.8342 1.02658 13.869C1.01745 13.8846 1.00833 13.9001 1 13.9159C1.00372 14.7693 1.00372 15.62 1.00372 16.4716L1.07908 13.7615ZM1.07908 13.7615L0.887808 13.7031M1.07908 13.7615L0.887808 13.7031M4.26753 8.78175L4.86228 10.0054M4.26753 8.78175L4.09675 8.88584M4.26753 8.78175C3.68045 7.82052 3.77442 6.71218 4.53548 5.87888C4.99788 5.3736 5.49192 4.89207 6.00922 4.4407M4.26753 8.78175L4.09684 8.88599C4.09681 8.88594 4.09678 8.88589 4.09675 8.88584M4.26753 8.78175L4.86228 10.0054M4.86228 10.0054C4.75039 9.82488 4.62508 9.65085 4.49494 9.47012L4.48656 9.45849C4.35488 9.27559 4.21857 9.08571 4.09675 8.88584M12.0856 3.2017C12.0714 3.27717 12.0559 3.35257 12.0404 3.42797C11.9971 3.63925 11.9537 3.85055 11.9386 4.06333C11.9181 4.3612 11.7916 4.51105 11.4985 4.59877C11.3218 4.65187 11.1522 4.7271 10.9824 4.80239C10.8249 4.87221 10.6673 4.94209 10.5039 4.99441C10.3681 5.03826 10.1681 5.02456 10.0471 4.95329M12.0856 3.2017L11.889 3.16489M12.0856 3.2017L11.889 3.16473C11.889 3.16479 11.889 3.16484 11.889 3.16489M12.0856 3.2017C12.3452 1.8156 13.3184 1.01245 14.7521 1.00513C14.8616 1.00457 14.9712 1.00373 15.0808 1.0029C15.5034 0.999678 15.926 0.996456 16.3486 1.00879C17.5423 1.04351 18.4699 1.77448 18.7583 2.91571M11.889 3.16489C11.8762 3.23315 11.8616 3.30398 11.8467 3.37662C11.8026 3.5914 11.7552 3.82203 11.7391 4.04919L11.7391 4.04962C11.7306 4.17337 11.7019 4.23977 11.6666 4.28242C11.6304 4.32619 11.567 4.3695 11.4412 4.40717L11.441 4.40723C11.2569 4.46253 11.0823 4.53935 10.9198 4.61135L10.9051 4.61786C10.7446 4.68901 10.5959 4.75497 10.4429 4.80393L10.4425 4.80408C10.4046 4.81629 10.348 4.82284 10.2866 4.81771C10.2245 4.81253 10.176 4.797 10.1489 4.78112M11.889 3.16489L19.1785 4.06682M10.1489 4.78112L10.0471 4.95329M10.1489 4.78112C10.1488 4.78107 10.1487 4.78103 10.1486 4.78098L10.0471 4.95329M10.1489 4.78112C9.95782 4.6682 9.77415 4.54124 9.58348 4.40947L9.57537 4.40386C9.38384 4.27149 9.18516 4.13445 8.97565 4.01214L8.97556 4.01208C7.98072 3.43199 6.74531 3.53197 5.87762 4.29008M10.0471 4.95329C9.84988 4.83672 9.66118 4.70629 9.47241 4.57582C9.27647 4.44039 9.08047 4.30492 8.87481 4.18486C7.95187 3.64668 6.81028 3.74079 6.00922 4.4407M5.87762 4.29008C5.87766 4.29006 5.87769 4.29003 5.87772 4.29L6.00922 4.4407M5.87762 4.29008L6.00922 4.4407M5.87762 4.29008C5.35483 4.74626 4.85546 5.23298 4.38794 5.74386L4.3878 5.74401C3.56544 6.64443 3.46443 7.85039 4.09675 8.88584M18.7583 2.91571L18.9522 2.86637C18.9522 2.86648 18.9522 2.86659 18.9522 2.8667L18.7583 2.91571ZM18.7583 2.91571C18.857 3.30312 18.9221 3.70059 18.9807 4.09623M18.9807 4.09623L19.1785 4.06682M18.9807 4.09623L19.1785 4.06692C19.1785 4.06688 19.1785 4.06685 19.1785 4.06682M18.9807 4.09623C19.0179 4.34659 19.1072 4.5074 19.378 4.58781M19.1785 4.06682L21.9412 4.24699L21.8375 4.076C21.8375 4.07597 21.8376 4.07594 21.8376 4.07591M19.378 4.58781L19.4349 4.39608M19.378 4.58781L19.4349 4.39608C19.4349 4.39608 19.4349 4.39608 19.4349 4.39608M19.378 4.58781L19.4349 4.39608M19.4349 4.39608C19.7785 4.49807 20.1107 4.63927 20.4252 4.79746L20.4253 4.79748C20.5235 4.8469 20.5859 4.86066 20.6332 4.85847C20.6767 4.85645 20.732 4.8398 20.8134 4.77636L20.8137 4.77613C21.1407 4.52225 21.4849 4.28951 21.8376 4.07591M21.8376 4.07591C22.917 3.42118 24.136 3.50352 25.0923 4.33252L25.0924 4.33265C25.5996 4.77328 26.0695 5.25524 26.5265 5.73337L26.5267 5.73351C27.0406 6.27217 27.24 6.93035 27.2182 7.65023L27.2182 7.65042C27.1948 8.40045 26.8374 9.00255 26.393 9.51094L26.3929 9.51104C26.1937 9.73865 26.0799 9.93392 26.0494 10.118C26.0207 10.2914 26.0611 10.4859 26.2417 10.728M21.8376 4.07591L26.2417 10.728M26.2417 10.728C26.2417 10.728 26.2417 10.7281 26.2417 10.7281L26.0814 10.8477M26.2417 10.728C26.3781 10.9108 26.4412 11.1457 26.4895 11.3256C26.4936 11.3407 26.4975 11.3554 26.5014 11.3697M26.0814 10.8477C26.1937 10.9981 26.2474 11.1966 26.298 11.3839C26.3015 11.3968 26.305 11.4096 26.3085 11.4224M26.0814 10.8477C25.6711 10.2976 25.8265 9.85445 26.2424 9.37932M26.0814 10.8477L26.2424 9.37932M26.3085 11.4224L26.5014 11.3697M26.3085 11.4224L26.5014 11.3699C26.5014 11.3698 26.5014 11.3697 26.5014 11.3697M26.3085 11.4224C26.3661 11.6334 26.4945 11.7047 26.7039 11.733C27.1077 11.7879 27.5114 11.8573 27.9078 11.9487M26.5014 11.3697L28.8363 12.8496V12.8497C28.8431 13.3582 28.4893 13.8361 27.9603 13.9531L27.9601 13.9531C27.7248 14.005 27.4751 13.985 27.2637 13.9539L27.2632 13.9538C26.9036 13.9 26.542 13.836 26.1836 13.7726C25.9805 13.7366 25.7785 13.7009 25.5784 13.6672L25.5784 13.6672C25.3119 13.6223 25.0877 13.5232 24.9052 13.3636C24.7238 13.205 24.595 12.9967 24.5024 12.7511L24.5023 12.7509C24.2399 12.0521 23.9499 11.3619 23.6305 10.6865L23.6304 10.6862C23.516 10.4435 23.4538 10.2015 23.4681 9.95661C23.4826 9.70979 23.5739 9.47723 23.7386 9.25345L23.7386 9.25341C24.0704 8.80286 24.395 8.34475 24.7199 7.88588L24.72 7.88569C24.8735 7.66934 24.9067 7.55721 24.8987 7.47659C24.8906 7.39401 24.8339 7.28588 24.64 7.09367M27.9078 11.9487L27.9527 11.7538C27.9527 11.7538 27.9527 11.7538 27.9527 11.7538L27.9078 11.9487ZM27.9078 11.9487C28.3283 12.0455 28.6307 12.4412 28.6363 12.8523C28.6419 13.269 28.3507 13.6619 27.9171 13.7578C27.718 13.8017 27.4975 13.7862 27.2928 13.756C26.9353 13.7025 26.579 13.6394 26.2228 13.5764C26.0191 13.5403 25.8154 13.5043 25.6116 13.47C25.1399 13.3905 24.858 13.1274 24.6896 12.6806C24.4253 11.977 24.1332 11.2817 23.8113 10.601C23.6019 10.1569 23.6085 9.76764 23.8997 9.37201C24.2327 8.91972 24.5584 8.46012 24.8831 8.00144C25.1976 7.55828 25.1752 7.34265 24.7808 6.95158M24.7808 6.95158L24.64 7.09367M24.7808 6.95158L24.6399 7.09361C24.64 7.09363 24.64 7.09365 24.64 7.09367M24.7808 6.95158C24.738 6.90923 24.6952 6.86684 24.6525 6.82444C24.3732 6.54761 24.0934 6.27023 23.8094 5.99766M24.64 7.09367L23.3362 5.9392C23.2575 5.9327 23.1505 5.96199 22.9666 6.08589L22.9665 6.08593C22.9236 6.11479 22.8808 6.14359 22.838 6.17235C22.4104 6.45976 21.9877 6.74392 21.5781 7.04663L21.5781 7.04667C21.3265 7.2325 21.0683 7.33183 20.7955 7.34406C20.5253 7.35617 20.2588 7.282 19.9903 7.1516L19.9902 7.15158C19.3856 6.85785 18.7736 6.58471 18.1433 6.39474M23.8094 5.99766L23.6713 6.14231C23.6713 6.14228 23.6712 6.14225 23.6712 6.14223C23.6711 6.14214 23.671 6.14205 23.6709 6.14196L23.8094 5.99766ZM23.8094 5.99766C23.4736 5.67695 23.2456 5.65685 22.8548 5.92C22.8119 5.94889 22.769 5.97775 22.726 6.00661C22.2991 6.29361 21.8726 6.58027 21.4593 6.88579C21.009 7.21838 20.5763 7.21382 20.0776 6.97168C19.4701 6.67655 18.8467 6.39787 18.201 6.20325M18.201 6.20325L18.1433 6.39475C18.1433 6.39475 18.1433 6.39474 18.1433 6.39474M18.201 6.20325L18.1433 6.39474M18.201 6.20325L18.1433 6.39474M13.902 5.22386L13.7045 5.19268L13.902 5.22386ZM13.902 5.22386C13.8581 5.5019 13.7577 5.73645 13.5899 5.92681C13.4232 6.116 13.2015 6.24859 12.9357 6.34244C12.2345 6.59071 11.5433 6.87256 10.8686 7.18348L10.8684 7.18356C10.6154 7.29986 10.3649 7.36227 10.1123 7.34722C9.85782 7.33205 9.61771 7.23925 9.38509 7.0719L9.38478 7.07167C8.91973 6.73572 8.44309 6.41303 7.96371 6.08942C7.78104 5.96626 7.67268 5.93589 7.59243 5.94194C7.51331 5.94791 7.41414 5.99294 7.25893 6.1407C6.9143 6.46914 6.57424 6.80311 6.23874 7.14169L6.23854 7.1419C6.07726 7.30419 6.03156 7.40189 6.02581 7.47684C6.01997 7.55302 6.05109 7.65994 6.18587 7.85172L6.18609 7.85203C6.5153 8.32238 6.8453 8.79028 7.18515 9.25045L7.18516 9.25046M13.902 5.22386L7.18516 9.25046M26.2424 9.37932C26.6713 8.88865 26.9969 8.32946 27.0183 7.64417L26.2424 9.37932ZM0.803722 16.4716C0.803722 15.6199 0.803721 14.7697 0.800002 13.9168L0.799784 13.8668M0.803722 16.4716L0.799784 13.8668M7.97411 24.3144L7.97409 24.3144C7.78626 24.4409 7.67438 24.4716 7.59051 24.4642C7.50656 24.4568 7.40195 24.407 7.23934 24.2503L7.23933 24.2503C6.89551 23.9191 6.55364 23.586 6.21959 23.2471L6.21936 23.2468C6.07573 23.1016 6.03137 23.0061 6.02464 22.9323C6.01797 22.8592 6.04386 22.7591 6.15928 22.5937L6.1593 22.5936C6.49477 22.1127 6.83202 21.6359 7.18089 21.1679C7.1809 21.1679 7.1809 21.1679 7.1809 21.1679L7.02055 21.0483L7.97411 24.3144ZM7.97411 24.3144C8.47331 23.9781 8.96713 23.6354 9.46229 23.2917L7.97411 24.3144ZM5.24593 16.7224L5.2458 16.7223C4.68772 16.6398 4.13063 16.5398 3.57355 16.4341L3.57331 16.434C3.36576 16.3949 3.27142 16.341 3.22183 16.2837C3.1735 16.2278 3.13727 16.1333 3.13426 15.936C3.12777 15.4518 3.12777 14.9666 3.13426 14.4823L3.13426 14.4822C3.13678 14.2829 3.17637 14.1831 3.22995 14.1232C3.28548 14.061 3.38817 14.0054 3.59944 13.9686L3.59968 13.9685C3.6508 13.9595 3.70189 13.9506 3.75297 13.9416C4.2742 13.8499 4.79384 13.7586 5.31416 13.6748L5.24593 16.7224ZM5.24593 16.7224C5.54764 16.7672 5.80247 16.8695 6.00888 17.0448M5.24593 16.7224L6.00888 17.0448M7.18516 9.25046C7.35029 9.47408 7.44233 9.70671 7.45765 9.95353C7.47285 10.1985 7.41145 10.4407 7.29736 10.6833C6.97932 11.3607 6.68483 12.0498 6.42566 12.7482M7.18516 9.25046L6.42566 12.7482M0.799784 13.8668L0.823088 13.8226M0.799784 13.8668L0.823088 13.8226M0.823088 13.8226C0.833116 13.8036 0.848513 13.7773 0.859163 13.7591M0.823088 13.8226L0.859163 13.7591M6.00888 17.0448C6.21473 17.2196 6.35807 17.4548 6.45765 17.7416L6.00888 17.0448ZM6.42566 12.7482C6.33063 13.0049 6.19586 13.2172 6.00668 13.3763M6.42566 12.7482L6.00668 13.3763M6.00668 13.3763C5.81708 13.5359 5.58553 13.6314 5.31438 13.6748L6.00668 13.3763ZM0.859163 13.7591C0.863541 13.7516 0.867117 13.7455 0.869188 13.7418M0.859163 13.7591L0.869188 13.7418M0.869188 13.7418C0.881151 13.7206 0.88579 13.7097 0.887808 13.7031M0.869188 13.7418L0.887808 13.7031M16.224 2.90383L16.2211 3.10381C15.715 3.09653 15.2089 3.09653 14.7038 3.10381L14.7009 2.90383H16.224ZM14.0022 3.50597L14.1989 3.54218C14.1989 3.54223 14.1989 3.54228 14.1989 3.54234L14.0022 3.50597Z" stroke="url(#paint5_linear_897_721)" stroke-width="0.4"/>
<path d="M15.1538 8.94281L15.1433 8.94292C11.1514 8.98302 8.06319 12.3257 8.42902 16.2476L8.42903 16.2476C8.74049 19.5816 11.7417 22.2651 15.1177 22.2355L15.1538 8.94281ZM15.1538 8.94281L15.1643 8.94381M15.1538 8.94281L15.1643 8.94381M15.1643 8.94381C15.2634 8.95328 15.364 8.96209 15.4654 8.97098M15.1643 8.94381L15.4654 8.97098M16.3418 21.1098L16.3418 21.1097C16.365 20.4977 15.8797 19.9603 15.2214 19.9281L16.3418 21.1098ZM16.3418 21.1098C16.3174 21.745 15.7656 22.23 15.1177 22.2355L16.3418 21.1098ZM11.0534 14.073L11.0534 14.073C11.6841 12.4087 13.3112 11.2985 15.1461 11.2914C17.4683 11.2825 19.3601 13.0056 19.5425 15.2791L19.5425 15.2793C19.5449 15.3086 19.5471 15.3391 19.5494 15.3706C19.564 15.5703 19.5814 15.8101 19.6628 16.0237C19.8695 16.568 20.4462 16.8383 20.989 16.7234L20.9892 16.7234C21.5322 16.6076 21.9145 16.1279 21.9257 15.5658M11.0534 14.073L21.9257 15.5658M11.0534 14.073C10.4018 15.7926 10.8889 17.6703 12.2941 18.8619M11.0534 14.073L12.2941 18.8619M21.9257 15.5658C21.9893 12.4153 19.4089 9.47264 16.2195 9.0486M21.9257 15.5658L16.2195 9.0486M16.2195 9.0486C15.9694 9.01515 15.7148 8.99284 15.4654 8.97098M16.2195 9.0486L15.4654 8.97098M12.2941 18.8619C13.1281 19.5689 14.1131 19.8731 15.2213 19.9281L12.2941 18.8619Z" fill="url(#paint6_linear_897_721)"/>
<path d="M15.1538 8.94281L15.1433 8.94292C11.1514 8.98302 8.06319 12.3257 8.42902 16.2476L8.42903 16.2476C8.74049 19.5816 11.7417 22.2651 15.1177 22.2355L15.1538 8.94281ZM15.1538 8.94281L15.1643 8.94381M15.1538 8.94281L15.1643 8.94381M15.1643 8.94381C15.2634 8.95328 15.364 8.96209 15.4654 8.97098M15.1643 8.94381L15.4654 8.97098M16.3418 21.1098L16.3418 21.1097C16.365 20.4977 15.8797 19.9603 15.2214 19.9281L16.3418 21.1098ZM16.3418 21.1098C16.3174 21.745 15.7656 22.23 15.1177 22.2355L16.3418 21.1098ZM11.0534 14.073L11.0534 14.073C11.6841 12.4087 13.3112 11.2985 15.1461 11.2914C17.4683 11.2825 19.3601 13.0056 19.5425 15.2791L19.5425 15.2793C19.5449 15.3086 19.5471 15.3391 19.5494 15.3706C19.564 15.5703 19.5814 15.8101 19.6628 16.0237C19.8695 16.568 20.4462 16.8383 20.989 16.7234L20.9892 16.7234C21.5322 16.6076 21.9145 16.1279 21.9257 15.5658M11.0534 14.073L21.9257 15.5658M11.0534 14.073C10.4018 15.7926 10.8889 17.6703 12.2941 18.8619M11.0534 14.073L12.2941 18.8619M21.9257 15.5658C21.9893 12.4153 19.4089 9.47264 16.2195 9.0486M21.9257 15.5658L16.2195 9.0486M16.2195 9.0486C15.9694 9.01515 15.7148 8.99284 15.4654 8.97098M16.2195 9.0486L15.4654 8.97098M12.2941 18.8619C13.1281 19.5689 14.1131 19.8731 15.2213 19.9281L12.2941 18.8619Z" stroke="url(#paint7_linear_897_721)" stroke-width="0.4"/>
<path d="M15.1538 8.94281L15.1433 8.94292C11.1514 8.98302 8.06319 12.3257 8.42902 16.2476L8.42903 16.2476C8.74049 19.5816 11.7417 22.2651 15.1177 22.2355L15.1538 8.94281ZM15.1538 8.94281L15.1643 8.94381M15.1538 8.94281L15.1643 8.94381M15.1643 8.94381C15.2634 8.95328 15.364 8.96209 15.4654 8.97098M15.1643 8.94381L15.4654 8.97098M16.3418 21.1098L16.3418 21.1097C16.365 20.4977 15.8797 19.9603 15.2214 19.9281L16.3418 21.1098ZM16.3418 21.1098C16.3174 21.745 15.7656 22.23 15.1177 22.2355L16.3418 21.1098ZM11.0534 14.073L11.0534 14.073C11.6841 12.4087 13.3112 11.2985 15.1461 11.2914C17.4683 11.2825 19.3601 13.0056 19.5425 15.2791L19.5425 15.2793C19.5449 15.3086 19.5471 15.3391 19.5494 15.3706C19.564 15.5703 19.5814 15.8101 19.6628 16.0237C19.8695 16.568 20.4462 16.8383 20.989 16.7234L20.9892 16.7234C21.5322 16.6076 21.9145 16.1279 21.9257 15.5658M11.0534 14.073L21.9257 15.5658M11.0534 14.073C10.4018 15.7926 10.8889 17.6703 12.2941 18.8619M11.0534 14.073L12.2941 18.8619M21.9257 15.5658C21.9893 12.4153 19.4089 9.47264 16.2195 9.0486M21.9257 15.5658L16.2195 9.0486M16.2195 9.0486C15.9694 9.01515 15.7148 8.99284 15.4654 8.97098M16.2195 9.0486L15.4654 8.97098M12.2941 18.8619C13.1281 19.5689 14.1131 19.8731 15.2213 19.9281L12.2941 18.8619Z" stroke="url(#paint8_linear_897_721)" stroke-width="0.4"/>
<path d="M27.5837 22.5144C24.9924 22.5237 22.9084 24.5736 22.9094 27.1264C22.9103 29.6878 25.0334 31.7542 27.6293 31.7356L27.5837 22.5144ZM27.5837 22.5144C30.1669 22.5051 32.2778 24.5545 32.2911 27.0995C32.3044 29.6373 30.2062 31.718 27.6293 31.7356L27.5837 22.5144ZM27.5812 29.4884H27.5812C28.9216 29.4851 30.0193 28.3995 30.0085 27.1111C29.9977 25.8195 28.9166 24.7626 27.5928 24.7643C26.2631 24.7659 25.1955 25.8202 25.1929 27.1177C25.1913 28.4107 26.2778 29.4917 27.5812 29.4884Z" fill="url(#paint9_linear_897_721)"/>
<path d="M27.5837 22.5144C24.9924 22.5237 22.9084 24.5736 22.9094 27.1264C22.9103 29.6878 25.0334 31.7542 27.6293 31.7356L27.5837 22.5144ZM27.5837 22.5144C30.1669 22.5051 32.2778 24.5545 32.2911 27.0995C32.3044 29.6373 30.2062 31.718 27.6293 31.7356L27.5837 22.5144ZM27.5812 29.4884H27.5812C28.9216 29.4851 30.0193 28.3995 30.0085 27.1111C29.9977 25.8195 28.9166 24.7626 27.5928 24.7643C26.2631 24.7659 25.1955 25.8202 25.1929 27.1177C25.1913 28.4107 26.2778 29.4917 27.5812 29.4884Z" stroke="url(#paint10_linear_897_721)" stroke-width="0.4"/>
<path d="M27.5837 22.5144C24.9924 22.5237 22.9084 24.5736 22.9094 27.1264C22.9103 29.6878 25.0334 31.7542 27.6293 31.7356L27.5837 22.5144ZM27.5837 22.5144C30.1669 22.5051 32.2778 24.5545 32.2911 27.0995C32.3044 29.6373 30.2062 31.718 27.6293 31.7356L27.5837 22.5144ZM27.5812 29.4884H27.5812C28.9216 29.4851 30.0193 28.3995 30.0085 27.1111C29.9977 25.8195 28.9166 24.7626 27.5928 24.7643C26.2631 24.7659 25.1955 25.8202 25.1929 27.1177C25.1913 28.4107 26.2778 29.4917 27.5812 29.4884Z" stroke="url(#paint11_linear_897_721)" stroke-width="0.4"/>
<defs>
<linearGradient id="paint0_linear_897_721" x1="16.0507" y1="27.3317" x2="30.7711" y2="27.3317" gradientUnits="userSpaceOnUse">
<stop stop-color="#623D90"/>
<stop offset="1" stop-color="#9F0B00"/>
</linearGradient>
<linearGradient id="paint1_linear_897_721" x1="27.2552" y1="39" x2="27.2552" y2="15.9286" gradientUnits="userSpaceOnUse">
<stop stop-color="#5A9FFF"/>
<stop offset="1" stop-color="#5A9FFF"/>
</linearGradient>
<linearGradient id="paint2_linear_897_721" x1="16.0507" y1="27.3317" x2="30.7711" y2="27.3317" gradientUnits="userSpaceOnUse">
<stop stop-color="#623D90"/>
<stop offset="1" stop-color="#9F0B00"/>
</linearGradient>
<linearGradient id="paint3_linear_897_721" x1="1.63636" y1="14.4154" x2="18.9545" y2="14.4154" gradientUnits="userSpaceOnUse">
<stop stop-color="#623D90"/>
<stop offset="1" stop-color="#9F0B00"/>
</linearGradient>
<linearGradient id="paint4_linear_897_721" x1="14.8182" y1="28.1428" x2="14.8182" y2="0.999966" gradientUnits="userSpaceOnUse">
<stop stop-color="#5A9FFF"/>
<stop offset="1" stop-color="#5A9FFF"/>
</linearGradient>
<linearGradient id="paint5_linear_897_721" x1="1.63636" y1="14.4154" x2="18.9545" y2="14.4154" gradientUnits="userSpaceOnUse">
<stop stop-color="#623D90"/>
<stop offset="1" stop-color="#9F0B00"/>
</linearGradient>
<linearGradient id="paint6_linear_897_721" x1="8.90188" y1="15.5152" x2="17.128" y2="15.5152" gradientUnits="userSpaceOnUse">
<stop stop-color="#623D90"/>
<stop offset="1" stop-color="#9F0B00"/>
</linearGradient>
<linearGradient id="paint7_linear_897_721" x1="15.1632" y1="22.0358" x2="15.1632" y2="9.14291" gradientUnits="userSpaceOnUse">
<stop stop-color="#5A9FFF"/>
<stop offset="1" stop-color="#5A9FFF"/>
</linearGradient>
<linearGradient id="paint8_linear_897_721" x1="8.90188" y1="15.5152" x2="17.128" y2="15.5152" gradientUnits="userSpaceOnUse">
<stop stop-color="#623D90"/>
<stop offset="1" stop-color="#9F0B00"/>
</linearGradient>
<linearGradient id="paint9_linear_897_721" x1="23.3162" y1="27.0744" x2="28.9446" y2="27.0744" gradientUnits="userSpaceOnUse">
<stop stop-color="#623D90"/>
<stop offset="1" stop-color="#9F0B00"/>
</linearGradient>
<linearGradient id="paint10_linear_897_721" x1="27.6003" y1="31.5358" x2="27.6003" y2="22.7143" gradientUnits="userSpaceOnUse">
<stop stop-color="#5A9FFF"/>
<stop offset="1" stop-color="#5A9FFF"/>
</linearGradient>
<linearGradient id="paint11_linear_897_721" x1="23.3162" y1="27.0744" x2="28.9446" y2="27.0744" gradientUnits="userSpaceOnUse">
<stop stop-color="#623D90"/>
<stop offset="1" stop-color="#9F0B00"/>
</linearGradient>
</defs>
</svg>
