<svg width="31" height="38" viewBox="0 0 31 38" fill="none" xmlns="http://www.w3.org/2000/svg">
<path d="M27.8375 38C19.6092 38 11.3808 38 3.15248 38C3.13101 37.9871 3.11159 37.9673 3.08808 37.9614C0.885339 37.429 -0.150103 36.1277 0.0175303 33.9317C0.33542 29.7655 0.706462 25.6042 1.05502 21.4399C1.39233 17.4112 1.72862 13.3835 2.06695 9.35478C2.13748 8.5146 2.67104 8.0386 3.55214 8.03464C4.72659 8.02969 5.90207 8.03365 7.07653 8.03365C7.21247 8.03365 7.34944 8.03365 7.52218 8.03365C7.52218 7.87036 7.52116 7.74963 7.52218 7.62989C7.56512 4.50767 9.52254 1.71499 12.5236 0.575952C13.2278 0.308758 13.9914 0.188026 14.7274 0C15.2384 0 15.7495 0 16.2606 0C16.3454 0.022761 16.4282 0.0564077 16.5151 0.0672934C20.1161 0.498763 22.9853 3.30727 23.4024 6.81841C23.4494 7.21821 23.4678 7.61999 23.4995 8.03563C24.8313 8.03563 26.1336 8.03266 27.4358 8.03662C28.3159 8.03958 28.8494 8.51757 28.921 9.35774C29.0559 10.9471 29.1888 12.5354 29.3227 14.1247C29.5435 16.7481 29.7632 19.3726 29.984 21.996C30.1772 24.2999 30.3724 26.6027 30.5636 28.9065C30.7118 30.7056 30.8784 32.5027 30.9919 34.3038C31.0716 35.5537 30.5646 36.5957 29.5005 37.3023C29.0119 37.6259 28.3956 37.7724 27.8375 38ZM4.70411 10.6957C4.6714 11.0549 4.63869 11.3855 4.61109 11.716C4.42199 13.996 4.23494 16.2761 4.0438 18.5562C3.82608 21.1569 3.60427 23.7566 3.38655 26.3563C3.16679 28.9807 2.95316 31.6061 2.72828 34.2316C2.66798 34.9382 3.02062 35.3399 3.75759 35.3399C11.5771 35.3419 19.3955 35.3419 27.215 35.3399C27.9755 35.3399 28.3261 34.9431 28.2607 34.2118C28.137 32.8323 28.0286 31.4518 27.9142 30.0713C27.7005 27.5082 27.4879 24.9441 27.2743 22.381C27.028 19.4359 26.7816 16.4899 26.5332 13.5448C26.4535 12.5997 26.3717 11.6556 26.291 10.7155C25.3291 10.7155 24.4061 10.7155 23.4688 10.7155C23.4688 10.8808 23.4688 11.0163 23.4688 11.1519C23.4688 13.1677 23.4729 15.1846 23.4668 17.2004C23.4647 18.0059 22.8749 18.5829 22.0848 18.576C21.2886 18.569 20.7274 17.9842 20.7253 17.1351C20.7202 15.144 20.7233 13.1519 20.7233 11.1608C20.7233 11.0153 20.7233 10.8699 20.7233 10.7115C17.2204 10.7115 13.7553 10.7115 10.2687 10.7115C10.2687 11.1697 10.2687 11.6022 10.2687 12.0336C10.2687 13.7407 10.2738 15.4478 10.2667 17.1549C10.2626 18.0109 9.66666 18.5967 8.84792 18.575C8.07926 18.5542 7.52627 17.9782 7.52525 17.1796C7.52116 15.1509 7.52423 13.1222 7.52423 11.0935C7.52423 10.9629 7.52423 10.8333 7.52423 10.6947C6.56136 10.6957 5.65675 10.6957 4.70411 10.6957ZM10.2667 8.00792C13.7819 8.00792 17.2367 8.00792 20.7233 8.00792C20.7611 6.03464 19.9843 4.476 18.2814 3.44483C16.4538 2.33845 14.5393 2.33845 12.7086 3.44681C11.0036 4.47996 10.2288 6.03563 10.2667 8.00792Z" fill="url(#paint0_linear_897_1551)"/>
<defs>
<linearGradient id="paint0_linear_897_1551" x1="0.713816" y1="19.2184" x2="20.1398" y2="19.2184" gradientUnits="userSpaceOnUse">
<stop stop-color="#623D90"/>
<stop offset="1" stop-color="#9F0B00"/>
</linearGradient>
</defs>
</svg>
