<svg width="31" height="42" viewBox="0 0 31 42" fill="none" xmlns="http://www.w3.org/2000/svg">
<path d="M15.4102 29.4C20.1373 29.4 23.9816 25.6305 23.9816 21V8.4C23.9816 3.7674 20.1373 0 15.4102 0C10.683 0 6.83873 3.7674 6.83873 8.4V21C6.83873 25.6305 10.683 29.4 15.4102 29.4ZM30.4102 21V16.8C30.4102 15.6408 29.4523 14.7 28.2673 14.7C27.0823 14.7 26.1244 15.6408 26.1244 16.8V21C26.1244 26.7897 21.318 31.5 15.4102 31.5C9.5023 31.5 4.69587 26.7897 4.69587 21V16.8C4.69587 15.6408 3.73801 14.7 2.55301 14.7C1.36801 14.7 0.410156 15.6408 0.410156 16.8V21C0.410156 28.392 6.00944 34.5072 13.2673 35.532V37.8H6.83873C5.65373 37.8 4.69587 38.7387 4.69587 39.9C4.69587 41.0613 5.65373 42 6.83873 42H23.9816C25.1666 42 26.1244 41.0613 26.1244 39.9C26.1244 38.7387 25.1666 37.8 23.9816 37.8H17.553V35.532C24.8109 34.5072 30.4102 28.392 30.4102 21Z" fill="url(#paint0_linear_459_10)"/>
<defs>
<linearGradient id="paint0_linear_459_10" x1="30.4102" y1="0" x2="0.410156" y2="-6.12279e-05" gradientUnits="userSpaceOnUse">
<stop stop-color="#9F0A00"/>
<stop offset="1" stop-color="#623D90"/>
</linearGradient>
</defs>
</svg>
