<svg width="36" height="38" viewBox="0 0 36 38" fill="none" xmlns="http://www.w3.org/2000/svg">
<mask id="path-1-inside-1_897_731" fill="white">
<path d="M27.8474 38C21.0617 38 14.2769 38 7.49115 38C7.50107 37.8654 7.51993 37.7308 7.51993 37.5963C7.5229 36.5701 7.48618 35.5429 7.53581 34.5186C7.56261 33.9615 7.63605 33.3687 7.85639 32.8651C8.48564 31.4262 9.65481 30.7107 11.217 30.6642C12.1291 30.6365 13.0432 30.6593 13.9742 30.6593C13.9851 30.5306 14.001 30.4346 14.001 30.3386C14.002 27.3224 14.005 24.3061 13.994 21.2899C13.993 21.1246 13.9077 20.9346 13.8045 20.7991C13.2209 20.0341 12.8556 19.189 12.7475 18.2291C12.7286 18.0629 12.6343 17.8739 12.5162 17.7551C9.96745 15.196 7.41274 12.6439 4.85108 10.0987C4.73297 9.98094 4.54638 9.89089 4.38063 9.86911C1.9748 9.54651 0.198214 7.65641 0.0126153 5.20323C-0.155118 2.98656 1.36639 0.853021 3.58663 0.198906C3.84567 0.122708 4.10968 0.0653125 4.3717 0C4.76771 0 5.16372 0 5.56072 0C5.62821 0.02375 5.69372 0.0583854 5.76418 0.0692708C6.57407 0.199896 7.31249 0.507656 7.94968 1.02026C8.19086 1.21422 8.42906 1.27557 8.72582 1.27557C12.9599 1.26964 17.1929 1.26568 21.4269 1.27458C23.1033 1.27755 24.3092 2.04547 24.988 3.58625C25.0833 3.80198 25.1984 3.84651 25.4039 3.84453C26.1959 3.83661 26.9889 3.81682 27.7799 3.85146C28.171 3.86828 28.3516 3.74953 28.5164 3.38536C29.2687 1.72781 31.1416 0.911406 32.8933 1.43688C34.6223 1.95542 35.724 3.6951 35.4391 5.49714C35.2277 6.83406 34.4684 7.76427 33.2417 8.32635C33.1286 8.37781 32.9529 8.47182 32.9489 8.55297C32.9221 9.06458 32.935 9.57818 32.935 10.1254C33.8571 10.1254 34.7185 10.1254 35.6267 10.1254C35.3409 12.5895 35.059 15.011 34.7731 17.4681C34.1399 17.4681 33.5533 17.4681 32.9251 17.4681C32.9251 18.8377 32.9251 20.1667 32.9251 21.5135C32.1708 21.5135 31.4582 21.5135 30.691 21.5135C30.691 20.1608 30.691 18.8219 30.691 17.4543C30.0577 17.4543 29.4791 17.4543 28.8628 17.4543C28.5779 15.006 28.297 12.5845 28.0092 10.1086C28.9283 10.1086 29.7997 10.1086 30.6999 10.1086C30.6999 9.58115 30.7128 9.10021 30.689 8.62026C30.684 8.52625 30.555 8.40057 30.4538 8.35604C29.5 7.9424 28.8211 7.26651 28.4042 6.31255C28.3566 6.20271 28.1859 6.07901 28.0698 6.07604C27.1537 6.05625 26.2376 6.05823 25.3225 6.07505C25.2153 6.07703 25.0595 6.19182 25.0118 6.29474C24.3012 7.83453 23.1082 8.61135 21.4081 8.61036C19.0191 8.60839 16.6301 8.61036 14.2412 8.61036C14.1141 8.61036 13.9861 8.61036 13.8174 8.61036C13.8759 8.69844 13.8918 8.73208 13.9166 8.75682C15.2029 10.0433 16.4872 11.3307 17.7804 12.6083C17.8737 12.7003 18.0316 12.7528 18.1665 12.7716C20.088 13.0387 21.4944 14.0333 22.2368 15.8215C22.9812 17.6126 22.6795 19.3038 21.4994 20.8456C21.3981 20.9772 21.3485 21.181 21.3485 21.3512C21.3396 24.319 21.3426 27.2868 21.3416 30.2555C21.3416 30.3762 21.3416 30.497 21.3416 30.6563C21.5162 30.6563 21.6492 30.6563 21.7822 30.6563C22.5743 30.6563 23.3673 30.6385 24.1593 30.6622C25.5518 30.7028 26.6197 31.3223 27.3363 32.5236C27.7085 33.1481 27.8216 33.8358 27.8246 34.5523C27.8256 35.7022 27.8385 36.8511 27.8474 38ZM25.5915 35.7566C25.5915 35.3479 25.5925 34.9551 25.5915 34.5622C25.5875 33.441 25.0247 32.8848 23.8933 32.8848C20.5644 32.8839 17.2346 32.8848 13.9057 32.8848C13.0144 32.8848 12.1232 32.8789 11.2329 32.8878C10.5798 32.8947 9.99722 33.2361 9.87018 33.8289C9.73718 34.4523 9.75902 35.1084 9.71237 35.7566C15.06 35.7566 20.3044 35.7566 25.5915 35.7566ZM9.75108 3.51203C9.78284 4.30073 9.93668 5.00828 10.6285 5.49219C10.8676 5.65943 11.0652 5.89396 11.2597 6.11859C11.4354 6.32146 11.6299 6.39667 11.9028 6.39271C13.1524 6.37687 14.403 6.38578 15.6525 6.38578C17.6207 6.38578 19.5888 6.39073 21.5559 6.38281C22.4293 6.37984 23.0576 5.71682 23.0209 4.86479C22.9871 4.05927 22.343 3.49917 21.4309 3.49917C17.6435 3.49719 13.8561 3.49818 10.0687 3.49917C9.9605 3.49818 9.85232 3.50708 9.75108 3.51203ZM7.34822 9.27833C9.36103 11.2892 11.3589 13.2861 13.3291 15.2544C13.5881 14.9348 13.8541 14.5439 14.1846 14.2154C14.5201 13.8819 14.9171 13.6107 15.2327 13.3564C13.2487 11.3713 11.2597 9.38224 9.26575 7.38724C8.80125 8.1888 8.14024 8.84193 7.34822 9.27833ZM19.0876 30.6424C19.0876 27.9053 19.0876 25.2027 19.0876 22.4507C18.1358 22.7129 17.2078 22.703 16.2579 22.4576C16.2579 25.2057 16.2579 27.9161 16.2579 30.6424C17.2068 30.6424 18.1298 30.6424 19.0876 30.6424ZM17.6425 20.4181C19.161 20.429 20.3967 19.2118 20.3967 17.7066C20.3957 16.2321 19.1878 15.007 17.7179 14.9912C16.1984 14.9744 14.9647 16.1747 14.9468 17.6868C14.929 19.1702 16.1498 20.4072 17.6425 20.4181ZM4.96125 7.6574C6.46291 7.6574 7.67575 6.45208 7.6827 4.95385C7.68965 3.46552 6.46787 2.23448 4.97713 2.22755C3.4705 2.22063 2.2269 3.4576 2.23484 4.95583C2.24278 6.44911 3.46157 7.6574 4.96125 7.6574ZM30.5123 12.3619C30.6264 13.3346 30.7366 14.2698 30.8448 15.1881C30.9113 15.2089 30.9351 15.2218 30.9579 15.2228C31.3401 15.2257 31.7232 15.2277 32.1053 15.2287C32.7713 15.2297 32.7802 15.2297 32.8636 14.5746C32.9569 13.8453 33.0323 13.114 33.1186 12.3629C32.2442 12.3619 31.4085 12.3619 30.5123 12.3619ZM31.8244 6.38479C32.6124 6.38182 33.2625 5.73365 33.2635 4.94792C33.2645 4.16813 32.6105 3.50807 31.8294 3.50016C31.0334 3.49224 30.3674 4.1612 30.3753 4.96177C30.3833 5.74948 31.0324 6.38776 31.8244 6.38479Z"/>
</mask>
<path d="M27.8474 38C21.0617 38 14.2769 38 7.49115 38C7.50107 37.8654 7.51993 37.7308 7.51993 37.5963C7.5229 36.5701 7.48618 35.5429 7.53581 34.5186C7.56261 33.9615 7.63605 33.3687 7.85639 32.8651C8.48564 31.4262 9.65481 30.7107 11.217 30.6642C12.1291 30.6365 13.0432 30.6593 13.9742 30.6593C13.9851 30.5306 14.001 30.4346 14.001 30.3386C14.002 27.3224 14.005 24.3061 13.994 21.2899C13.993 21.1246 13.9077 20.9346 13.8045 20.7991C13.2209 20.0341 12.8556 19.189 12.7475 18.2291C12.7286 18.0629 12.6343 17.8739 12.5162 17.7551C9.96745 15.196 7.41274 12.6439 4.85108 10.0987C4.73297 9.98094 4.54638 9.89089 4.38063 9.86911C1.9748 9.54651 0.198214 7.65641 0.0126153 5.20323C-0.155118 2.98656 1.36639 0.853021 3.58663 0.198906C3.84567 0.122708 4.10968 0.0653125 4.3717 0C4.76771 0 5.16372 0 5.56072 0C5.62821 0.02375 5.69372 0.0583854 5.76418 0.0692708C6.57407 0.199896 7.31249 0.507656 7.94968 1.02026C8.19086 1.21422 8.42906 1.27557 8.72582 1.27557C12.9599 1.26964 17.1929 1.26568 21.4269 1.27458C23.1033 1.27755 24.3092 2.04547 24.988 3.58625C25.0833 3.80198 25.1984 3.84651 25.4039 3.84453C26.1959 3.83661 26.9889 3.81682 27.7799 3.85146C28.171 3.86828 28.3516 3.74953 28.5164 3.38536C29.2687 1.72781 31.1416 0.911406 32.8933 1.43688C34.6223 1.95542 35.724 3.6951 35.4391 5.49714C35.2277 6.83406 34.4684 7.76427 33.2417 8.32635C33.1286 8.37781 32.9529 8.47182 32.9489 8.55297C32.9221 9.06458 32.935 9.57818 32.935 10.1254C33.8571 10.1254 34.7185 10.1254 35.6267 10.1254C35.3409 12.5895 35.059 15.011 34.7731 17.4681C34.1399 17.4681 33.5533 17.4681 32.9251 17.4681C32.9251 18.8377 32.9251 20.1667 32.9251 21.5135C32.1708 21.5135 31.4582 21.5135 30.691 21.5135C30.691 20.1608 30.691 18.8219 30.691 17.4543C30.0577 17.4543 29.4791 17.4543 28.8628 17.4543C28.5779 15.006 28.297 12.5845 28.0092 10.1086C28.9283 10.1086 29.7997 10.1086 30.6999 10.1086C30.6999 9.58115 30.7128 9.10021 30.689 8.62026C30.684 8.52625 30.555 8.40057 30.4538 8.35604C29.5 7.9424 28.8211 7.26651 28.4042 6.31255C28.3566 6.20271 28.1859 6.07901 28.0698 6.07604C27.1537 6.05625 26.2376 6.05823 25.3225 6.07505C25.2153 6.07703 25.0595 6.19182 25.0118 6.29474C24.3012 7.83453 23.1082 8.61135 21.4081 8.61036C19.0191 8.60839 16.6301 8.61036 14.2412 8.61036C14.1141 8.61036 13.9861 8.61036 13.8174 8.61036C13.8759 8.69844 13.8918 8.73208 13.9166 8.75682C15.2029 10.0433 16.4872 11.3307 17.7804 12.6083C17.8737 12.7003 18.0316 12.7528 18.1665 12.7716C20.088 13.0387 21.4944 14.0333 22.2368 15.8215C22.9812 17.6126 22.6795 19.3038 21.4994 20.8456C21.3981 20.9772 21.3485 21.181 21.3485 21.3512C21.3396 24.319 21.3426 27.2868 21.3416 30.2555C21.3416 30.3762 21.3416 30.497 21.3416 30.6563C21.5162 30.6563 21.6492 30.6563 21.7822 30.6563C22.5743 30.6563 23.3673 30.6385 24.1593 30.6622C25.5518 30.7028 26.6197 31.3223 27.3363 32.5236C27.7085 33.1481 27.8216 33.8358 27.8246 34.5523C27.8256 35.7022 27.8385 36.8511 27.8474 38ZM25.5915 35.7566C25.5915 35.3479 25.5925 34.9551 25.5915 34.5622C25.5875 33.441 25.0247 32.8848 23.8933 32.8848C20.5644 32.8839 17.2346 32.8848 13.9057 32.8848C13.0144 32.8848 12.1232 32.8789 11.2329 32.8878C10.5798 32.8947 9.99722 33.2361 9.87018 33.8289C9.73718 34.4523 9.75902 35.1084 9.71237 35.7566C15.06 35.7566 20.3044 35.7566 25.5915 35.7566ZM9.75108 3.51203C9.78284 4.30073 9.93668 5.00828 10.6285 5.49219C10.8676 5.65943 11.0652 5.89396 11.2597 6.11859C11.4354 6.32146 11.6299 6.39667 11.9028 6.39271C13.1524 6.37687 14.403 6.38578 15.6525 6.38578C17.6207 6.38578 19.5888 6.39073 21.5559 6.38281C22.4293 6.37984 23.0576 5.71682 23.0209 4.86479C22.9871 4.05927 22.343 3.49917 21.4309 3.49917C17.6435 3.49719 13.8561 3.49818 10.0687 3.49917C9.9605 3.49818 9.85232 3.50708 9.75108 3.51203ZM7.34822 9.27833C9.36103 11.2892 11.3589 13.2861 13.3291 15.2544C13.5881 14.9348 13.8541 14.5439 14.1846 14.2154C14.5201 13.8819 14.9171 13.6107 15.2327 13.3564C13.2487 11.3713 11.2597 9.38224 9.26575 7.38724C8.80125 8.1888 8.14024 8.84193 7.34822 9.27833ZM19.0876 30.6424C19.0876 27.9053 19.0876 25.2027 19.0876 22.4507C18.1358 22.7129 17.2078 22.703 16.2579 22.4576C16.2579 25.2057 16.2579 27.9161 16.2579 30.6424C17.2068 30.6424 18.1298 30.6424 19.0876 30.6424ZM17.6425 20.4181C19.161 20.429 20.3967 19.2118 20.3967 17.7066C20.3957 16.2321 19.1878 15.007 17.7179 14.9912C16.1984 14.9744 14.9647 16.1747 14.9468 17.6868C14.929 19.1702 16.1498 20.4072 17.6425 20.4181ZM4.96125 7.6574C6.46291 7.6574 7.67575 6.45208 7.6827 4.95385C7.68965 3.46552 6.46787 2.23448 4.97713 2.22755C3.4705 2.22063 2.2269 3.4576 2.23484 4.95583C2.24278 6.44911 3.46157 7.6574 4.96125 7.6574ZM30.5123 12.3619C30.6264 13.3346 30.7366 14.2698 30.8448 15.1881C30.9113 15.2089 30.9351 15.2218 30.9579 15.2228C31.3401 15.2257 31.7232 15.2277 32.1053 15.2287C32.7713 15.2297 32.7802 15.2297 32.8636 14.5746C32.9569 13.8453 33.0323 13.114 33.1186 12.3629C32.2442 12.3619 31.4085 12.3619 30.5123 12.3619ZM31.8244 6.38479C32.6124 6.38182 33.2625 5.73365 33.2635 4.94792C33.2645 4.16813 32.6105 3.50807 31.8294 3.50016C31.0334 3.49224 30.3674 4.1612 30.3753 4.96177C30.3833 5.74948 31.0324 6.38776 31.8244 6.38479Z" fill="url(#paint0_linear_897_731)"/>
<path d="M27.8474 38C21.0617 38 14.2769 38 7.49115 38C7.50107 37.8654 7.51993 37.7308 7.51993 37.5963C7.5229 36.5701 7.48618 35.5429 7.53581 34.5186C7.56261 33.9615 7.63605 33.3687 7.85639 32.8651C8.48564 31.4262 9.65481 30.7107 11.217 30.6642C12.1291 30.6365 13.0432 30.6593 13.9742 30.6593C13.9851 30.5306 14.001 30.4346 14.001 30.3386C14.002 27.3224 14.005 24.3061 13.994 21.2899C13.993 21.1246 13.9077 20.9346 13.8045 20.7991C13.2209 20.0341 12.8556 19.189 12.7475 18.2291C12.7286 18.0629 12.6343 17.8739 12.5162 17.7551C9.96745 15.196 7.41274 12.6439 4.85108 10.0987C4.73297 9.98094 4.54638 9.89089 4.38063 9.86911C1.9748 9.54651 0.198214 7.65641 0.0126153 5.20323C-0.155118 2.98656 1.36639 0.853021 3.58663 0.198906C3.84567 0.122708 4.10968 0.0653125 4.3717 0C4.76771 0 5.16372 0 5.56072 0C5.62821 0.02375 5.69372 0.0583854 5.76418 0.0692708C6.57407 0.199896 7.31249 0.507656 7.94968 1.02026C8.19086 1.21422 8.42906 1.27557 8.72582 1.27557C12.9599 1.26964 17.1929 1.26568 21.4269 1.27458C23.1033 1.27755 24.3092 2.04547 24.988 3.58625C25.0833 3.80198 25.1984 3.84651 25.4039 3.84453C26.1959 3.83661 26.9889 3.81682 27.7799 3.85146C28.171 3.86828 28.3516 3.74953 28.5164 3.38536C29.2687 1.72781 31.1416 0.911406 32.8933 1.43688C34.6223 1.95542 35.724 3.6951 35.4391 5.49714C35.2277 6.83406 34.4684 7.76427 33.2417 8.32635C33.1286 8.37781 32.9529 8.47182 32.9489 8.55297C32.9221 9.06458 32.935 9.57818 32.935 10.1254C33.8571 10.1254 34.7185 10.1254 35.6267 10.1254C35.3409 12.5895 35.059 15.011 34.7731 17.4681C34.1399 17.4681 33.5533 17.4681 32.9251 17.4681C32.9251 18.8377 32.9251 20.1667 32.9251 21.5135C32.1708 21.5135 31.4582 21.5135 30.691 21.5135C30.691 20.1608 30.691 18.8219 30.691 17.4543C30.0577 17.4543 29.4791 17.4543 28.8628 17.4543C28.5779 15.006 28.297 12.5845 28.0092 10.1086C28.9283 10.1086 29.7997 10.1086 30.6999 10.1086C30.6999 9.58115 30.7128 9.10021 30.689 8.62026C30.684 8.52625 30.555 8.40057 30.4538 8.35604C29.5 7.9424 28.8211 7.26651 28.4042 6.31255C28.3566 6.20271 28.1859 6.07901 28.0698 6.07604C27.1537 6.05625 26.2376 6.05823 25.3225 6.07505C25.2153 6.07703 25.0595 6.19182 25.0118 6.29474C24.3012 7.83453 23.1082 8.61135 21.4081 8.61036C19.0191 8.60839 16.6301 8.61036 14.2412 8.61036C14.1141 8.61036 13.9861 8.61036 13.8174 8.61036C13.8759 8.69844 13.8918 8.73208 13.9166 8.75682C15.2029 10.0433 16.4872 11.3307 17.7804 12.6083C17.8737 12.7003 18.0316 12.7528 18.1665 12.7716C20.088 13.0387 21.4944 14.0333 22.2368 15.8215C22.9812 17.6126 22.6795 19.3038 21.4994 20.8456C21.3981 20.9772 21.3485 21.181 21.3485 21.3512C21.3396 24.319 21.3426 27.2868 21.3416 30.2555C21.3416 30.3762 21.3416 30.497 21.3416 30.6563C21.5162 30.6563 21.6492 30.6563 21.7822 30.6563C22.5743 30.6563 23.3673 30.6385 24.1593 30.6622C25.5518 30.7028 26.6197 31.3223 27.3363 32.5236C27.7085 33.1481 27.8216 33.8358 27.8246 34.5523C27.8256 35.7022 27.8385 36.8511 27.8474 38ZM25.5915 35.7566C25.5915 35.3479 25.5925 34.9551 25.5915 34.5622C25.5875 33.441 25.0247 32.8848 23.8933 32.8848C20.5644 32.8839 17.2346 32.8848 13.9057 32.8848C13.0144 32.8848 12.1232 32.8789 11.2329 32.8878C10.5798 32.8947 9.99722 33.2361 9.87018 33.8289C9.73718 34.4523 9.75902 35.1084 9.71237 35.7566C15.06 35.7566 20.3044 35.7566 25.5915 35.7566ZM9.75108 3.51203C9.78284 4.30073 9.93668 5.00828 10.6285 5.49219C10.8676 5.65943 11.0652 5.89396 11.2597 6.11859C11.4354 6.32146 11.6299 6.39667 11.9028 6.39271C13.1524 6.37687 14.403 6.38578 15.6525 6.38578C17.6207 6.38578 19.5888 6.39073 21.5559 6.38281C22.4293 6.37984 23.0576 5.71682 23.0209 4.86479C22.9871 4.05927 22.343 3.49917 21.4309 3.49917C17.6435 3.49719 13.8561 3.49818 10.0687 3.49917C9.9605 3.49818 9.85232 3.50708 9.75108 3.51203ZM7.34822 9.27833C9.36103 11.2892 11.3589 13.2861 13.3291 15.2544C13.5881 14.9348 13.8541 14.5439 14.1846 14.2154C14.5201 13.8819 14.9171 13.6107 15.2327 13.3564C13.2487 11.3713 11.2597 9.38224 9.26575 7.38724C8.80125 8.1888 8.14024 8.84193 7.34822 9.27833ZM19.0876 30.6424C19.0876 27.9053 19.0876 25.2027 19.0876 22.4507C18.1358 22.7129 17.2078 22.703 16.2579 22.4576C16.2579 25.2057 16.2579 27.9161 16.2579 30.6424C17.2068 30.6424 18.1298 30.6424 19.0876 30.6424ZM17.6425 20.4181C19.161 20.429 20.3967 19.2118 20.3967 17.7066C20.3957 16.2321 19.1878 15.007 17.7179 14.9912C16.1984 14.9744 14.9647 16.1747 14.9468 17.6868C14.929 19.1702 16.1498 20.4072 17.6425 20.4181ZM4.96125 7.6574C6.46291 7.6574 7.67575 6.45208 7.6827 4.95385C7.68965 3.46552 6.46787 2.23448 4.97713 2.22755C3.4705 2.22063 2.2269 3.4576 2.23484 4.95583C2.24278 6.44911 3.46157 7.6574 4.96125 7.6574ZM30.5123 12.3619C30.6264 13.3346 30.7366 14.2698 30.8448 15.1881C30.9113 15.2089 30.9351 15.2218 30.9579 15.2228C31.3401 15.2257 31.7232 15.2277 32.1053 15.2287C32.7713 15.2297 32.7802 15.2297 32.8636 14.5746C32.9569 13.8453 33.0323 13.114 33.1186 12.3629C32.2442 12.3619 31.4085 12.3619 30.5123 12.3619ZM31.8244 6.38479C32.6124 6.38182 33.2625 5.73365 33.2635 4.94792C33.2645 4.16813 32.6105 3.50807 31.8294 3.50016C31.0334 3.49224 30.3674 4.1612 30.3753 4.96177C30.3833 5.74948 31.0324 6.38776 31.8244 6.38479Z" stroke="url(#paint1_linear_897_731)" stroke-width="0.8" mask="url(#path-1-inside-1_897_731)"/>
<path d="M27.8474 38C21.0617 38 14.2769 38 7.49115 38C7.50107 37.8654 7.51993 37.7308 7.51993 37.5963C7.5229 36.5701 7.48618 35.5429 7.53581 34.5186C7.56261 33.9615 7.63605 33.3687 7.85639 32.8651C8.48564 31.4262 9.65481 30.7107 11.217 30.6642C12.1291 30.6365 13.0432 30.6593 13.9742 30.6593C13.9851 30.5306 14.001 30.4346 14.001 30.3386C14.002 27.3224 14.005 24.3061 13.994 21.2899C13.993 21.1246 13.9077 20.9346 13.8045 20.7991C13.2209 20.0341 12.8556 19.189 12.7475 18.2291C12.7286 18.0629 12.6343 17.8739 12.5162 17.7551C9.96745 15.196 7.41274 12.6439 4.85108 10.0987C4.73297 9.98094 4.54638 9.89089 4.38063 9.86911C1.9748 9.54651 0.198214 7.65641 0.0126153 5.20323C-0.155118 2.98656 1.36639 0.853021 3.58663 0.198906C3.84567 0.122708 4.10968 0.0653125 4.3717 0C4.76771 0 5.16372 0 5.56072 0C5.62821 0.02375 5.69372 0.0583854 5.76418 0.0692708C6.57407 0.199896 7.31249 0.507656 7.94968 1.02026C8.19086 1.21422 8.42906 1.27557 8.72582 1.27557C12.9599 1.26964 17.1929 1.26568 21.4269 1.27458C23.1033 1.27755 24.3092 2.04547 24.988 3.58625C25.0833 3.80198 25.1984 3.84651 25.4039 3.84453C26.1959 3.83661 26.9889 3.81682 27.7799 3.85146C28.171 3.86828 28.3516 3.74953 28.5164 3.38536C29.2687 1.72781 31.1416 0.911406 32.8933 1.43688C34.6223 1.95542 35.724 3.6951 35.4391 5.49714C35.2277 6.83406 34.4684 7.76427 33.2417 8.32635C33.1286 8.37781 32.9529 8.47182 32.9489 8.55297C32.9221 9.06458 32.935 9.57818 32.935 10.1254C33.8571 10.1254 34.7185 10.1254 35.6267 10.1254C35.3409 12.5895 35.059 15.011 34.7731 17.4681C34.1399 17.4681 33.5533 17.4681 32.9251 17.4681C32.9251 18.8377 32.9251 20.1667 32.9251 21.5135C32.1708 21.5135 31.4582 21.5135 30.691 21.5135C30.691 20.1608 30.691 18.8219 30.691 17.4543C30.0577 17.4543 29.4791 17.4543 28.8628 17.4543C28.5779 15.006 28.297 12.5845 28.0092 10.1086C28.9283 10.1086 29.7997 10.1086 30.6999 10.1086C30.6999 9.58115 30.7128 9.10021 30.689 8.62026C30.684 8.52625 30.555 8.40057 30.4538 8.35604C29.5 7.9424 28.8211 7.26651 28.4042 6.31255C28.3566 6.20271 28.1859 6.07901 28.0698 6.07604C27.1537 6.05625 26.2376 6.05823 25.3225 6.07505C25.2153 6.07703 25.0595 6.19182 25.0118 6.29474C24.3012 7.83453 23.1082 8.61135 21.4081 8.61036C19.0191 8.60839 16.6301 8.61036 14.2412 8.61036C14.1141 8.61036 13.9861 8.61036 13.8174 8.61036C13.8759 8.69844 13.8918 8.73208 13.9166 8.75682C15.2029 10.0433 16.4872 11.3307 17.7804 12.6083C17.8737 12.7003 18.0316 12.7528 18.1665 12.7716C20.088 13.0387 21.4944 14.0333 22.2368 15.8215C22.9812 17.6126 22.6795 19.3038 21.4994 20.8456C21.3981 20.9772 21.3485 21.181 21.3485 21.3512C21.3396 24.319 21.3426 27.2868 21.3416 30.2555C21.3416 30.3762 21.3416 30.497 21.3416 30.6563C21.5162 30.6563 21.6492 30.6563 21.7822 30.6563C22.5743 30.6563 23.3673 30.6385 24.1593 30.6622C25.5518 30.7028 26.6197 31.3223 27.3363 32.5236C27.7085 33.1481 27.8216 33.8358 27.8246 34.5523C27.8256 35.7022 27.8385 36.8511 27.8474 38ZM25.5915 35.7566C25.5915 35.3479 25.5925 34.9551 25.5915 34.5622C25.5875 33.441 25.0247 32.8848 23.8933 32.8848C20.5644 32.8839 17.2346 32.8848 13.9057 32.8848C13.0144 32.8848 12.1232 32.8789 11.2329 32.8878C10.5798 32.8947 9.99722 33.2361 9.87018 33.8289C9.73718 34.4523 9.75902 35.1084 9.71237 35.7566C15.06 35.7566 20.3044 35.7566 25.5915 35.7566ZM9.75108 3.51203C9.78284 4.30073 9.93668 5.00828 10.6285 5.49219C10.8676 5.65943 11.0652 5.89396 11.2597 6.11859C11.4354 6.32146 11.6299 6.39667 11.9028 6.39271C13.1524 6.37687 14.403 6.38578 15.6525 6.38578C17.6207 6.38578 19.5888 6.39073 21.5559 6.38281C22.4293 6.37984 23.0576 5.71682 23.0209 4.86479C22.9871 4.05927 22.343 3.49917 21.4309 3.49917C17.6435 3.49719 13.8561 3.49818 10.0687 3.49917C9.9605 3.49818 9.85232 3.50708 9.75108 3.51203ZM7.34822 9.27833C9.36103 11.2892 11.3589 13.2861 13.3291 15.2544C13.5881 14.9348 13.8541 14.5439 14.1846 14.2154C14.5201 13.8819 14.9171 13.6107 15.2327 13.3564C13.2487 11.3713 11.2597 9.38224 9.26575 7.38724C8.80125 8.1888 8.14024 8.84193 7.34822 9.27833ZM19.0876 30.6424C19.0876 27.9053 19.0876 25.2027 19.0876 22.4507C18.1358 22.7129 17.2078 22.703 16.2579 22.4576C16.2579 25.2057 16.2579 27.9161 16.2579 30.6424C17.2068 30.6424 18.1298 30.6424 19.0876 30.6424ZM17.6425 20.4181C19.161 20.429 20.3967 19.2118 20.3967 17.7066C20.3957 16.2321 19.1878 15.007 17.7179 14.9912C16.1984 14.9744 14.9647 16.1747 14.9468 17.6868C14.929 19.1702 16.1498 20.4072 17.6425 20.4181ZM4.96125 7.6574C6.46291 7.6574 7.67575 6.45208 7.6827 4.95385C7.68965 3.46552 6.46787 2.23448 4.97713 2.22755C3.4705 2.22063 2.2269 3.4576 2.23484 4.95583C2.24278 6.44911 3.46157 7.6574 4.96125 7.6574ZM30.5123 12.3619C30.6264 13.3346 30.7366 14.2698 30.8448 15.1881C30.9113 15.2089 30.9351 15.2218 30.9579 15.2228C31.3401 15.2257 31.7232 15.2277 32.1053 15.2287C32.7713 15.2297 32.7802 15.2297 32.8636 14.5746C32.9569 13.8453 33.0323 13.114 33.1186 12.3629C32.2442 12.3619 31.4085 12.3619 30.5123 12.3619ZM31.8244 6.38479C32.6124 6.38182 33.2625 5.73365 33.2635 4.94792C33.2645 4.16813 32.6105 3.50807 31.8294 3.50016C31.0334 3.49224 30.3674 4.1612 30.3753 4.96177C30.3833 5.74948 31.0324 6.38776 31.8244 6.38479Z" stroke="url(#paint2_linear_897_731)" stroke-width="0.8" mask="url(#path-1-inside-1_897_731)"/>
<path d="M18.7647 18.8011C18.0163 18.8011 17.3037 18.8011 16.5732 18.8011C16.5732 18.0698 16.5732 17.3583 16.5732 16.6211C17.3047 16.6211 18.0253 16.6211 18.7647 16.6211C18.7647 17.3474 18.7647 18.0599 18.7647 18.8011Z" fill="url(#paint3_linear_897_731)"/>
<path d="M18.7647 18.8011C18.0163 18.8011 17.3037 18.8011 16.5732 18.8011C16.5732 18.0698 16.5732 17.3583 16.5732 16.6211C17.3047 16.6211 18.0253 16.6211 18.7647 16.6211C18.7647 17.3474 18.7647 18.0599 18.7647 18.8011Z" fill="url(#paint4_linear_897_731)"/>
<path d="M6.05765 3.86426C6.05765 4.59061 6.05765 5.30212 6.05765 6.03936C5.32816 6.03936 4.6066 6.03936 3.86719 6.03936C3.86719 5.31103 3.86719 4.60051 3.86719 3.86426C4.59767 3.86426 5.31823 3.86426 6.05765 3.86426Z" fill="url(#paint5_linear_897_731)"/>
<path d="M6.05765 3.86426C6.05765 4.59061 6.05765 5.30212 6.05765 6.03936C5.32816 6.03936 4.6066 6.03936 3.86719 6.03936C3.86719 5.31103 3.86719 4.60051 3.86719 3.86426C4.59767 3.86426 5.31823 3.86426 6.05765 3.86426Z" fill="url(#paint6_linear_897_731)"/>
<defs>
<linearGradient id="paint0_linear_897_731" x1="0.820351" y1="19.2184" x2="23.1456" y2="19.2184" gradientUnits="userSpaceOnUse">
<stop stop-color="#623D90"/>
<stop offset="1" stop-color="#9F0B00"/>
</linearGradient>
<linearGradient id="paint1_linear_897_731" x1="17.8133" y1="0" x2="17.8133" y2="38" gradientUnits="userSpaceOnUse">
<stop stop-color="#5A9FFF"/>
<stop offset="1" stop-color="#5A9FFF"/>
</linearGradient>
<linearGradient id="paint2_linear_897_731" x1="0.820351" y1="19.2184" x2="23.1456" y2="19.2184" gradientUnits="userSpaceOnUse">
<stop stop-color="#623D90"/>
<stop offset="1" stop-color="#9F0B00"/>
</linearGradient>
<linearGradient id="paint3_linear_897_731" x1="17.669" y1="16.6211" x2="17.669" y2="18.8011" gradientUnits="userSpaceOnUse">
<stop stop-color="#5A9FFF"/>
<stop offset="1" stop-color="#5A9FFF"/>
</linearGradient>
<linearGradient id="paint4_linear_897_731" x1="16.6237" y1="17.7236" x2="17.997" y2="17.7236" gradientUnits="userSpaceOnUse">
<stop stop-color="#623D90"/>
<stop offset="1" stop-color="#9F0B00"/>
</linearGradient>
<linearGradient id="paint5_linear_897_731" x1="4.96242" y1="3.86426" x2="4.96242" y2="6.03936" gradientUnits="userSpaceOnUse">
<stop stop-color="#5A9FFF"/>
<stop offset="1" stop-color="#5A9FFF"/>
</linearGradient>
<linearGradient id="paint6_linear_897_731" x1="3.91763" y1="4.96431" x2="5.29027" y2="4.96431" gradientUnits="userSpaceOnUse">
<stop stop-color="#623D90"/>
<stop offset="1" stop-color="#9F0B00"/>
</linearGradient>
</defs>
</svg>
