<svg width="43" height="42" viewBox="0 0 43 42" fill="none" xmlns="http://www.w3.org/2000/svg">
<path d="M21.4102 0C9.81328 0 0.410156 9.40313 0.410156 21C0.410156 32.5969 9.81328 42 21.4102 42C33.007 42 42.4102 32.5969 42.4102 21C42.4102 9.40313 33.007 0 21.4102 0ZM31.5023 15.8297C31.5164 16.05 31.5164 16.2797 31.5164 16.5047C31.5164 23.3859 26.2758 31.3125 16.6992 31.3125C13.7461 31.3125 11.0086 30.4547 8.70234 28.9781C9.12422 29.025 9.52734 29.0437 9.95859 29.0437C12.3961 29.0437 14.6367 28.2188 16.4227 26.8219C14.1352 26.775 12.2133 25.275 11.557 23.2125C12.3586 23.3297 13.0805 23.3297 13.9055 23.1188C12.7276 22.8795 11.6689 22.2398 10.9093 21.3084C10.1496 20.377 9.73588 19.2113 9.73828 18.0094V17.9437C10.4273 18.3328 11.2383 18.5719 12.0867 18.6047C11.3735 18.1293 10.7886 17.4854 10.3838 16.7298C9.97905 15.9743 9.76698 15.1306 9.76641 14.2734C9.76641 13.3031 10.0195 12.4172 10.4742 11.6484C11.7816 13.2578 13.413 14.5741 15.2623 15.5117C17.1117 16.4493 19.1377 16.9873 21.2086 17.0906C20.4727 13.5516 23.1164 10.6875 26.2945 10.6875C27.7945 10.6875 29.1445 11.3156 30.0961 12.3281C31.2727 12.1078 32.3977 11.6672 33.4008 11.0766C33.0117 12.2812 32.1961 13.2984 31.1133 13.9406C32.1633 13.8281 33.1758 13.5375 34.1133 13.1297C33.4055 14.1703 32.5195 15.0938 31.5023 15.8297Z" fill="url(#paint0_linear_716_570)"/>
<defs>
<linearGradient id="paint0_linear_716_570" x1="0.410156" y1="0" x2="47.0564" y2="6.02438" gradientUnits="userSpaceOnUse">
<stop stop-color="#623D90"/>
<stop offset="1" stop-color="#9F0B00"/>
</linearGradient>
</defs>
</svg>
