<svg width="39" height="38" viewBox="0 0 39 38" fill="none" xmlns="http://www.w3.org/2000/svg">
<path d="M32.2386 29.3787C30.5524 26.6617 26.8403 23.75 19.2521 23.75C11.664 23.75 7.95425 26.6594 6.26562 29.3787C7.82145 31.3292 9.79705 32.9037 12.0455 33.9851C14.2939 35.0666 16.7572 35.6271 19.2521 35.625C21.7471 35.6271 24.2104 35.0666 26.4588 33.9851C28.7072 32.9037 30.6828 31.3292 32.2386 29.3787Z" fill="url(#paint0_linear_994_331)"/>
<path fill-rule="evenodd" clip-rule="evenodd" d="M19.1797 21.375C21.0694 21.375 22.8816 20.6243 24.2178 19.2881C25.554 17.9519 26.3047 16.1397 26.3047 14.25C26.3047 12.3603 25.554 10.5481 24.2178 9.21186C22.8816 7.87567 21.0694 7.125 19.1797 7.125C17.29 7.125 15.4777 7.87567 14.1416 9.21186C12.8054 10.5481 12.0547 12.3603 12.0547 14.25C12.0547 16.1397 12.8054 17.9519 14.1416 19.2881C15.4777 20.6243 17.29 21.375 19.1797 21.375Z" fill="url(#paint1_linear_994_331)"/>
<path fill-rule="evenodd" clip-rule="evenodd" d="M19.1797 2.375C14.7705 2.375 10.5418 4.12656 7.42404 7.24435C4.30624 10.3621 2.55469 14.5908 2.55469 19C2.55469 23.4092 4.30624 27.6379 7.42404 30.7556C10.5418 33.8734 14.7705 35.625 19.1797 35.625C23.5889 35.625 27.8175 33.8734 30.9353 30.7556C34.0531 27.6379 35.8047 23.4092 35.8047 19C35.8047 14.5908 34.0531 10.3621 30.9353 7.24435C27.8175 4.12656 23.5889 2.375 19.1797 2.375ZM0.179688 19C0.179688 13.9609 2.18147 9.12816 5.74466 5.56497C9.30785 2.00178 14.1406 0 19.1797 0C24.2188 0 29.0515 2.00178 32.6147 5.56497C36.1779 9.12816 38.1797 13.9609 38.1797 19C38.1797 24.0391 36.1779 28.8718 32.6147 32.435C29.0515 35.9982 24.2188 38 19.1797 38C14.1406 38 9.30785 35.9982 5.74466 32.435C2.18147 28.8718 0.179688 24.0391 0.179688 19Z" fill="url(#paint2_linear_994_331)"/>
<defs>
<linearGradient id="paint0_linear_994_331" x1="6.80674" y1="29.7865" x2="11.6573" y2="19.9685" gradientUnits="userSpaceOnUse">
<stop stop-color="#623D90"/>
<stop offset="1" stop-color="#9F0B00"/>
</linearGradient>
<linearGradient id="paint1_linear_994_331" x1="12.3516" y1="14.3688" x2="19.6582" y2="7.60704" gradientUnits="userSpaceOnUse">
<stop stop-color="#623D90"/>
<stop offset="1" stop-color="#9F0B00"/>
</linearGradient>
<linearGradient id="paint2_linear_994_331" x1="0.971365" y1="19.3167" x2="20.4558" y2="1.28545" gradientUnits="userSpaceOnUse">
<stop stop-color="#623D90"/>
<stop offset="1" stop-color="#9F0B00"/>
</linearGradient>
</defs>
</svg>
