<svg width="23" height="38" viewBox="0 0 23 38" fill="none" xmlns="http://www.w3.org/2000/svg">
<path d="M12.0839 12.217C12.0839 13.5866 12.0839 14.911 12.0839 16.284C12.2486 16.284 12.3964 16.284 12.5453 16.284C14.599 16.284 16.6528 16.2851 18.7065 16.2829C19.2575 16.2829 19.6774 16.5129 19.9473 17C20.1936 17.4452 20.1791 17.8995 19.9226 18.3311C19.6673 18.7605 19.2776 18.9882 18.7771 18.9961C18.3459 19.0029 17.9159 18.9973 17.4333 18.9973C17.4333 19.191 17.4333 19.3552 17.4333 19.5195C17.4333 23.4064 17.44 27.2922 17.431 31.1791C17.4232 34.4531 15.2306 37.1709 12.0671 37.854C8.02125 38.7286 4.06159 35.56 4.02576 31.374C3.99216 27.4315 4.01792 23.488 4.0168 19.5456C4.0168 19.379 4.0168 19.2125 4.0168 18.9984C3.80627 18.9984 3.62934 18.9984 3.45241 18.9984C1.96754 18.9984 1.32813 18.5849 1.33485 17.631C1.34156 16.6805 1.96866 16.2851 3.47145 16.2851C5.27435 16.2851 7.07613 16.2851 8.87903 16.2851C9.0302 16.2851 9.18138 16.2851 9.35831 16.2851C9.35831 15.3732 9.35831 14.4907 9.35831 13.5991C8.45462 13.5039 7.54981 13.4495 6.65956 13.3079C4.40761 12.9488 2.47594 12.0153 1.19375 10.0033C0.511782 8.93276 0.209433 7.73191 0.0952117 6.48461C0.0224238 5.6814 0.00562663 4.87479 2.7563e-05 4.06931C-0.00445169 3.33634 0.537538 2.72798 1.24078 2.72345C3.82867 2.70759 6.31018 3.15281 8.47702 4.69353C9.11755 5.14894 9.6629 5.74257 10.2138 6.23877C10.6416 5.53639 11.0425 4.74111 11.5688 4.04212C12.9921 2.15361 14.9619 1.11023 17.1903 0.5166C18.5464 0.156344 19.9327 0.00340545 21.3347 6.81261e-06C22.2406 -0.00225895 22.7983 0.560782 22.7994 1.47615C22.8017 3.01913 22.758 4.55985 22.3426 6.05638C21.4792 9.16273 19.3694 10.9663 16.3448 11.6845C15.1041 11.9791 13.8051 12.0289 12.533 12.1875C12.3964 12.2045 12.2564 12.2056 12.0839 12.217ZM6.70547 28.5146C6.70547 29.4821 6.68756 30.4133 6.70883 31.3434C6.75698 33.361 8.29561 35.0218 10.318 35.2631C12.225 35.492 14.1724 34.2152 14.5677 32.2746C14.814 31.0647 14.7469 29.7891 14.8219 28.5214C13.8409 28.5214 12.9708 28.5214 12.0683 28.5214C12.0683 29.3914 12.0851 30.2366 12.0582 31.0805C12.0492 31.3649 11.9809 31.6753 11.8477 31.9234C11.5699 32.44 10.9484 32.6711 10.4053 32.525C9.8096 32.3652 9.3975 31.86 9.38855 31.2301C9.37511 30.3306 9.38519 29.4311 9.38519 28.5134C8.47926 28.5146 7.61812 28.5146 6.70547 28.5146ZM20.1556 2.82541C15.8107 2.99647 12.5879 5.38911 12.2306 9.48334C13.8835 9.40744 15.5229 9.30774 17.0537 8.59063C18.4893 7.91883 19.4109 6.79728 19.7726 5.24637C19.954 4.46695 20.0268 3.66261 20.1556 2.82541ZM9.25417 10.8337C8.95518 9.31227 8.37175 8.01966 7.17691 7.08277C5.87121 6.05864 4.34938 5.661 2.71334 5.50127C2.73461 5.80488 2.74245 6.03146 2.76709 6.25463C2.91938 7.65261 3.36507 8.89991 4.59126 9.71218C5.99215 10.6411 7.59012 10.742 9.25417 10.8337ZM6.73011 19.0176C6.73011 21.2868 6.73011 23.5231 6.73011 25.7492C7.62932 25.7492 8.50053 25.7492 9.36279 25.7492C9.36279 23.4891 9.36279 21.263 9.36279 19.0176C8.4815 19.0176 7.62148 19.0176 6.73011 19.0176ZM12.0974 19.0165C12.0974 21.2868 12.0974 23.5231 12.0974 25.7481C12.9977 25.7481 13.8678 25.7481 14.7289 25.7481C14.7289 23.488 14.7289 21.2619 14.7289 19.0165C13.8476 19.0165 12.9876 19.0165 12.0974 19.0165Z" fill="url(#paint0_linear_897_728)"/>
<defs>
<linearGradient id="paint0_linear_897_728" x1="0.524989" y1="19.2184" x2="14.8122" y2="19.2184" gradientUnits="userSpaceOnUse">
<stop stop-color="#623D90"/>
<stop offset="1" stop-color="#9F0B00"/>
</linearGradient>
</defs>
</svg>
