<svg width="43" height="42" viewBox="0 0 43 42" fill="none" xmlns="http://www.w3.org/2000/svg">
<path d="M42.4105 41.0864C42.0842 41.798 41.5195 42.0067 40.7576 42.0001C37.6953 41.9722 34.6329 41.9886 31.5706 41.9886C30.5835 41.9886 30.1175 41.5252 30.1166 40.5318C30.1133 36.9097 30.1084 33.2877 30.1191 29.6656C30.1199 29.3477 30.0287 29.226 29.7197 29.143C27.2614 28.4808 25.1228 27.2301 23.1758 25.544C24.8508 23.5366 26.0738 21.3049 26.8168 18.733C29.0671 21.5695 31.9897 22.604 35.4408 22.2679C32.6053 21.4224 31.0191 19.3147 31.3634 16.8332C31.7062 14.3624 33.6993 12.5218 36.0909 12.4675C38.5361 12.4125 40.6639 14.1101 41.0921 16.4635C41.342 17.8365 41.0617 19.1003 40.2571 20.2367C39.4566 21.3673 38.3396 22.0148 36.9876 22.332C37.1545 22.3649 37.3213 22.3961 37.4882 22.4323C40.0574 22.9894 41.9042 24.9343 42.3373 27.5366C42.348 27.5999 42.385 27.6582 42.4096 27.719C42.4105 32.1751 42.4105 36.6312 42.4105 41.0864Z" fill="url(#paint0_linear_459_15)"/>
<path d="M21.7405 0C22.4522 0.32457 22.6988 0.88661 22.6511 1.64914C22.61 2.30157 22.6478 2.95811 22.6413 3.613C22.6339 4.37142 22.1136 4.91949 21.4125 4.91949C20.7115 4.91949 20.1904 4.37142 20.1838 3.613C20.1781 2.95811 20.2159 2.30157 20.1739 1.64914C20.1246 0.885788 20.3761 0.326213 21.0846 0C21.3024 0 21.521 0 21.7405 0Z" fill="url(#paint1_linear_459_15)"/>
<path d="M5.93227 22.2917C2.70964 21.6483 1.42339 19.0222 1.66749 16.8817C1.95433 14.3623 4.03535 12.4831 6.51252 12.4667C9.04559 12.4494 11.1389 14.2933 11.4562 16.8619C11.7085 18.9039 10.5242 21.5875 7.36811 22.2605C13.3621 22.9844 17.1617 18.8431 17.6458 14.6417C17.7083 14.1002 17.6951 13.5472 17.7847 13.0115C18.1069 11.0961 19.8058 9.77893 21.715 9.93423C23.63 10.0904 25.1341 11.6984 25.093 13.6549C24.9763 19.2136 22.6199 23.6105 18.1118 26.8497C16.5889 27.9442 14.8917 28.6919 13.0761 29.1562C12.7638 29.2359 12.7038 29.3665 12.7038 29.6533C12.7104 33.2614 12.7063 36.8694 12.7046 40.4775C12.7038 41.5465 12.2584 41.9894 11.1825 41.9894C8.07987 41.9894 4.97641 41.9902 1.87378 41.9894C0.882584 41.9894 0.411642 41.5235 0.411642 40.5416C0.41082 36.5506 0.408354 32.5605 0.412464 28.5695C0.41493 25.3895 2.53376 22.9055 5.68406 22.3747C5.73255 22.3665 5.7794 22.3435 5.93227 22.2917Z" fill="url(#paint2_linear_459_15)"/>
<path d="M17.7292 6.0222C17.6865 6.64094 17.4802 7.03289 17.0126 7.25392C16.5466 7.47496 16.0756 7.43552 15.7123 7.08958C14.8124 6.23256 13.928 5.35745 13.0774 4.45112C12.6376 3.98275 12.7165 3.25637 13.1645 2.81594C13.6132 2.37469 14.3332 2.30896 14.8017 2.75185C15.7049 3.60477 16.5778 4.4922 17.435 5.39114C17.6093 5.57273 17.6619 5.87101 17.7292 6.0222Z" fill="url(#paint3_linear_459_15)"/>
<path d="M26.4397 7.39765C25.815 7.33438 25.4378 7.12567 25.2266 6.67291C25.0088 6.20619 25.0482 5.73618 25.3942 5.37217C26.2416 4.48145 27.1095 3.60881 28.0004 2.76328C28.4804 2.30724 29.2193 2.37051 29.6689 2.83066C30.1094 3.28095 30.1727 3.99665 29.7289 4.4683C28.8856 5.36231 28.0111 6.22838 27.1194 7.0739C26.9188 7.26453 26.5958 7.32616 26.4397 7.39765Z" fill="url(#paint4_linear_459_15)"/>
<defs>
<linearGradient id="paint0_linear_459_15" x1="42.4105" y1="12.4662" x2="23.1758" y2="12.4662" gradientUnits="userSpaceOnUse">
<stop stop-color="#9F0A00"/>
<stop offset="1" stop-color="#623D90"/>
</linearGradient>
<linearGradient id="paint1_linear_459_15" x1="22.6568" y1="0" x2="20.168" y2="-3.59781e-06" gradientUnits="userSpaceOnUse">
<stop stop-color="#9F0A00"/>
<stop offset="1" stop-color="#623D90"/>
</linearGradient>
<linearGradient id="paint2_linear_459_15" x1="25.0938" y1="9.92181" x2="0.410156" y2="9.92176" gradientUnits="userSpaceOnUse">
<stop stop-color="#9F0A00"/>
<stop offset="1" stop-color="#623D90"/>
</linearGradient>
<linearGradient id="paint3_linear_459_15" x1="17.7292" y1="2.45056" x2="12.7852" y2="2.45055" gradientUnits="userSpaceOnUse">
<stop stop-color="#9F0A00"/>
<stop offset="1" stop-color="#623D90"/>
</linearGradient>
<linearGradient id="paint4_linear_459_15" x1="30.0321" y1="2.45166" x2="25.0918" y2="2.45165" gradientUnits="userSpaceOnUse">
<stop stop-color="#9F0A00"/>
<stop offset="1" stop-color="#623D90"/>
</linearGradient>
</defs>
</svg>
