<svg width="43" height="42" viewBox="0 0 43 42" fill="none" xmlns="http://www.w3.org/2000/svg">
<path d="M24.9167 20.6347L20.0036 18.3422C19.5748 18.1431 19.2227 18.3662 19.2227 18.8409V23.1591C19.2227 23.6338 19.5748 23.8569 20.0036 23.6578L24.9145 21.3653C25.3455 21.1641 25.3455 20.8359 24.9167 20.6347ZM21.4102 0C9.81203 0 0.410156 9.40188 0.410156 21C0.410156 32.5981 9.81203 42 21.4102 42C33.0083 42 42.4102 32.5981 42.4102 21C42.4102 9.40188 33.0083 0 21.4102 0ZM21.4102 29.5312C10.6608 29.5312 10.4727 28.5622 10.4727 21C10.4727 13.4378 10.6608 12.4688 21.4102 12.4688C32.1595 12.4688 32.3477 13.4378 32.3477 21C32.3477 28.5622 32.1595 29.5312 21.4102 29.5312Z" fill="url(#paint0_linear_716_572)"/>
<defs>
<linearGradient id="paint0_linear_716_572" x1="0.410156" y1="0" x2="47.0564" y2="6.02438" gradientUnits="userSpaceOnUse">
<stop stop-color="#623D90"/>
<stop offset="1" stop-color="#9F0B00"/>
</linearGradient>
</defs>
</svg>
